<?xml version="1.0" encoding="UTF-8"?>
<svg width="47px" height="50px" viewBox="0 0 47 50" version="1.1" xmlns="http://www.w3.org/2000/svg" xmlns:xlink="http://www.w3.org/1999/xlink">
    <!-- Generator: Sketch 53.1 (72631) - https://sketchapp.com -->
    <title>Group 21</title>
    <desc>Created with Sketch.</desc>
    <g id="320" stroke="none" stroke-width="1" fill="none" fill-rule="evenodd">
        <g id="Mi-plata" transform="translate(-205.000000, -329.000000)">
            <g id="Group-6" transform="translate(170.000000, 314.000000)">
                <g id="Group-21" transform="translate(35.000000, 16.000000)">
                    <g id="Group-17" transform="translate(7.000000, 8.000000)">
                        <circle id="Oval" fill="#F5BD41" fill-rule="nonzero" cx="18" cy="18" r="18"></circle>
                        <g id="Group-25" transform="translate(5.000000, 13.000000)">
                            <ellipse id="Oval" stroke="#FFFFFF" stroke-width="0.799999952" stroke-linecap="round" cx="4.168125" cy="2.5" rx="2.12875" ry="2.18333333"></ellipse>
                            <path d="M0.585,9.66666667 C0.587849023,8.37433418 1.25084732,7.17806596 2.33204505,6.51441954 C3.41324278,5.85077312 4.75446284,5.81683868 5.86625,6.425" id="Path" stroke="#FFFFFF" stroke-width="0.799999952" stroke-linecap="round" stroke-linejoin="round"></path>
                            <ellipse id="Oval" stroke="#FFFFFF" stroke-width="0.799999952" stroke-linecap="round" cx="22.1" cy="2.5" rx="2.12875" ry="2.18333333"></ellipse>
                            <path d="M20.605,6.325 C21.0735441,6.10301497 21.5838874,5.98922603 22.1,5.99166667 C24.0802239,5.99166147 25.6867699,7.63567297 25.69125,9.66666667" id="Path" stroke="#FFFFFF" stroke-width="0.799999952" stroke-linecap="round" stroke-linejoin="round"></path>
                            <rect id="Rectangle" stroke="#FFFFFF" stroke-width="0.799999952" stroke-linecap="round" stroke-linejoin="round" x="5.988125" y="5.99166667" width="2.61625" height="4"></rect>
                            <rect id="Rectangle" stroke="#FFFFFF" stroke-width="0.799999952" stroke-linecap="round" stroke-linejoin="round" x="17.92375" y="5.99166667" width="2.61625" height="4"></rect>
                            <path d="M12.894375,9.375 L12.894375,8.59166667 C12.0531748,8.53749396 11.3696453,7.87499615 11.269375,7.01666667 L12.228125,6.825 C12.236354,7.09855608 12.3526479,7.35693001 12.5503044,7.54079652 C12.7479609,7.72466303 13.0099982,7.81822513 13.27625,7.8 C13.755625,7.8 14.048125,7.60833333 14.048125,7.21666667 C14.048125,6.825 13.853125,6.725 13.47125,6.625 L12.805,6.425 C12.0676752,6.3399396 11.4996166,5.71847381 11.464375,4.95833333 C11.5023782,4.1457423 12.1068099,3.48002209 12.894375,3.38333333 L12.894375,2.6 L13.66625,2.6 L13.66625,3.48333333 C14.3259594,3.58574285 14.8575911,4.09135057 15.006875,4.75833333 L14.048125,5.05 C13.9743283,4.62943054 13.6023188,4.3342706 13.186875,4.36666667 C12.7075,4.36666667 12.415,4.65833333 12.415,4.95833333 C12.415,5.25833333 12.61,5.35 12.894375,5.45 L13.56875,5.64166667 C14.3265597,5.69031658 14.9151722,6.33792761 14.909375,7.11666667 C14.8921663,7.92386282 14.2582662,8.57401675 13.47125,8.59166667 L13.47125,9.375 L12.894375,9.375 Z" id="Path" fill="#FFFFFF"></path>
                        </g>
                    </g>
                    <g id="Group-3" transform="translate(37.000000, 0.000000)" fill-rule="nonzero">
                        <path d="M4.54411765,9.76996262e-15 C2.30429864,9.76996262e-15 0.5,1.82179487 0.5,4.08333333 C0.5,6.34487179 2.30429864,8.16666667 4.54411765,8.16666667 C6.78393665,8.16666667 8.58823529,6.34487179 8.58823529,4.08333333 C8.58823529,1.82179487 6.78393665,9.76996262e-15 4.54411765,9.76996262e-15 Z M4.54411765,6.03076923 C3.48642534,6.03076923 2.61538462,5.15128205 2.61538462,4.08333333 C2.61538462,3.01538462 3.48642534,2.13589744 4.54411765,2.13589744 C5.60180995,2.13589744 6.47285068,3.01538462 6.47285068,4.08333333 C6.47285068,5.15128205 5.63291855,6.03076923 4.54411765,6.03076923 Z" id="Shape" fill="#E6434D"></path>
                        <ellipse id="Oval" fill="#5FD0D6" cx="4.54411765" cy="4.08333333" rx="1.10294118" ry="1.11363636"></ellipse>
                    </g>
                    <path d="M4.04411765,37.8636364 C1.80429864,37.8636364 -3.99680289e-14,39.6854312 -3.99680289e-14,41.9469697 C-3.99680289e-14,44.2085082 1.80429864,46.030303 4.04411765,46.030303 C6.28393665,46.030303 8.08823529,44.2085082 8.08823529,41.9469697 C8.08823529,39.6854312 6.28393665,37.8636364 4.04411765,37.8636364 Z M4.04411765,43.8944056 C2.98642534,43.8944056 2.11538462,43.0149184 2.11538462,41.9469697 C2.11538462,40.879021 2.98642534,39.9995338 4.04411765,39.9995338 C5.10180995,39.9995338 5.97285068,40.879021 5.97285068,41.9469697 C5.97285068,43.0149184 5.10180995,43.8944056 4.04411765,43.8944056 Z" id="Shape" fill="#E6434D" fill-rule="nonzero"></path>
                    <ellipse id="Oval" fill="#5FD0D6" fill-rule="nonzero" cx="4.04411765" cy="41.9469697" rx="1.10294118" ry="1.11363636"></ellipse>
                    <ellipse id="Oval" stroke="#5FD0D6" cx="10.3970588" cy="46.9469697" rx="1.10294118" ry="1.11363636"></ellipse>
                    <ellipse id="Oval" stroke="#5FD0D6" cx="45.2205882" cy="10.0227273" rx="1.10294118" ry="1.11363636"></ellipse>
                    <ellipse id="Oval" stroke="#5FD0D6" cx="34.9264706" cy="1.11363636" rx="1.10294118" ry="1.11363636"></ellipse>
                </g>
            </g>
        </g>
    </g>
</svg>