<?xml version="1.0" encoding="UTF-8"?>
<svg width="231px" height="156px" viewBox="0 0 231 156" version="1.1" xmlns="http://www.w3.org/2000/svg" xmlns:xlink="http://www.w3.org/1999/xlink">
    <!-- Generator: Sketch 53.1 (72631) - https://sketchapp.com -->
    <title>Group 3</title>
    <desc>Created with Sketch.</desc>
    <defs>
        <linearGradient x1="49.98833%" y1="100.00047%" x2="49.98833%" y2="-0.00720250172%" id="linearGradient-1">
            <stop stop-color="#808080" stop-opacity="0.25" offset="0%"></stop>
            <stop stop-color="#808080" stop-opacity="0.12" offset="54%"></stop>
            <stop stop-color="#808080" stop-opacity="0.1" offset="100%"></stop>
        </linearGradient>
    </defs>
    <g id="320" stroke="none" stroke-width="1" fill="none" fill-rule="evenodd">
        <g id="Recargar" transform="translate(-44.000000, -76.000000)">
            <g id="Group-3" transform="translate(44.000000, 76.000000)">
                <g id="undraw_uploading_go67" transform="translate(4.000000, 0.000000)">
                    <path d="M130.756149,24.5111425 C116.515206,24.016079 102.951984,19.4196897 89.9982711,14.3898449 C77.044558,9.36 64.2184676,3.78668547 50.3185855,1.13314528 C41.378389,-0.580874471 31.1553635,-0.822905501 23.951277,3.96930889 C17.0200393,8.58990127 14.7800393,16.543921 13.574224,23.930268 C12.6698625,29.4903808 12.135167,35.3387306 14.6194106,40.5423977 C16.3423183,44.1552609 19.4030648,47.1916502 21.5198428,50.6526939 C28.8823576,62.6926375 23.6784283,77.540141 15.6976031,89.2962482 C11.9569352,94.8101551 7.61335953,100.07763 4.72424361,105.943583 C1.8351277,111.809535 0.499489194,118.540197 3.02554028,124.529365 C5.53178782,130.470127 11.5014538,134.923498 17.9662083,138.0589 C31.1003536,144.426516 46.5713163,146.25055 61.6704126,147.282482 C95.076778,149.568575 128.663576,148.578449 162.157957,147.588322 C174.554971,147.220874 187.004794,146.849027 199.199371,144.932581 C205.972181,143.867645 212.965029,142.177828 217.880707,138.111707 C224.121022,132.934443 225.667898,124.166319 221.487151,117.675487 C214.472299,106.786291 195.082436,104.079944 190.17336,92.3942454 C187.473477,85.9628209 190.245972,78.7965021 194.167073,72.8315374 C202.581375,60.0324965 216.683694,48.8066573 217.427426,34.1769817 C217.937917,24.1304937 211.158507,14.0686037 200.675835,9.31379408 C189.687073,4.33015515 174.451552,4.95723554 166.349705,13.2060931 C157.997014,21.6793794 143.329194,24.9467983 130.756149,24.5111425 Z" id="Path" fill="#FA2C46" opacity="0.1"></path>
                    <g id="Group" opacity="0.1" transform="translate(0.000000, 70.188999)" fill="#6C63FF">
                        <path d="M19.0003929,2.05946403 C19.0003929,2.05946403 2.55465619,-4.85822285 0.391669941,7.6151763 C0.391669941,7.6151763 -0.732730845,9.56022567 0.831748527,11.1664316 C0.831748527,11.1664316 1.16840864,10.303921 2.75709234,11.1950353 C3.32452431,11.5088445 3.92726339,11.7540642 4.55261297,11.9255289 C5.39714593,12.158478 6.2945208,12.1105999 7.10946955,11.7891114 L7.10946955,11.7891114 C7.10946955,11.7891114 12.5202358,11.4964739 17.0706483,4.41816643 C17.0706483,4.41816643 19.0223969,3.21241185 19.1192141,2.75915374 L15.8582318,2.97918195 C15.8582318,2.97918195 16.1090766,5.36648801 14.7580354,6.79887165 C14.7580354,6.79887165 15.9550491,3.09359661 15.3807466,2.99018336 C15.2641257,2.96818054 13.6578389,3.17940762 13.6578389,3.17940762 C13.6578389,3.17940762 14.0737132,7.33133992 11.8975246,9.47881523 C11.8975246,9.47881523 13.9174853,5.25647391 13.0395285,3.25421721 L10.6322986,3.71847673 C10.6322986,3.71847673 11.2924165,8.08603667 8.91159136,10.6251622 C8.91159136,10.6251622 10.8699411,6.13658674 10.1130059,3.8570945 L7.8091945,4.63159379 C7.8091945,4.63159379 8.36369352,8.90234133 6.37233792,11.0124118 C6.37233792,11.0124118 8.11064833,5.59751763 7.29210216,4.851622 C7.29210216,4.851622 5.21933202,5.69212976 4.77705305,6.17179126 C4.77705305,6.17179126 5.10491159,9.25218618 3.83968566,10.3633286 C3.83968566,10.3633286 4.61642436,6.62284908 4.2313556,6.46882934 C4.2313556,6.46882934 1.82412574,8.28186178 1.0891945,9.84626234 C1.0891945,9.84626234 2.00455796,7.45675599 3.92990177,6.10578279 C3.92990177,6.10578279 2.31261297,5.83294781 1.06939096,6.50843441 C1.06939096,6.50843441 1.90113949,4.92203103 4.51300589,5.6745275 C4.51300589,5.6745275 6.44715128,4.33455571 6.83442043,4.35435825 C6.83442043,4.35435825 4.36337917,3.25421721 2.57886051,3.3906347 C2.57886051,3.3906347 4.49320236,2.29049365 7.43732809,4.1277292 L9.7367387,3.29822285 C9.7367387,3.29822285 6.54616896,1.66341326 4.94868369,1.6700141 C4.94868369,1.6700141 7.07426326,0.847108604 10.3330452,3.13540197 L12.6874656,2.65574048 C12.6874656,2.65574048 10.0469941,1.03853315 8.26687623,0.662284908 C8.26687623,0.662284908 10.4012574,0.323441467 13.367387,2.54352609 L14.9758743,2.40930889 C14.9758743,2.40930889 13.0285265,1.26076164 12.4388212,0.981325811 C11.8491159,0.701889986 11.8755206,0.521466855 11.8755206,0.521466855 C13.2783389,0.765420399 14.5856704,1.39467534 15.6513949,2.33889986 C15.6513949,2.33889986 18.9871906,2.26409027 19.0003929,2.05946403 Z" id="Path"></path>
                    </g>
                    <g id="Group" opacity="0.1" transform="translate(2.200393, 50.826516)" fill="#6C63FF">
                        <path d="M16.1970923,9.02115656 C16.1970923,9.02115656 10.3638507,-4.45997179 1.97595285,1.72282087 C1.97595285,1.72282087 0.202436149,2.23768688 0.215638507,4.07712271 C0.215638507,4.07712271 0.906561886,3.75588152 1.34444008,5.19266573 C1.50499991,5.70231431 1.72665058,6.19066002 2.00455796,6.64705219 C2.37185774,7.26735651 2.93215979,7.75035118 3.59984283,8.02222849 L3.59984283,8.02222849 C3.59984283,8.02222849 6.98184676,10.9310014 13.7216503,9.31819464 C13.7216503,9.31819464 15.5699804,9.71204513 15.8846365,9.50081805 L13.8250688,7.76919605 C13.8250688,7.76919605 12.6126523,9.33139633 10.9887623,9.40620592 C10.9887623,9.40620592 13.8118664,7.88801128 13.5302161,7.49856135 C13.4730059,7.4193512 12.3970138,6.63165021 12.3970138,6.63165021 C12.3970138,6.63165021 10.2802358,9.33359661 7.77618861,9.37540197 C7.77618861,9.37540197 11.3826326,8.01562764 12.000943,6.32801128 L10.3066405,5.22787024 C10.3066405,5.22787024 8.20746562,8.19605078 5.34915521,8.35007052 C5.34915521,8.35007052 9.07001965,6.79887165 9.91937132,5.0122426 L8.10844794,4.16073343 C8.10844794,4.16073343 6.0048723,7.02110014 3.62624754,7.12891396 C3.62624754,7.12891396 7.7453831,4.90222849 7.68157171,3.99351199 C7.68157171,3.99351199 5.9718664,3.31142454 5.42836935,3.35102962 C5.42836935,3.35102962 3.87269155,5.36428773 2.48424361,5.30708039 C2.48424361,5.30708039 5.07850688,3.52705219 4.93768173,3.21681241 C4.93768173,3.21681241 2.47324165,2.92197461 1.14640472,3.43684062 C1.14640472,3.43684062 3.05194499,2.53912553 4.96408644,2.83396333 C4.96408644,2.83396333 4.15874263,1.74922426 3.03874263,1.44778561 C3.03874263,1.44778561 4.43819253,0.979125529 5.56039293,2.9109732 C5.56039293,2.9109732 7.47033399,3.21901269 7.69477407,3.44784203 C7.69477407,3.44784203 6.85642436,1.38177715 5.71442043,0.451057828 C5.71442043,0.451057828 7.47473477,0.891114245 8.17886051,3.65686883 L10.018389,4.47317348 C10.018389,4.47317348 9.0546169,1.6832158 8.09964637,0.778899859 C8.09964637,0.778899859 9.8313556,1.50059238 10.4650688,4.7174048 L12.1373674,5.77133992 C12.1373674,5.77133992 11.4904519,3.30702398 10.6477014,2.06826516 C10.6477014,2.06826516 12.1087623,3.08479549 12.6038507,6.0925811 L13.6380354,6.92868829 C13.6380354,6.92868829 13.1341454,5.13765867 12.9427112,4.63599436 C12.751277,4.13433004 12.8700982,4.04191819 12.8700982,4.04191819 C13.5651791,4.98538486 13.9835055,6.10391334 14.0781139,7.2719323 C14.0781139,7.2719323 16.0672692,9.13337094 16.1970923,9.02115656 Z" id="Path"></path>
                    </g>
                    <path d="M205.356071,146.791819 C205.136031,145.995317 204.915992,145.187814 204.475914,144.494725 C204.067691,143.906507 203.582184,143.37588 203.032456,142.917123 C201.437171,141.467137 199.476621,139.995148 197.362043,140.362595 C196.706241,140.505891 196.072709,140.736793 195.478507,141.049083 C195.170452,141.192102 194.860196,141.33512 194.54334,141.456135 C193.650629,141.829027 192.664058,141.915146 191.720236,141.702567 C191.236149,141.57275 190.785069,141.33952 190.307583,141.194302 C190.080059,141.1264 189.847577,141.076374 189.612259,141.044683 C190.073239,140.835986 190.521439,140.600142 190.954499,140.338392 C193.328723,138.870804 195.223261,136.230465 194.957014,133.436107 C194.868998,132.489986 194.54334,131.58567 194.222083,130.694556 C193.940432,129.915656 193.658048,129.136023 193.374931,128.355656 C193.009666,127.341326 192.633399,126.309394 191.964479,125.466685 C191.220747,124.529365 190.164558,123.893484 189.073163,123.418223 C186.727544,122.399492 184.164086,122.040846 181.633635,121.693202 L181.457603,121.668999 L181.457603,94.3326939 C181.460533,93.8639498 181.276366,93.4133981 180.945925,93.0809085 C180.615484,92.7484189 180.166066,92.5614577 179.697289,92.5614669 L176.368094,92.5614669 C176.221401,91.6637518 176.074709,90.7667701 175.928016,89.8705219 C175.507741,87.3159944 175.074263,84.7108604 173.897053,82.4093653 C173.126916,80.9021721 171.899096,79.4675882 170.246601,79.1705501 C169.921305,79.1402034 169.601575,79.0661958 169.296031,78.9505219 C168.811945,78.7128914 168.547898,78.1848237 168.173831,77.7931735 C167.21446,76.7876446 165.654381,76.7722426 164.367151,76.252976 C163.231749,75.8019182 162.303183,74.950409 161.268998,74.2969252 C160.234813,73.6434415 158.947583,73.1769817 157.801179,73.6038364 C157.801179,73.6874471 157.785776,73.7688575 157.776974,73.8524683 L157.042043,73.522426 C156.249902,73.1571791 155.440157,72.7787306 154.804244,72.1758533 C153.985697,71.4035543 153.55002,70.3848237 153.211159,69.2978843 C153.175953,69.1834697 153.142947,69.0778561 153.109941,68.9568406 C154.516104,67.5200337 155.468113,65.7010529 155.84723,63.7267701 C155.90664,63.9181946 155.968251,64.1118195 156.027662,64.3054443 C156.081777,64.5022782 156.155492,64.6931907 156.247701,64.8753173 C156.278249,64.9355051 156.312799,64.9935762 156.35112,65.0491396 C156.423721,65.1571457 156.514558,65.2517003 156.619568,65.3285755 C156.723787,65.404445 156.845796,65.4521853 156.973831,65.4671932 C157.035137,65.475861 157.097358,65.475861 157.158664,65.4671932 C157.496328,65.3958384 157.774726,65.1580518 157.897996,64.8357123 C157.933086,64.7492085 157.958902,64.659227 157.97501,64.5672779 C157.983514,64.5118992 157.988657,64.4560566 157.990413,64.4000564 C157.990413,64.3824542 157.990413,64.3648519 157.990413,64.3472496 C157.990413,64.3296474 157.990413,64.2702398 157.990413,64.232835 C157.990413,64.1954302 157.990413,64.1910296 157.990413,64.1712271 C157.990413,64.1514245 157.990413,64.0964175 157.990413,64.061213 L157.990413,64.0040056 C157.990413,63.96 157.97721,63.9159944 157.968409,63.874189 C157.959607,63.8323836 157.968409,63.8499859 157.968409,63.8389845 C157.957407,63.7817772 157.944204,63.7267701 157.933202,63.6695628 C157.932141,63.6571171 157.932141,63.6446036 157.933202,63.632158 L157.900196,63.4935402 L157.880393,63.4099295 L157.880393,63.3879267 L157.880393,63.3879267 C157.858389,63.3021157 157.838585,63.2141044 157.818782,63.1260931 C157.65884,62.361727 157.618018,61.5772321 157.69776,60.8003949 C157.830325,59.6608355 158.040586,58.5316625 158.327073,57.4207616 L158.373281,57.220536 L158.42609,56.9873061 C158.461297,56.8288858 158.494303,56.6704654 158.527308,56.5120451 L158.527308,56.5120451 C158.555914,56.3778279 158.582318,56.2414104 158.606523,56.1049929 C158.630727,55.9685755 158.64833,55.8651622 158.665933,55.7441467 C158.665933,55.7287447 158.665933,55.715543 158.665933,55.700141 C158.800382,54.8800593 158.836578,54.0468737 158.773752,53.2182228 L158.773752,53.2182228 C158.670334,52.0674753 158.31387,50.9783357 157.53053,50.1092243 C156.978232,49.4953456 156.252102,49.0420874 155.739411,48.3974048 C155.257525,47.7923272 154.986876,47.0486319 154.489587,46.456756 C153.114342,44.8153456 149.587112,43.5501834 147.421925,43.3301551 C144.942083,43.079323 140.935167,43.7130042 138.93721,45.1783921 C138.197878,45.7196615 137.691788,46.4985614 137.176896,47.2400564 C136.230727,48.617433 135.154735,49.990409 133.638664,50.7605078 C133.064361,51.050945 132.408644,51.2709732 132.027976,51.7770381 C131.797981,52.1201202 131.647619,52.5102891 131.587898,52.9189845 C131.295403,54.3529632 131.143589,55.812068 131.134617,57.275543 C131.101732,57.9156797 131.183706,58.5565338 131.37666,59.1677856 C131.407466,59.2513963 131.444872,59.3372073 131.484479,59.4186178 L131.484479,59.4186178 C131.519686,59.4912271 131.559293,59.5638364 131.6011,59.638646 L131.627505,59.6848519 C131.893075,60.0660436 132.129201,60.4669228 132.333831,60.8840056 C132.382288,61.0015265 132.417706,61.124008 132.43945,61.2492525 C132.477174,61.572312 132.456302,61.899527 132.377839,62.2151763 L132.377839,62.2151763 C132.377839,62.2635825 132.360236,62.3097884 132.349234,62.3559944 L132.32943,62.4572073 C132.32943,62.4880113 132.32943,62.5210155 132.311827,62.5518195 C132.294224,62.647165 132.278821,62.7417772 132.265619,62.8356559 C132.265619,62.9016643 132.252417,62.9698731 132.250216,63.0380818 C132.23462,63.3106025 132.286783,63.5827421 132.402043,63.8301834 C132.430983,63.8891614 132.46562,63.9451684 132.505462,63.9974048 C132.584298,64.1029118 132.685811,64.1893808 132.802515,64.2504372 C133.064679,64.348942 133.338218,64.4139967 133.61666,64.4440621 C134.439607,64.6288858 134.954499,65.2581664 135.288959,66.0304654 C135.36312,66.2038134 135.428481,66.3807946 135.484794,66.5607334 C135.622034,67.0121898 135.725012,67.4733579 135.792849,67.9403103 C136.166916,67.9205078 136.384754,67.5904654 136.516778,67.2296192 C136.558059,67.1106471 136.592586,66.9894386 136.620196,66.8665726 C136.670806,66.635543 136.721415,66.4045134 136.774224,66.1734838 C137.642789,68.0162995 139.041858,69.5578031 140.792141,70.6004513 C140.853752,70.7808745 140.913163,70.9634979 140.968173,71.1483216 C141.256424,72.1450494 141.395049,73.1901834 140.89556,74.0614951 C140.539096,74.6797743 139.938389,75.0626234 139.26947,75.3266573 C139.173216,75.1973546 139.049139,75.0913301 138.906405,75.0164175 C138.325501,74.7259803 137.630177,75.0802257 137.14609,75.5136812 C136.265933,76.3101834 135.548605,77.4521298 134.388998,77.7139633 C133.970923,77.8107757 133.508841,77.7909732 133.158978,78.0462059 C132.928598,78.2628656 132.735986,78.5164464 132.589077,78.7965021 C132.078027,79.5297225 131.229008,79.9525522 130.335874,79.918646 C129.933202,79.8988434 129.455717,79.8064316 129.180668,80.1012694 C128.976031,80.3212976 128.960629,80.6711425 128.740589,80.8801693 C128.443536,81.1706065 127.96165,81.0275882 127.547976,81.0099859 C126.94392,81.0115592 126.367074,81.2613807 125.952692,81.7008745 C125.926709,80.813123 125.586778,79.9633399 124.99332,79.302567 C124.399214,78.6908886 123.574067,78.3762482 122.869941,77.8965867 C121.109627,76.6996333 120.22947,74.5961636 119.311906,72.6687165 C118.394342,70.7412694 117.184126,68.7082087 115.181768,68.0063188 C114.721886,67.8434979 114.081572,67.8302962 113.874735,68.2769535 C113.804395,68.4633704 113.792876,68.6668648 113.841729,68.8600282 C114.035363,69.8853597 114.765894,70.7082652 115.397407,71.5333709 C116.460196,72.9239492 117.351356,74.6247673 117.09391,76.3629901 C116.792456,78.4202539 114.959528,80.0176587 114.739489,82.0837236 C114.642672,82.9946403 114.873713,83.9099577 114.871513,84.825275 C114.871513,85.3973484 114.781297,85.9760226 114.904519,86.5326939 C115.035388,86.955614 115.190404,87.3706818 115.368802,87.7758533 C115.56711,88.4407189 115.669362,89.1305155 115.672456,89.8243159 C115.82795,92.7404231 115.982711,95.6572638 116.136739,98.5748378 C116.25336,100.750917 115.778075,102.898392 115.298389,105.039267 C114.703648,106.308308 114.242033,107.635567 113.920943,108.999774 C113.379646,111.38268 113.364244,113.921805 114.140982,116.240903 C114.556857,117.501664 115.194971,118.683216 115.536031,119.96598 C115.536031,119.994584 115.549234,120.020987 115.555835,120.047391 C115.588841,120.320226 115.626248,120.593061 115.676857,120.863695 C115.739414,121.176412 115.82098,121.485024 115.9211,121.787814 C116.020927,122.309351 116.183469,122.816901 116.405187,123.299408 C116.713783,123.912311 117.166897,124.440917 117.725422,124.839605 C117.408566,125.460085 116.895874,125.959549 116.554813,126.566827 C115.960707,127.618561 115.936503,128.910127 116.152141,130.10268 C116.568016,132.404175 117.811238,134.461439 119.452731,136.133653 C119.379445,136.129425 119.305977,136.129425 119.232692,136.133653 C118.695714,136.193035 118.180186,136.377681 117.727623,136.672722 C114.253202,138.703583 112.266248,143.05354 112.992377,147.036051 C113.135403,147.814951 113.384047,148.602652 113.90334,149.194528 C114.335683,149.665738 114.891365,150.006448 115.507426,150.178054 C115.892197,150.293839 116.288378,150.367612 116.689037,150.398082 C119.397721,150.61811 122.020589,149.361749 124.735874,149.256135 C125.636101,149.241912 126.536339,149.283798 127.431356,149.381551 C128.738389,149.490099 130.048356,149.559041 131.361257,149.588378 C133.493438,149.638984 134.694853,149.071312 136.056896,147.476107 C136.391618,147.080241 136.670712,146.640523 136.886444,146.16914 C138.043851,146.103131 139.322279,146.001918 140.248644,145.924908 L140.261847,146.054725 C140.312456,146.494781 140.38947,147.000846 140.741532,147.280282 C140.940336,147.415014 141.165235,147.506468 141.40165,147.548717 C143.626248,148.096587 145.87725,148.648858 148.165658,148.648858 C149.240344,148.626534 150.31291,148.543525 151.378232,148.400226 L155.404951,147.935966 C156.576747,148.086771 157.733321,148.338539 158.861768,148.688463 C160.023576,149.084513 161.11057,149.671989 162.245972,150.134048 C164.886444,151.205585 167.729352,151.588434 170.543654,151.962482 C171.02334,152.026291 171.573438,152.070296 171.929902,151.742454 C172.387583,151.302398 172.233556,150.565303 172.105933,149.949224 C172.053124,149.698392 172.013517,149.443159 171.980511,149.187927 C173.880124,149.687212 175.738372,150.332343 177.538703,151.117574 L177.85556,151.256192 C177.945776,151.735853 178.390255,152.120903 178.814931,152.637969 C178.954345,152.855538 179.117435,153.056993 179.301218,153.238646 C179.510606,153.376639 179.749577,153.463328 179.998743,153.491678 C182.972486,154.045327 186.00883,154.182326 189.020354,153.898731 C189.636407,153.814976 190.25934,153.793599 190.879686,153.834922 C191.335133,153.89661 191.784275,153.998214 192.221925,154.138561 L194.76998,154.866855 C196.646916,155.405924 198.572259,155.949394 200.519607,155.828378 C200.91508,155.802474 201.307936,155.745829 201.694617,155.658956 C203.234892,155.302511 204.671749,154.44 205.411081,153.053822 C206.403458,151.168181 205.921572,148.851283 205.356071,146.791819 Z M130.617525,112.377207 C130.539072,113.331279 130.290156,114.263552 129.882593,115.12976 C129.609745,115.682031 129.257682,116.190296 129.002436,116.744767 C128.760393,117.246432 128.579961,118.194753 128.472141,119.235487 C128.340118,119.213484 128.205894,119.193681 128.07387,119.178279 C128.269705,118.491791 128.417132,117.787701 128.612967,117.099013 C129.07725,115.462003 129.840786,113.915205 130.617525,112.377207 Z" id="Shape" fill="url(#linearGradient-1)" fill-rule="nonzero"></path>
                    <path d="M134.00833,146.217546 C133.544047,145.16141 133.103969,143.946855 133.568251,142.890719 C133.87131,142.268741 134.391922,141.779469 135.031513,141.515543 C135.664423,141.257472 136.331538,141.092925 137.011866,141.02708 C139.147224,140.747017 141.308,140.71748 143.450216,140.939069 C143.606444,142.175628 143.276385,143.429788 142.992534,144.624542 C142.735088,145.724683 142.587662,145.887504 141.452259,145.944711 C140.717328,145.984316 134.182161,146.606996 134.00833,146.217546 Z" id="Path" fill="#F5BD41"></path>
                    <ellipse id="Oval" fill="#464353" cx="153.602829" cy="130.291904" rx="31.4656189" ry="8.80112835"></ellipse>
                    <ellipse id="Oval" fill="#000035" opacity="0.766294643" cx="153.602829" cy="130.291904" rx="31.4656189" ry="8.80112835"></ellipse>
                    <path d="M159.244637,83.8307475 C158.16607,85.9147757 156.374734,87.5420459 154.196935,88.4161354 C152.914663,88.8834515 151.565304,89.14053 150.201022,89.177433 C148.706955,89.2456417 147.182083,89.1488293 145.778232,88.6383639 C143.894695,87.9562764 142.330216,86.5612976 141.157407,84.9352891 C139.984597,83.3092807 139.177053,81.4522426 138.475128,79.5798025 C138.105462,78.6050776 137.753399,77.5665444 137.92723,76.5368124 C139.060432,76.2793794 140.301454,75.9009309 140.886758,74.895402 C141.386248,74.0328914 141.247623,72.9987588 140.959371,72.0130324 C140.877957,71.7335966 140.78334,71.4563611 140.688723,71.1901269 C140.468684,70.5520451 139.709548,69.3396897 140.237642,68.7940197 C140.574303,68.4485755 141.984754,68.2725529 142.471041,68.0481241 C143.969509,67.3572355 145.351356,66.3583075 146.99725,66.0304654 C148.420904,65.7466291 149.890766,66.0128632 151.31222,66.307701 C151.500769,66.3351208 151.681866,66.4002227 151.844715,66.4991255 C152.030393,66.6555982 152.167757,66.8616331 152.240786,67.0932017 C152.645658,68.0789281 152.883301,69.1680677 153.208959,70.1955994 C153.547819,71.2715374 153.983497,72.2814669 154.799843,73.0449647 C155.435756,73.6412412 156.245501,74.0152891 157.037642,74.3783357 L158.987191,75.2716502 C159.333974,75.4014899 159.648509,75.6049145 159.909155,75.8679267 C160.164101,76.2183364 160.31648,76.6327864 160.349234,77.0648801 C160.698548,79.3801888 160.312186,81.7467331 159.244637,83.8307475 L159.244637,83.8307475 Z" id="Path" fill="#F5BD41" opacity="0.99"></path>
                    <path d="M153.200157,70.1955994 C150.00851,73.5154537 144.977977,74.2623549 140.959371,72.0130324 C140.877957,71.7335966 140.78334,71.4563611 140.688723,71.1901269 C140.468684,70.5520451 139.709548,69.3396897 140.237642,68.7940197 C140.574303,68.4485755 141.984754,68.2725529 142.471041,68.0481241 C143.969509,67.3572355 145.351356,66.3583075 146.99725,66.0304654 C148.420904,65.7466291 149.890766,66.0128632 151.31222,66.307701 C151.500769,66.3351208 151.681866,66.4002227 151.844715,66.4991255 C152.030393,66.6555982 152.167757,66.8616331 152.240786,67.0932017 C152.636857,68.0789281 152.874499,69.1680677 153.200157,70.1955994 Z" id="Path" fill="#000000" opacity="0.1"></path>
                    <ellipse id="Oval" fill="#F5BD41" opacity="0.99" cx="145.901454" cy="62.743244" rx="10.1218075" ry="10.1212976"></ellipse>
                    <path d="M176.739961,95.5912553 L175.908212,90.5526093 C175.487937,88.0244852 175.05446,85.4479549 173.87945,83.1706629 C173.107112,81.6788717 171.881493,80.2574894 170.228998,79.9626516 C169.903487,79.9336407 169.583578,79.8595914 169.278428,79.7426234 C168.794342,79.5093935 168.530295,78.9857264 168.158428,78.5984767 C167.199057,77.6039492 165.636778,77.5885472 164.351749,77.0824824 C163.216346,76.642426 162.28778,75.7953173 161.253595,75.1484344 C160.219411,74.5015515 158.932181,74.0482934 157.787976,74.4619464 C157.603143,76.4311989 157.407308,78.444457 156.571159,80.2376869 C155.468938,82.6020367 153.357728,84.3420833 150.826312,84.9725562 C148.294895,85.6030291 145.614128,85.0564692 143.531631,83.4853032 C141.571081,82.008914 140.314656,79.731622 139.729352,77.3487165 C139.586326,76.767842 139.423497,76.1011566 138.888802,75.8349224 C138.310098,75.5444852 137.614774,75.8965303 137.128487,76.323385 C136.237328,77.1132863 135.528802,78.2442313 134.371395,78.5104654 C133.95332,78.6072779 133.491238,78.5874753 133.143576,78.8405078 C132.912517,79.0537303 132.719101,79.3044152 132.571473,79.5820028 C132.056948,80.3089977 131.210567,80.7276171 130.320472,80.6953456 C129.9178,80.675543 129.440314,80.5831312 129.165265,80.8757687 C128.960629,81.0957969 128.945226,81.4390409 128.725187,81.6436671 C128.428134,81.9319041 127.946248,81.791086 127.532574,81.7756841 C126.749234,81.7426798 126.020904,82.2443441 125.572024,82.8758251 C125.123143,83.5073061 124.911906,84.2884062 124.691866,85.0453032 C127.096896,90.4007898 129.297289,95.7628773 131.702318,101.118364 C131.814996,101.320215 131.874794,101.547283 131.876149,101.778449 C131.827917,102.018377 131.725568,102.244136 131.576896,102.438533 C130.397485,104.332976 130.434892,106.715882 130.564715,108.942567 C130.694538,111.169252 130.852967,113.521354 129.858389,115.51701 C129.587741,116.06488 129.235678,116.566544 128.978232,117.114415 C128.375324,118.355374 128.157485,122.324683 128.509548,123.658054 L178.238428,123.658054 C177.290059,121.050719 177.650923,115.818449 177.848959,113.050494 C177.987583,111.114245 177.628919,109.180197 177.474892,107.243949 C177.151434,103.290042 177.393477,99.5385614 176.739961,95.5912553 Z" id="Path" fill="#FA2C46"></path>
                    <path d="M179.285815,122.117856 C180.018546,121.83842 180.82609,121.939633 181.611631,122.045247 C184.139882,122.390691 186.70554,122.744937 189.048959,123.754866 C190.149155,124.225726 191.196542,124.855007 191.940275,125.781326 C192.600393,126.615233 192.985462,127.636164 193.350727,128.641693 L194.195678,130.949788 C194.516935,131.829901 194.842593,132.727616 194.932809,133.662736 C195.196857,136.432891 193.302318,139.044626 190.919293,140.483611 C188.536267,141.922595 185.730766,142.435261 182.997878,142.97213 C180.26499,143.508999 177.5211,144.103075 174.799214,144.732355 C173.529677,145.0618 172.241629,145.315282 170.941925,145.491453 C168.028605,145.821495 164.983261,145.335233 162.215167,146.298956 C161.114971,146.684006 160.034578,147.256079 158.892574,147.522313 C158.135111,147.688484 157.368896,147.811895 156.597564,147.891961 L151.358428,148.490437 C150.293056,148.632921 149.220495,148.715196 148.145855,148.736869 C145.857446,148.736869 143.606444,148.195599 141.384047,147.65433 C141.147766,147.612877 140.922853,147.522166 140.723929,147.388096 C140.371866,147.11086 140.294853,146.620197 140.244244,146.17574 C140.019804,144.208688 139.823235,142.239436 139.654538,140.267983 C139.601729,139.627701 139.562122,138.934612 139.911984,138.395543 C140.352063,137.735458 141.210216,137.528632 141.993556,137.401016 C145.315177,136.857653 148.680112,136.624153 152.044951,136.703526 C153.323379,135.425162 155.431356,135.418561 157.105855,134.723272 C157.721871,134.44039 158.318068,134.11621 158.890373,133.752948 C161.884403,132.006089 165.230175,130.948515 168.684322,130.657151 C169.361054,130.636499 170.033382,130.540562 170.68888,130.371114 C171.984912,129.968463 173.166523,128.872722 174.49776,129.141157 C174.66279,128.685698 174.77721,128.07622 175.157878,127.76378 C175.347112,127.603159 175.580354,127.495346 175.754185,127.323724 C176.12165,126.951876 176.154656,126.366601 176.099646,125.847334 C176.044637,125.328068 175.921415,124.795599 176.055639,124.289535 C176.111483,124.097939 176.193684,123.915033 176.299882,123.746065 C176.9622,122.588717 177.958978,122.007842 179.285815,122.117856 Z" id="Path" fill="#464353"></path>
                    <path d="M179.285815,122.117856 C180.018546,121.83842 180.82609,121.939633 181.611631,122.045247 C184.139882,122.390691 186.70554,122.744937 189.048959,123.754866 C190.149155,124.225726 191.196542,124.855007 191.940275,125.781326 C192.600393,126.615233 192.985462,127.636164 193.350727,128.641693 L194.195678,130.949788 C194.516935,131.829901 194.842593,132.727616 194.932809,133.662736 C195.196857,136.432891 193.302318,139.044626 190.919293,140.483611 C188.536267,141.922595 185.730766,142.435261 182.997878,142.97213 C180.26499,143.508999 177.5211,144.103075 174.799214,144.732355 C173.529677,145.0618 172.241629,145.315282 170.941925,145.491453 C168.028605,145.821495 164.983261,145.335233 162.215167,146.298956 C161.114971,146.684006 160.034578,147.256079 158.892574,147.522313 C158.135111,147.688484 157.368896,147.811895 156.597564,147.891961 L151.358428,148.490437 C150.293056,148.632921 149.220495,148.715196 148.145855,148.736869 C145.857446,148.736869 143.606444,148.195599 141.384047,147.65433 C141.147766,147.612877 140.922853,147.522166 140.723929,147.388096 C140.371866,147.11086 140.294853,146.620197 140.244244,146.17574 C140.019804,144.208688 139.823235,142.239436 139.654538,140.267983 C139.601729,139.627701 139.562122,138.934612 139.911984,138.395543 C140.352063,137.735458 141.210216,137.528632 141.993556,137.401016 C145.315177,136.857653 148.680112,136.624153 152.044951,136.703526 C153.323379,135.425162 155.431356,135.418561 157.105855,134.723272 C157.721871,134.44039 158.318068,134.11621 158.890373,133.752948 C161.884403,132.006089 165.230175,130.948515 168.684322,130.657151 C169.361054,130.636499 170.033382,130.540562 170.68888,130.371114 C171.984912,129.968463 173.166523,128.872722 174.49776,129.141157 C174.66279,128.685698 174.77721,128.07622 175.157878,127.76378 C175.347112,127.603159 175.580354,127.495346 175.754185,127.323724 C176.12165,126.951876 176.154656,126.366601 176.099646,125.847334 C176.044637,125.328068 175.921415,124.795599 176.055639,124.289535 C176.111483,124.097939 176.193684,123.915033 176.299882,123.746065 C176.9622,122.588717 177.958978,122.007842 179.285815,122.117856 Z" id="Path" fill="#000035" opacity="0.472632999"></path>
                    <path d="M136.032692,147.57732 C134.670648,149.154922 133.471434,149.718195 131.339253,149.667588 C130.027819,149.636784 128.717852,149.568575 127.409352,149.462962 C126.514991,149.366254 125.615549,149.324371 124.716071,149.337546 C122.000786,149.443159 119.380118,150.686319 116.671434,150.468491 C116.270913,150.436968 115.874844,150.363216 115.489823,150.248463 C114.87875,150.078318 114.326638,149.742499 113.894538,149.278138 C113.375246,148.690663 113.126601,147.911763 112.983576,147.141664 C112.259646,143.194358 114.244401,138.895007 117.718821,136.88615 C118.172144,136.593397 118.687466,136.410331 119.22389,136.351481 C119.7499,136.349327 120.269876,136.463535 120.746562,136.685924 L120.779568,136.699126 C122.191144,137.27991 123.473155,138.135538 124.551041,139.216248 C124.714575,139.403526 124.909701,139.560662 125.127544,139.680508 C125.344941,139.762608 125.575093,139.805805 125.807466,139.808124 L128.698782,139.990748 C129.188636,140.005366 129.675508,140.072492 130.151041,140.190973 C130.67528,140.373988 131.185629,140.594589 131.678114,140.851058 C133.233792,141.546347 134.9589,141.731171 136.64,141.999605 C136.802,142.008557 136.956594,142.070391 137.080079,142.175628 C137.147171,142.259072 137.193883,142.357011 137.216503,142.461664 C137.693047,144.257702 137.24979,146.173168 136.032692,147.57732 L136.032692,147.57732 Z" id="Path" fill="#000000"></path>
                    <path d="M120.770766,136.699126 C119.649,137.77022 118.675834,138.986801 117.87725,140.316389 C116.595746,142.510673 115.790546,144.95014 115.514028,147.476107 C115.409166,148.397581 115.401053,149.3275 115.489823,150.250663 C114.878503,150.0799 114.326365,149.743304 113.894538,149.278138 C113.375246,148.690663 113.126601,147.911763 112.983576,147.141664 C112.259646,143.194358 114.244401,138.895007 117.718821,136.88615 C118.172144,136.593397 118.687466,136.410331 119.22389,136.351481 C119.7499,136.349327 120.269876,136.463535 120.746562,136.685924 L120.770766,136.699126 Z" id="Path" fill="#000000" opacity="0.1"></path>
                    <path d="M176.768566,142.171227 C178.385855,142.127221 180.201179,142.045811 181.389391,143.134951 C182.522593,144.164683 182.67222,145.8633 182.747033,147.392496 L182.832849,149.168124 C182.859253,149.709394 182.881257,150.268265 182.663418,150.769929 C182.276149,151.650042 181.21336,152.074697 180.242986,152.02409 C179.272613,151.973484 178.381454,151.548829 177.494695,151.16598 C175.087259,150.128894 172.580583,149.339331 170.01336,148.809478 C170.096974,147.581721 170.236333,146.359831 170.431434,145.143808 C170.565658,144.3011 170.587662,142.890719 171.150963,142.19103 C171.747269,141.451735 172.524008,141.852186 173.333752,141.988604 C174.469929,142.161978 175.620409,142.223147 176.768566,142.171227 L176.768566,142.171227 Z" id="Path" fill="#F5BD41"></path>
                    <path d="M134.032534,124.33134 C134.032534,124.551368 133.687073,124.33134 133.656267,124.09591 C133.414224,122.315882 132.001572,120.848293 130.355678,120.135402 C128.709784,119.422511 126.835049,119.385106 125.052731,119.554528 C122.35725,119.80976 119.342711,120.841693 118.345933,123.361016 C118.112692,123.950691 118.007073,124.588773 117.721022,125.154245 C117.404165,125.774725 116.887073,126.269788 116.543811,126.872666 C115.951906,127.915599 115.927701,129.193963 116.141139,130.373315 C116.715442,133.519718 118.867426,136.210663 121.474892,138.074302 C124.082358,139.937941 127.129902,141.051283 130.168644,142.054612 C138.203736,144.704515 146.447641,146.673384 154.813045,147.940367 C156.168487,148.144993 157.537132,148.334217 158.835363,148.769873 C159.997171,149.159323 161.084165,149.742398 162.219568,150.200056 C164.860039,151.260592 167.700747,151.639041 170.515049,152.010889 C170.994735,152.072496 171.544833,152.116502 171.899096,151.79086 C172.356778,151.366206 172.204951,150.626911 172.075128,150.017433 C171.597264,147.701994 171.996402,145.291606 173.195128,143.253766 C173.666012,142.461664 174.277721,141.64976 174.189705,140.732243 C174.084086,139.662906 173.019096,138.906008 171.958507,138.734386 C170.897917,138.562764 169.819725,138.815797 168.754735,138.954415 C168.387269,139.002821 167.986798,139.033625 167.654538,138.846601 C167.496255,138.739729 167.35273,138.612486 167.227662,138.468152 C165.722537,137.016251 163.453432,136.69909 161.607859,137.682652 C161.213988,137.90268 160.617682,137.412017 160.208409,137.227193 L155.585383,135.130324 C150.269234,132.725416 144.92668,130.309506 139.302475,128.786911 C138.853734,128.698707 138.427246,128.521386 138.048251,128.265444 C137.768802,128.045416 137.568566,127.746178 137.31112,127.501946 C136.75002,126.971678 135.96888,126.760451 135.29556,126.384203 C134.62224,126.007955 133.874106,125.086037 134.032534,124.33134 Z" id="Path" fill="#000035"></path>
                    <path d="M205.367073,153.086827 C204.627741,154.457602 203.193084,155.311312 201.652809,155.663357 C201.266271,155.750588 200.873328,155.806509 200.4778,155.830578 C198.530452,155.951594 196.607308,155.412525 194.730373,154.880056 L192.182318,154.158364 C191.74427,154.02048 191.295215,153.920368 190.840079,153.859126 C190.220466,153.81774 189.598257,153.839118 188.982947,153.922934 C185.971424,154.203088 182.935656,154.066856 179.961336,153.518082 C179.712506,153.491222 179.473525,153.406037 179.263811,153.26945 C179.080084,153.089357 178.916983,152.889366 178.777525,152.673173 C178.084401,151.839267 177.338468,151.353004 178.159214,150.252863 C178.632299,149.614781 179.510255,149.29574 179.877721,148.563047 C180.245187,147.830353 180.009745,146.789619 179.791906,146.032722 C179.494853,144.987588 178.517878,144.53653 178.168016,143.577207 C177.906169,142.853315 178.346248,142.012807 179.008566,141.618956 C179.670884,141.225106 180.48943,141.194302 181.252967,141.295515 C182.016503,141.396728 182.764637,141.612355 183.532574,141.671763 C185.790177,141.852186 188.098389,140.688237 190.265776,141.343921 C190.743261,141.48914 191.194342,141.720169 191.678428,141.847786 C192.622171,142.058873 193.608068,141.973582 194.501532,141.603554 C194.818389,141.484739 195.128644,141.341721 195.436699,141.200903 C196.030791,140.891637 196.663482,140.662992 197.318035,140.521016 C199.432613,140.157969 201.393163,141.621157 202.988448,143.04914 C203.536068,143.50361 204.020745,144.028958 204.429705,144.61134 C204.869784,145.297828 205.103026,146.09653 205.309862,146.884231 C205.892967,148.923893 206.374853,151.216587 205.367073,153.086827 Z" id="Path" fill="#000000"></path>
                    <path d="M205.367073,153.086827 C204.627741,154.457602 203.193084,155.311312 201.652809,155.663357 C202.251964,154.499333 202.522048,153.193866 202.433949,151.887673 C202.301925,149.795205 201.382161,147.823752 200.209352,146.085529 C199.487839,145.015514 198.667135,144.015838 197.758114,143.099746 C197.058389,142.395656 196.198035,141.836784 195.445501,141.192102 C196.039593,140.882836 196.672283,140.654191 197.326837,140.512214 C199.441415,140.149168 201.401965,141.612355 202.99725,143.040339 C203.54487,143.494809 204.029546,144.020157 204.438507,144.602539 C204.878585,145.289027 205.111827,146.087729 205.318664,146.87543 C205.892967,148.923893 206.374853,151.216587 205.367073,153.086827 Z" id="Path" fill="#000000" opacity="0.1"></path>
                    <path d="M138.908605,46.3159379 C138.169273,46.8506065 137.663183,47.6185049 137.148291,48.3555994 C136.199921,49.717574 135.12613,51.0773484 133.610059,51.8364457 C133.035756,52.1246827 132.380039,52.3425106 131.999371,52.8441749 C131.773427,53.1834469 131.626775,53.569235 131.570295,53.9729196 C131.279868,55.3923631 131.128061,56.8366672 131.117014,58.2854725 C131.117014,59.007165 131.147819,59.7508604 131.466876,60.4065444 C131.76833,61.0226234 132.311827,61.5440903 132.424047,62.2151763 C132.509862,62.7388434 132.316228,63.2603103 132.248016,63.7861777 C132.179804,64.3120451 132.298625,64.934725 132.784912,65.1855571 C133.04693,65.2841145 133.320571,65.3484539 133.599057,65.3769817 C135.062318,65.7026234 135.553006,67.4188434 135.775246,68.8380254 C136.272534,68.8094217 136.496974,68.2395487 136.600393,67.7752891 L138.125265,60.99622 C138.290295,60.2613258 138.565344,59.4098166 139.298075,59.1523836 C139.788762,58.9829619 140.325658,59.1413822 140.83835,59.1853879 C142.851709,59.350409 144.554813,57.7948096 146.524165,57.3657546 C147.154641,57.2392764 147.799124,57.1971022 148.440707,57.2403385 C149.994185,57.3173484 151.800707,57.9554302 152.130766,59.4054161 C152.185776,59.6408463 152.218782,59.9224824 152.438821,60.0390973 C152.658861,60.1557123 152.8789,60.0566996 153.120943,60.0390973 C154.106719,59.9400846 154.687623,61.0490268 154.971473,61.955543 L156.005658,65.2559661 C156.159686,65.7554302 156.419332,66.3429055 156.960629,66.4067137 C157.460118,66.4683216 157.884794,65.9952609 157.959607,65.5266008 C158.03442,65.0579408 157.871591,64.5716784 157.763772,64.1008181 C157.277485,61.9335402 158.021218,59.7156559 158.474499,57.5439774 C158.92778,55.372299 159.009194,52.8771791 157.488723,51.2049647 C156.936424,50.5998872 156.210295,50.1488293 155.695403,49.5107475 C155.215717,48.9122708 154.945069,48.1773766 154.44778,47.5899013 C153.072534,45.9682934 149.545305,44.7163329 147.382318,44.5095063 C144.920079,44.2388717 140.906562,44.865952 138.908605,46.3159379 Z" id="Path" fill="#000132"></path>
                    <g id="Group" opacity="0.09" transform="translate(130.923379, 54.126939)" fill="#000000">
                        <path d="M26.0460511,10.7373766 C25.5047544,10.6713681 25.2451081,10.077292 25.0910806,9.58662906 C24.7463523,8.48502116 24.4016241,7.38488011 24.0568959,6.28620592 C23.7730452,5.37748942 23.1921415,4.26854725 22.2063654,4.36976023 C21.9863261,4.39396333 21.7266798,4.48417489 21.5242436,4.36976023 C21.3218075,4.25534556 21.2711984,3.97150917 21.2161886,3.73607898 C20.8861297,2.28389281 19.0796071,1.64801128 17.5261297,1.57100141 C16.8845463,1.52887082 16.2402079,1.5710355 15.6095874,1.69641749 C13.6292338,2.13647391 11.9371316,3.67667137 9.9237721,3.51605078 C9.40447937,3.47424542 8.8675835,3.31582511 8.38349705,3.48524683 C7.64196464,3.74047955 7.37571709,4.58538787 7.21068762,5.32908322 L5.68581532,12.105952 C5.58239686,12.5724118 5.35795678,13.1422849 4.86066798,13.1686883 C4.64062868,11.7517066 4.14774067,10.0354866 2.68447937,9.70984485 C2.40635367,9.67919907 2.13297407,9.61492116 1.87033399,9.51842031 C1.67889975,9.41386016 1.52903226,9.24691774 1.44565815,9.04535966 C1.40605108,9.2499859 1.35984283,9.45461213 1.33343811,9.65923836 C1.26742633,10.1829055 1.38404715,10.8077856 1.87033399,11.0586178 C2.1323526,11.1571752 2.4059935,11.2215145 2.68447937,11.2500423 C4.14774067,11.5756841 4.63842829,13.2919041 4.86066798,14.711086 C5.35795678,14.6824824 5.58239686,14.1126093 5.68581532,13.6483498 L7.21068762,6.86928068 C7.37571709,6.13438646 7.65076621,5.28287729 8.38349705,5.02544429 C8.87418468,4.85602257 9.41108055,5.01444288 9.9237721,5.05844852 C11.9371316,5.22346968 13.6402358,3.66787024 15.6095874,3.23881523 C16.2371937,3.11311467 16.878666,3.07094388 17.5173281,3.11339915 C19.0708055,3.19040903 20.8773281,3.82849083 21.207387,5.27847673 C21.2623969,5.51390691 21.2954028,5.79554302 21.515442,5.91215797 C21.7354813,6.02877292 21.9555206,5.92976023 22.1975639,5.91215797 C23.1833399,5.81314528 23.7642436,6.92208745 24.0480943,7.82860367 C24.3913556,8.93021157 24.7360838,10.0303526 25.082279,11.1290268 C25.2363065,11.6284908 25.4959528,12.2159661 26.0372495,12.2797743 C26.5367387,12.3413822 26.9614145,11.8683216 27.0362279,11.3996615 C27.0700397,11.0053117 27.0251632,10.6081742 26.9042043,10.2313117 C26.7443493,10.55573 26.4073251,10.7544778 26.0460511,10.7373766 Z" id="Path"></path>
                        <path d="M1.50286837,6.54803949 C1.39064833,5.87695346 0.842750491,5.3554866 0.545697446,4.73940762 C0.35471416,4.32387511 0.244211875,3.87591544 0.220039293,3.41923836 C0.220039293,3.66566996 0.198035363,3.91210155 0.195834971,4.16073343 C0.195834971,4.88242595 0.226640472,5.6261213 0.545697446,6.28180536 C0.789941061,6.78126939 1.19261297,7.22132581 1.39504912,7.72959097 C1.50178406,7.34543418 1.53830918,6.94516884 1.50286837,6.54803949 Z" id="Path"></path>
                        <path d="M27.5599214,1.86583921 C27.1594499,3.78448519 26.5345383,5.73833568 26.7281729,7.66138223 C26.8535953,6.24220028 27.2672692,4.81421721 27.5599214,3.40603667 C27.8038138,2.33739664 27.8898089,1.23878991 27.815167,0.145218618 C27.7672951,0.723664379 27.682035,1.29840573 27.5599214,1.86583921 L27.5599214,1.86583921 Z" id="Path"></path>
                    </g>
                    <path d="M133.293202,105.316502 C133.026955,109.686262 129.820982,113.296925 128.599764,117.499464 C128.29611,118.551199 128.113477,119.642539 127.6778,120.643667 C126.797642,122.656925 124.986719,124.117913 123.056974,125.147645 C122.352903,125.554579 121.582786,125.834607 120.781768,125.974951 C118.978801,126.185634 117.233856,125.257556 116.400786,123.644852 C115.896896,122.621721 115.826483,121.44457 115.520629,120.344429 C115.179568,119.074866 114.541454,117.904316 114.12558,116.656756 C113.359843,114.361862 113.375246,111.84914 113.90554,109.490437 C114.408004,107.439249 115.203168,105.471077 116.266562,103.646488 C116.420589,103.375853 116.576817,103.107419 116.737446,102.841185 C117.191342,102.07152 117.700996,101.336125 118.262318,100.640903 C119.582554,99.0500987 121.279057,97.8267419 122.957957,96.6209873 C123.086158,96.5153646 123.236612,96.4401409 123.398035,96.4009591 L123.42444,96.4009591 C123.613742,96.3943072 123.801381,96.4383661 123.967937,96.5285755 C126.296272,97.5351474 128.531039,98.7456157 130.64613,100.145839 C131.403065,100.649704 132.597878,101.212976 132.993949,102.071086 C133.39002,102.929196 133.350413,104.383583 133.293202,105.316502 Z" id="Path" fill="#F5BD41" opacity="0.99"></path>
                    <path d="M124.557642,85.2081241 C124.343297,85.4324941 124.177067,85.6982988 124.069155,85.9892243 C122.290497,89.9975471 121.239911,94.2905765 120.966601,98.6672496 C120.971386,98.8806548 120.92219,99.0918114 120.823576,99.2811283 C120.726331,99.4070923 120.618086,99.5241675 120.500118,99.6309732 C120.283593,99.8876074 120.182974,100.222423 120.222159,100.555896 C120.261344,100.889368 120.436837,101.191742 120.706955,101.391199 C121.07002,100.706911 121.939175,100.484683 122.711513,100.425275 C126.410373,100.132638 130.023418,101.853258 133.733281,101.723441 C133.471434,100.819126 133.095167,99.9500141 132.881729,99.0346968 C131.93776,94.9707757 134.292181,90.5460085 132.848723,86.6317066 C132.560472,85.8484062 132.078585,85.0783075 131.31945,84.7350635 C131.005135,84.6081102 130.6762,84.5208914 130.340275,84.4754302 C129.402908,84.3060085 127.536974,83.5821157 126.630413,83.8725529 C126.295953,83.9803667 126.163929,84.2950071 125.88668,84.4842313 C125.475206,84.754866 124.916306,84.8494781 124.557642,85.2081241 Z" id="Path" fill="#FA2C46"></path>
                    <path d="M126.073713,121.589788 C124.923124,123.541258 122.838015,124.751394 120.572731,124.782398 C119.969847,124.798207 119.370298,124.688045 118.812417,124.458956 C117.406365,123.838477 116.612024,122.30268 116.317171,120.793286 C116.022318,119.283893 116.114735,117.726093 115.905697,116.201298 C115.738468,114.986742 115.382004,113.807391 115.197171,112.595035 C114.74389,109.596051 115.63725,106.634471 116.273163,103.648688 C116.427191,103.378054 116.583418,103.109619 116.744047,102.843385 C117.197943,102.07372 117.707597,101.338326 118.268919,100.643103 C119.589155,99.052299 121.285658,97.8289422 122.964558,96.6231876 L121.204244,96.6231876 C121.290909,96.5597912 121.404757,96.5472795 121.503124,96.590341 C121.60149,96.6334026 121.669524,96.7255357 121.681729,96.8322144 C121.85556,98.3724118 124.027348,99.9126093 124.500432,101.408801 C124.793084,102.328519 125.145147,103.230635 125.380589,104.167955 C125.566175,104.96627 125.707218,105.774288 125.803065,106.588265 C126.115521,108.866291 126.426509,111.139915 126.736031,113.40914 C127.125501,116.179295 127.459961,119.173879 126.073713,121.589788 Z" id="Path" fill="#000000" opacity="0.1"></path>
                    <path d="M123.160393,92.7000846 L125.283772,86.0398307 C125.600629,85.043103 125.921886,84.0309732 125.959293,82.9836389 C125.996699,81.9363047 125.72165,80.8383639 124.988919,80.090268 C124.394813,79.4851904 123.571866,79.1727504 122.867741,78.6996897 C121.107426,77.5137377 120.227269,75.4366714 119.309705,73.5246262 C118.392141,71.6125811 117.184126,69.6125247 115.181768,68.9040339 C114.719686,68.741213 114.081572,68.7280113 113.874735,69.170268 C113.803193,69.354133 113.79164,69.5559136 113.841729,69.7467419 C114.035363,70.7632722 114.763694,71.5751763 115.397407,72.3870804 C116.460196,73.7622567 117.349155,75.4454725 117.09391,77.1660931 C116.790255,79.2035543 114.959528,80.7833568 114.739489,82.8318195 C114.642672,83.7339351 114.873713,84.6382511 114.871513,85.5469676 C114.871513,86.1102398 114.779096,86.6845134 114.904519,87.2345839 C115.034693,87.6598952 115.189721,88.0771996 115.368802,88.4843441 C115.564789,89.1421971 115.667014,89.8244017 115.672456,90.5108039 L116.136739,99.1711142 C116.387583,103.855515 113.84613,108.412299 114.545855,113.032891 C114.730688,114.245247 115.087151,115.424598 115.254381,116.639154 C115.47442,118.163949 115.371002,119.719549 115.665855,121.231142 C115.960707,122.742736 116.766051,124.276333 118.1611,124.896812 C118.718982,125.125901 119.318531,125.236063 119.921415,125.220254 C122.186699,125.189251 124.271808,123.979114 125.422397,122.027645 C126.808644,119.607334 126.474185,116.617151 126.095717,113.857997 L125.16275,107.037123 C125.066904,106.223145 124.925861,105.415127 124.740275,104.616812 C124.507033,103.679492 124.154971,102.777377 123.860118,101.857659 C122.916149,98.8498731 122.209823,95.6880677 123.160393,92.7000846 Z" id="Path" fill="#F5BD41" opacity="0.99"></path>
                    <rect id="Rectangle" fill="#3F3D56" x="132.369037" y="93.2171509" width="49.0687623" height="31.2440056" rx="5.5789999"></rect>
                    <rect id="Rectangle" fill="#000000" opacity="0.2" x="132.369037" y="93.2171509" width="49.0687623" height="31.2440056" rx="5.5789999"></rect>
                    <ellipse id="Oval" fill="#FFFFFF" cx="156.793399" cy="108.839154" rx="1.32023576" ry="1.32016925"></ellipse>
                    <path d="M98.8944597,134.437236 L101.559136,134.437236 C104.597244,134.437236 107.060118,136.899985 107.060118,139.937941 L107.060118,148.103188 L93.3934774,148.103188 L93.3934774,139.937941 C93.3934774,136.899985 95.8563511,134.437236 98.8944597,134.437236 Z" id="Path" fill="#3F3D56"></path>
                    <path d="M98.8944597,134.437236 L101.559136,134.437236 C104.597244,134.437236 107.060118,136.899985 107.060118,139.937941 L107.060118,148.103188 L93.3934774,148.103188 L93.3934774,139.937941 C93.3934774,136.899985 95.8563511,134.437236 98.8944597,134.437236 Z" id="Path" fill="#000000" opacity="0.1"></path>
                    <ellipse id="Oval" fill="#3F3D56" cx="99.6822004" cy="136.351481" rx="1.09359528" ry="1.0935402"></ellipse>
                    <ellipse id="Oval" fill="#3F3D56" cx="99.6822004" cy="134.985106" rx="1.09359528" ry="1.0935402"></ellipse>
                    <ellipse id="Oval" fill="#3F3D56" cx="99.6822004" cy="133.618731" rx="1.09359528" ry="1.0935402"></ellipse>
                    <ellipse id="Oval" fill="#3F3D56" cx="99.6822004" cy="132.252355" rx="1.09359528" ry="1.0935402"></ellipse>
                    <ellipse id="Oval" fill="#3F3D56" cx="99.6822004" cy="130.88598" rx="1.09359528" ry="1.0935402"></ellipse>
                    <ellipse id="Oval" fill="#3F3D56" cx="99.6822004" cy="129.519605" rx="1.09359528" ry="1.0935402"></ellipse>
                    <ellipse id="Oval" fill="#3F3D56" cx="99.6822004" cy="128.15323" rx="1.09359528" ry="1.0935402"></ellipse>
                    <ellipse id="Oval" fill="#3F3D56" cx="101.321493" cy="128.6989" rx="1.09359528" ry="1.0935402"></ellipse>
                    <ellipse id="Oval" fill="#3F3D56" cx="102.415088" cy="128.15323" rx="1.09359528" ry="1.0935402"></ellipse>
                    <ellipse id="Oval" fill="#3F3D56" cx="103.508684" cy="127.60536" rx="1.09359528" ry="1.0935402"></ellipse>
                    <ellipse id="Oval" fill="#3F3D56" cx="99.6822004" cy="126.784654" rx="1.09359528" ry="1.0935402"></ellipse>
                    <ellipse id="Oval" fill="#3F3D56" cx="99.6822004" cy="125.418279" rx="1.09359528" ry="1.0935402"></ellipse>
                    <ellipse id="Oval" fill="#3F3D56" cx="99.6822004" cy="124.051904" rx="1.09359528" ry="1.0935402"></ellipse>
                    <ellipse id="Oval" fill="#3F3D56" cx="99.6822004" cy="122.685529" rx="1.09359528" ry="1.0935402"></ellipse>
                    <path d="M104.212809,119.158477 C103.942161,119.198082 103.669312,119.226685 103.396464,119.244288 C103.650125,119.022971 103.885591,118.78163 104.100589,118.522595 C103.94834,118.063392 103.725643,117.630639 103.440472,117.239831 C103.169405,117.392088 102.869711,117.486487 102.560314,117.517066 C102.289666,117.556671 102.016817,117.587475 101.743969,117.605078 C102.11064,117.256169 102.459479,116.888989 102.789155,116.504937 C101.158852,115.038714 98.7249721,114.912901 96.9521631,116.203209 C95.179354,117.493518 94.5509912,119.848131 95.4452074,121.850102 C96.3394237,123.852073 98.5124013,124.955544 100.656497,124.496473 C102.800593,124.037402 104.331197,122.14096 104.32723,119.948378 C104.327309,119.680591 104.303746,119.413319 104.256817,119.149676 L104.212809,119.158477 Z" id="Path" fill="#FA2C46"></path>
                    <path d="M107.867662,124.590973 C107.588349,124.761956 107.273854,124.867284 106.947898,124.899013 C106.67725,124.938618 106.404401,124.967221 106.131552,124.984824 C106.421549,124.724718 106.692182,124.443804 106.941297,124.144316 C105.574979,123.7881 104.161889,124.529558 103.678685,125.856232 C103.195481,127.182906 103.800737,128.659417 105.07613,129.265273 C106.351523,129.87113 107.878504,129.407508 108.601699,128.194838 C109.324894,126.982169 109.006971,125.418418 107.867662,124.584372 L107.867662,124.590973 Z" id="Path" fill="#FA2C46"></path>
                    <ellipse id="Oval" fill="#3F3D56" cx="98.0407073" cy="128.6989" rx="1.09359528" ry="1.0935402"></ellipse>
                    <ellipse id="Oval" fill="#3F3D56" cx="96.947112" cy="128.15323" rx="1.09359528" ry="1.0935402"></ellipse>
                    <ellipse id="Oval" fill="#3F3D56" cx="95.8535167" cy="127.60536" rx="1.09359528" ry="1.0935402"></ellipse>
                    <path d="M91.4945383,124.590973 C91.7736877,124.762307 92.088266,124.867663 92.4143026,124.899013 C92.6849509,124.938618 92.9577996,124.967221 93.2306483,124.984824 C92.9401043,124.725286 92.6694307,124.444329 92.4209037,124.144316 C93.7872214,123.7881 95.2003112,124.529558 95.6835154,125.856232 C96.1667196,127.182906 95.5614637,128.659417 94.2860708,129.265273 C93.0106778,129.87113 91.4836968,129.407508 90.7605014,128.194838 C90.0373061,126.982169 90.3552293,125.418418 91.4945383,124.584372 L91.4945383,124.590973 Z" id="Path" fill="#FA2C46"></path>
                    <path d="M98.8944597,135.257941 L101.559136,135.257941 C104.597244,135.257941 107.060118,137.72069 107.060118,140.758646 L107.060118,147.990973 C107.060118,148.50621 106.642415,148.923893 106.127151,148.923893 L94.326444,148.923893 C93.8111808,148.923893 93.3934774,148.50621 93.3934774,147.990973 L93.3934774,140.758646 C93.3934774,137.72069 95.8563511,135.257941 98.8944597,135.257941 Z" id="Path" fill="#3F3D56"></path>
                    <g id="Group" opacity="0.1" transform="translate(95.056974, 115.294781)" fill="#000000">
                        <path d="M9.2394499,4.16293371 C9.12873533,4.28120139 9.0111792,4.3928741 8.88738703,4.49737659 C9.01280943,4.49737659 9.13603143,4.47757405 9.26145383,4.46437236 C9.25705305,4.36315938 9.25045187,4.2619464 9.2394499,4.16293371 Z" id="Path"></path>
                        <path d="M7.24589391,2.85596615 C7.52094303,2.83836389 7.79159136,2.80976023 8.06444008,2.77015515 C8.30923282,2.73913738 8.54846927,2.67396169 8.77516699,2.57653032 C8.66387103,2.35656171 8.53587314,2.14544939 8.39229862,1.94504937 C8.25543518,2.02836826 8.10719484,2.09136723 7.95222004,2.13207334 C7.73644855,2.39180944 7.50025391,2.63387835 7.24589391,2.85596615 L7.24589391,2.85596615 Z" id="Path"></path>
                        <path d="M0.523693516,5.20366714 C0.520356673,3.50437498 1.44658596,1.93930168 2.93783332,1.1244334 C4.42908068,0.309565123 6.24657079,0.375376827 7.67497053,1.29596615 L7.7453831,1.22115656 C6.50014414,0.113255811 4.75654489,-0.242161201 3.17697511,0.289927714 C1.59740534,0.822016629 0.42428093,2.15995202 0.103269435,3.79545497 C-0.21774206,5.43095793 0.362624854,7.11302854 1.62388998,8.20265162 C0.912259988,7.36557496 0.522202045,6.30233057 0.523693516,5.20366714 Z" id="Path"></path>
                    </g>
                    <g id="Group" opacity="0.1" transform="translate(103.418468, 123.875882)" fill="#000000">
                        <path d="M2.71308448,1.65461213 C2.9859332,1.63700987 3.25878193,1.60840621 3.52943026,1.56880113 C3.85559738,1.53806709 4.17031159,1.43266573 4.4491945,1.26076164 C5.074002,1.72089569 5.47394259,2.42475567 5.54939096,3.19700987 C5.56006375,3.10130699 5.56520654,3.00506814 5.56479371,2.90877292 C5.56899947,2.04209194 5.16050041,1.22513498 4.46459725,0.708490832 C4.18528391,0.879473574 3.87078879,0.984801561 3.54483301,1.01653032 L3.32479371,1.04293371 C3.13702051,1.26234168 2.9325035,1.46684839 2.71308448,1.65461213 Z" id="Path"></path>
                        <path d="M2.82310413,0.721692525 C2.914372,0.722734037 3.00549112,0.729347189 3.09595285,0.741495063 C3.23897839,0.589675599 3.37980354,0.426854725 3.52282908,0.268434415 C2.70291645,0.0494355744 1.82777922,0.224401798 1.15511176,0.741812239 C0.482444301,1.25922268 0.0888458672,2.06015781 0.09021611,2.90877292 C0.09021611,3.00118477 0.09021611,3.09139633 0.103418468,3.1816079 C0.243576968,1.78484661 1.41925833,0.721460238 2.82310413,0.721692525 Z" id="Path"></path>
                    </g>
                    <g id="Group" opacity="0.1" transform="translate(90.216110, 123.875882)" fill="#000000">
                        <path d="M3.01453831,1.65461213 C2.74168959,1.63700987 2.46884086,1.60840621 2.19819253,1.56880113 C1.87194295,1.53845724 1.55714203,1.43302683 1.27842829,1.26076164 C0.653620785,1.72089569 0.253680197,2.42475567 0.178231827,3.19700987 C0.167559043,3.10130699 0.16241625,3.00506814 0.162829077,2.90877292 C0.158623321,2.04209194 0.567122377,1.22513498 1.26302554,0.708490832 C1.54217492,0.879824983 1.85675323,0.985180833 2.18278978,1.01653032 L2.40282908,1.04293371 C2.58941622,1.26343601 2.7940249,1.46803439 3.01453831,1.65461213 Z" id="Path"></path>
                        <path d="M2.90451866,0.721692525 C2.81252,0.722737132 2.72066895,0.729350075 2.62946955,0.741495063 C2.4886444,0.589675599 2.34781925,0.426854725 2.20479371,0.268434415 C3.02470634,0.0494355744 3.89984357,0.224401798 4.57251103,0.741812239 C5.24517849,1.25922268 5.63877692,2.06015781 5.63740668,2.90877292 C5.63740668,3.00118477 5.63740668,3.09139633 5.62420432,3.1816079 C5.48404582,1.78484661 4.30836446,0.721460238 2.90451866,0.721692525 Z" id="Path"></path>
                    </g>
                    <rect id="Rectangle" fill="#5FD0D6" x="35" y="40" width="49.7288802" height="19.3624824"></rect>
                    <rect id="Rectangle" stroke="#3F3D56" stroke-width="6.29999989" x="34.7904126" y="39.5280677" width="81.6345776" height="19.3624824" rx="8.39999986"></rect>
                </g>
                <g id="Group-2" transform="translate(0.000000, 26.000000)">
                    <g id="Group-5" transform="translate(37.000000, 0.000000)" fill-rule="nonzero">
                        <path d="M4.54411765,-1.86517468e-14 C2.30429864,-1.86517468e-14 0.5,1.82179487 0.5,4.08333333 C0.5,6.34487179 2.30429864,8.16666667 4.54411765,8.16666667 C6.78393665,8.16666667 8.58823529,6.34487179 8.58823529,4.08333333 C8.58823529,1.82179487 6.78393665,-1.86517468e-14 4.54411765,-1.86517468e-14 Z M4.54411765,6.03076923 C3.48642534,6.03076923 2.61538462,5.15128205 2.61538462,4.08333333 C2.61538462,3.01538462 3.48642534,2.13589744 4.54411765,2.13589744 C5.60180995,2.13589744 6.47285068,3.01538462 6.47285068,4.08333333 C6.47285068,5.15128205 5.63291855,6.03076923 4.54411765,6.03076923 Z" id="Shape" fill="#5FD0D6"></path>
                        <ellipse id="Oval" fill="#F5BD41" cx="4.54411765" cy="4.08333333" rx="1.10294118" ry="1.11363636"></ellipse>
                    </g>
                    <g id="Group-5" transform="translate(33.000000, 37.000000)" fill-rule="nonzero">
                        <path d="M6.56372549,-1.86517468e-14 C3.32843137,-1.86517468e-14 0.722222222,2.63148148 0.722222222,5.89814815 C0.722222222,9.16481481 3.32843137,11.7962963 6.56372549,11.7962963 C9.79901961,11.7962963 12.4052288,9.16481481 12.4052288,5.89814815 C12.4052288,2.63148148 9.79901961,-1.86517468e-14 6.56372549,-1.86517468e-14 Z M6.56372549,8.71111111 C5.03594771,8.71111111 3.77777778,7.44074074 3.77777778,5.89814815 C3.77777778,4.35555556 5.03594771,3.08518519 6.56372549,3.08518519 C8.09150327,3.08518519 9.3496732,4.35555556 9.3496732,5.89814815 C9.3496732,7.44074074 8.13643791,8.71111111 6.56372549,8.71111111 Z" id="Shape" fill="#5FD0D6"></path>
                        <ellipse id="Oval" fill="#F5BD41" cx="6.56372549" cy="5.89814815" rx="1.59313725" ry="1.60858586"></ellipse>
                    </g>
                    <path d="M4.04411765,37.8636364 C1.80429864,37.8636364 6.43041176e-13,39.6854312 6.43041176e-13,41.9469697 C6.43041176e-13,44.2085082 1.80429864,46.030303 4.04411765,46.030303 C6.28393665,46.030303 8.08823529,44.2085082 8.08823529,41.9469697 C8.08823529,39.6854312 6.28393665,37.8636364 4.04411765,37.8636364 Z" id="Path" fill="#5FD0D6" fill-rule="nonzero"></path>
                    <path d="M4.04411765,43.8944056 C2.98642534,43.8944056 2.11538462,43.0149184 2.11538462,41.9469697 C2.11538462,40.879021 2.98642534,39.9995338 4.04411765,39.9995338 C5.10180995,39.9995338 5.97285068,40.879021 5.97285068,41.9469697 C5.97285068,43.0149184 5.10180995,43.8944056 4.04411765,43.8944056 Z" id="Path" fill="#E6434D" fill-rule="nonzero"></path>
                    <ellipse id="Oval" fill="#F5BD41" fill-rule="nonzero" cx="4.04411765" cy="41.9469697" rx="1.10294118" ry="1.11363636"></ellipse>
                    <ellipse id="Oval" stroke="#5FD0D6" cx="10.3970588" cy="46.9469697" rx="1.10294118" ry="1.11363636"></ellipse>
                    <ellipse id="Oval" stroke="#5FD0D6" cx="45.2205882" cy="10.0227273" rx="1.10294118" ry="1.11363636"></ellipse>
                    <ellipse id="Oval" stroke="#5FD0D6" cx="34.9264706" cy="1.11363636" rx="1.10294118" ry="1.11363636"></ellipse>
                </g>
                <g id="Group-2" transform="translate(156.000000, 61.000000)">
                    <g id="Group-5" transform="translate(59.042553, 0.000000)" fill-rule="nonzero">
                        <path d="M7.25125156,-1.86517468e-14 C3.6770723,-1.86517468e-14 0.79787234,2.91487179 0.79787234,6.53333333 C0.79787234,10.1517949 3.6770723,13.0666667 7.25125156,13.0666667 C10.8254308,13.0666667 13.7046308,10.1517949 13.7046308,6.53333333 C13.7046308,2.91487179 10.8254308,-1.86517468e-14 7.25125156,-1.86517468e-14 Z M7.25125156,9.64923077 C5.56344469,9.64923077 4.17348609,8.24205128 4.17348609,6.53333333 C4.17348609,4.82461538 5.56344469,3.4174359 7.25125156,3.4174359 C8.93905844,3.4174359 10.329017,4.82461538 10.329017,6.53333333 C10.329017,8.24205128 8.98869982,9.64923077 7.25125156,9.64923077 Z" id="Shape" fill="#5FD0D6"></path>
                        <ellipse id="Oval" fill="#F5BD41" cx="7.25125156" cy="6.53333333" rx="1.76001252" ry="1.78181818"></ellipse>
                    </g>
                    <g id="Group-5" transform="translate(52.659574, 59.200000)" fill-rule="nonzero">
                        <path d="M10.47403,-1.86517468e-14 C5.31132666,-1.86517468e-14 1.15248227,4.21037037 1.15248227,9.43703704 C1.15248227,14.6637037 5.31132666,18.8740741 10.47403,18.8740741 C15.6367334,18.8740741 19.7955778,14.6637037 19.7955778,9.43703704 C19.7955778,4.21037037 15.6367334,-1.86517468e-14 10.47403,-1.86517468e-14 Z M10.47403,13.9377778 C8.03608678,13.9377778 6.02836879,11.9051852 6.02836879,9.43703704 C6.02836879,6.96888889 8.03608678,4.9362963 10.47403,4.9362963 C12.9119733,4.9362963 14.9196913,6.96888889 14.9196913,9.43703704 C14.9196913,11.9051852 12.9836775,13.9377778 10.47403,13.9377778 Z" id="Shape" fill="#5FD0D6"></path>
                        <ellipse id="Oval" fill="#F5BD41" cx="10.47403" cy="9.43703704" rx="2.5422403" ry="2.57373737"></ellipse>
                    </g>
                    <path d="M6.45337922,60.5818182 C2.87919996,60.5818182 6.43041176e-13,63.49669 6.43041176e-13,67.1151515 C6.43041176e-13,70.7336131 2.87919996,73.6484848 6.45337922,73.6484848 C10.0275585,73.6484848 12.9067584,70.7336131 12.9067584,67.1151515 C12.9067584,63.49669 10.0275585,60.5818182 6.45337922,60.5818182 Z" id="Path" fill="#5FD0D6" fill-rule="nonzero"></path>
                    <path d="M6.45337922,70.231049 C4.76557235,70.231049 3.37561375,68.8238695 3.37561375,67.1151515 C3.37561375,65.4064336 4.76557235,63.9992541 6.45337922,63.9992541 C8.1411861,63.9992541 9.5311447,65.4064336 9.5311447,67.1151515 C9.5311447,68.8238695 8.1411861,70.231049 6.45337922,70.231049 Z" id="Path" fill="#E6434D" fill-rule="nonzero"></path>
                    <ellipse id="Oval" fill="#F5BD41" fill-rule="nonzero" cx="6.45337922" cy="67.1151515" rx="1.76001252" ry="1.78181818"></ellipse>
                    <ellipse id="Oval" stroke="#5FD0D6" stroke-width="1.60000002" cx="16.5910513" cy="75.1151515" rx="1.76001252" ry="1.78181818"></ellipse>
                    <ellipse id="Oval" stroke="#5FD0D6" stroke-width="1.60000002" cx="72.1605131" cy="16.0363636" rx="1.76001252" ry="1.78181818"></ellipse>
                    <ellipse id="Oval" stroke="#5FD0D6" stroke-width="1.60000002" cx="55.7337297" cy="1.78181818" rx="1.76001252" ry="1.78181818"></ellipse>
                </g>
                <path d="M82.2937353,44.7522025 C82.7116277,44.7598006 83.1333128,44.8300814 83.5588032,44.9630472 C83.9842937,45.0960129 84.3527932,45.2954586 84.664313,45.5613901 L83.7411554,46.5187388 C83.5664004,46.3211897 83.3479599,46.1711305 83.0858274,46.068557 C82.8236949,45.9659834 82.5596668,45.9146974 82.2937353,45.9146974 L82.2937353,48.216893 C82.582461,48.3080695 82.8711823,48.4144405 83.1599079,48.5360092 C83.4486336,48.6575779 83.7088627,48.811436 83.940603,48.997588 C84.1723433,49.1837401 84.3603921,49.4097785 84.5047549,49.67571 C84.6491177,49.9416415 84.721298,50.2683525 84.721298,50.6558527 C84.721298,51.050951 84.6548162,51.3985562 84.5218504,51.6986789 C84.3888846,51.9988017 84.2103333,52.2495333 83.986191,52.4508815 C83.7620487,52.6522296 83.5037191,52.8060877 83.2111945,52.9124603 C82.9186698,53.0188329 82.6128531,53.0758174 82.2937353,53.0834154 L82.2937353,53.904 L81.6782969,53.904 L81.6782969,53.0834154 C81.176826,53.0682193 80.696257,52.9751447 80.2365754,52.8041887 C79.7768938,52.6332327 79.3647061,52.3730037 79,52.0234937 L80.0029367,51.066145 C80.2080839,51.3092824 80.4664135,51.508728 80.7779333,51.6644879 C81.089453,51.8202478 81.3895712,51.9019255 81.6782969,51.9095236 L81.6782969,49.3793878 C81.343983,49.2882113 81.0324679,49.1837398 80.7437422,49.0659701 C80.4550166,48.9482004 80.2023854,48.7981413 79.9858412,48.6157883 C79.769297,48.4334352 79.600243,48.2149948 79.4786743,47.9604603 C79.3571056,47.7059258 79.2963222,47.3963102 79.2963222,47.0316041 C79.2963222,46.6896922 79.3628041,46.3838755 79.4957699,46.114145 C79.6287356,45.8444145 79.8072869,45.6145771 80.0314292,45.424626 C80.2555715,45.2346749 80.5101021,45.0846158 80.7950288,44.9744442 C81.0799554,44.8642726 81.3743752,44.7977907 81.6782969,44.7749965 L81.6782969,44 L82.2937353,44 L82.2937353,44.7522025 Z M81.6782969,45.9146974 C81.4123654,45.9450895 81.1768296,46.0438626 80.9716824,46.2110196 C80.7665352,46.3781765 80.6639632,46.6289082 80.6639632,46.9632221 C80.6639632,47.2823399 80.7608368,47.5235742 80.9545869,47.6869321 C81.148337,47.85029 81.3895712,47.9737564 81.6782969,48.0573349 L81.6782969,45.9146974 Z M82.2937353,51.9095236 C82.6128531,51.8943275 82.8692833,51.7803586 83.0630334,51.5676133 C83.2567835,51.3548681 83.3536571,51.0775437 83.3536571,50.7356318 C83.3536571,50.4013179 83.2529845,50.1486867 83.0516364,49.9777307 C82.8502882,49.8067747 82.5976571,49.6681125 82.2937353,49.5617399 L82.2937353,51.9095236 Z" id="$" fill="#FFFFFF"></path>
            </g>
        </g>
    </g>
</svg>