<?xml version="1.0" standalone="no"?>
<!DOCTYPE svg PUBLIC "-//W3C//DTD SVG 20010904//EN"
 "http://www.w3.org/TR/2001/REC-SVG-20010904/DTD/svg10.dtd">
<svg version="1.0" xmlns="http://www.w3.org/2000/svg"
 width="298.000000pt" height="176.000000pt" viewBox="0 0 298.000000 176.000000"
 preserveAspectRatio="xMidYMid meet">
<metadata>
Created by potrace 1.15, written by Peter Selinger 2001-2017
</metadata>
<g transform="translate(0.000000,176.000000) scale(0.100000,-0.100000)"
fill="#000000" stroke="none">
<path d="M150 1735 c0 -59 56 -132 122 -160 104 -43 235 18 266 123 17 57 16
62 -22 62 -28 0 -35 -4 -40 -26 -25 -97 -130 -132 -205 -68 -16 13 -35 40 -41
59 -10 31 -16 35 -46 35 -30 0 -34 -3 -34 -25z"/>
<path d="M687 1706 c-18 -172 -193 -311 -370 -292 -147 15 -266 115 -303 255
-11 41 -13 27 -13 -136 l-1 -183 345 0 345 0 0 -110 0 -110 -345 0 -345 0 0
-210 0 -210 345 0 345 0 0 -355 0 -355 804 0 804 0 7 46 c17 113 92 211 198
260 53 25 74 29 147 29 71 -1 94 -5 141 -28 68 -33 131 -95 164 -161 l25 -50
0 137 0 137 -340 0 -340 0 0 360 0 360 340 0 340 0 0 225 0 225 -335 0 -335 0
0 110 0 110 -809 0 -808 0 -6 -54z m954 -60 c368 -78 629 -396 629 -767 0
-117 -13 -191 -51 -291 -128 -330 -482 -544 -827 -498 -325 43 -575 255 -668
565 -35 119 -38 298 -6 418 77 284 313 510 597 570 90 20 241 21 326 3z m932
-218 c19 -23 22 -50 7 -78 -27 -50 -100 -49 -126 1 -18 36 -12 62 24 89 31 25
68 20 95 -12z m250 4 c27 -24 22 -76 -9 -101 -15 -12 -34 -21 -44 -21 -29 0
-70 39 -70 66 0 72 69 103 123 56z m-2563 -402 c24 -24 26 -77 3 -102 -22 -24
-77 -24 -103 2 -27 27 -25 66 5 95 29 30 68 32 95 5z m255 -5 c48 -47 19 -115
-48 -115 -65 0 -93 74 -47 120 27 27 66 25 95 -5z"/>
<path d="M1356 1379 c-137 -32 -279 -149 -341 -280 -108 -230 -45 -488 157
-642 112 -84 249 -120 385 -99 197 31 366 174 423 360 24 76 27 211 6 288 -46
173 -188 316 -365 368 -60 17 -200 20 -265 5z m277 -192 c65 -32 140 -109 170
-175 18 -38 22 -66 22 -142 0 -89 -2 -99 -34 -158 -115 -211 -399 -251 -558
-79 -122 132 -131 309 -24 454 90 123 283 168 424 100z"/>
<path d="M2554 1019 c-53 -15 -127 -71 -161 -122 -168 -252 113 -571 384 -434
53 27 111 85 139 139 11 20 19 64 22 114 4 72 1 89 -21 136 -62 136 -220 209
-363 167z m177 -125 c15 -7 38 -27 52 -43 101 -121 18 -301 -140 -301 -163 0
-245 197 -129 309 60 59 145 72 217 35z"/>
<path d="M265 637 c-65 -22 -99 -43 -139 -88 -135 -149 -95 -374 83 -466 199
-104 436 39 435 262 0 87 -28 156 -87 213 -76 75 -202 109 -292 79z m128 -108
c47 -13 106 -63 123 -106 26 -61 11 -147 -34 -196 -29 -32 -89 -57 -137 -57
-116 0 -198 98 -180 215 8 58 61 119 120 140 49 17 60 18 108 4z"/>
<path d="M2565 172 c-66 -32 -115 -97 -115 -153 0 -15 7 -19 33 -19 30 0 36 4
49 39 46 115 204 101 242 -21 4 -13 16 -18 41 -18 34 0 35 1 29 27 -30 128
-166 198 -279 145z"/>
</g>
</svg>
