<?xml version="1.0" encoding="UTF-8"?>
<svg width="25px" height="19px" viewBox="0 0 25 19" version="1.1" xmlns="http://www.w3.org/2000/svg" xmlns:xlink="http://www.w3.org/1999/xlink">
    <!-- Generator: Sketch 53.1 (72631) - https://sketchapp.com -->
    <title>Combined Shape 2</title>
    <desc>Created with Sketch.</desc>
    <g id="320" stroke="none" stroke-width="1" fill="none" fill-rule="evenodd">
        <g id="Transferir-dale-1" transform="translate(-30.000000, -23.000000)" fill="#000000" fill-rule="nonzero">
            <g id="Combined-Shape-2" transform="translate(30.000000, 23.000000)">
                <path d="M5.40178571,10.7279548 L11.1056163,16.4296807 C11.6246812,16.948554 11.6248365,17.7899693 11.1059631,18.3090342 C10.5870897,18.8280991 9.74567451,18.8282544 9.22660959,18.309381 L1.25318766,10.3389013 C0.733987279,9.81989251 0.733987279,8.97820976 1.25318766,8.45920096 L9.22660959,0.488721255 C9.74567451,-0.0301521264 10.5870897,-0.029996855 11.1059631,0.489068063 C11.6248365,1.00813298 11.6246812,1.84954822 11.1056163,2.3684216 L5.40178571,8.07014748 L23.4551495,8.07014748 C24.1890827,8.07014748 24.7840532,8.66511791 24.7840532,9.39905113 C24.7840532,10.1329844 24.1890827,10.7279548 23.4551495,10.7279548 L5.40178571,10.7279548 Z" id="Combined-Shape"></path>
            </g>
        </g>
    </g>
</svg>