<?xml version="1.0" encoding="UTF-8"?>
<svg width="26px" height="20px" viewBox="0 0 26 20" version="1.1" xmlns="http://www.w3.org/2000/svg" xmlns:xlink="http://www.w3.org/1999/xlink">
    <!-- Generator: Sketch 53.1 (72631) - https://sketchapp.com -->
    <title>Shape</title>
    <desc>Created with Sketch.</desc>
    <g id="320" stroke="none" stroke-width="1" fill="none" fill-rule="evenodd">
        <g id="Menu" transform="translate(-227.000000, -592.000000)" fill="#FA2C46">
            <g id="Group-24" transform="translate(215.000000, 577.000000)">
                <path d="M36.2484211,15 L13.7515789,15 C12.7936842,15 12,15.8095656 12,16.7866276 L12,19.8853099 L38,19.8853099 L38,16.8145437 C38,15.8095656 37.2063158,15 36.2484211,15 Z M12,23.402733 L12,32.252123 C12,33.257101 12.7936842,34.0666667 13.7515789,34.0666667 L36.2210526,34.0666667 C37.1789474,34.0666667 37.9726316,33.257101 37.9726316,32.252123 L37.9726316,23.402733 L12,23.402733 Z M32.9094737,30.9400683 C32.3073684,30.9400683 31.76,30.6329917 31.4042105,30.1863348 C31.0757895,30.6329917 30.5284211,30.9400683 29.9263158,30.9400683 C28.8863158,30.9400683 28.0378947,30.0746706 28.0378947,29.0138604 C28.0378947,27.9530503 28.8863158,27.0876525 29.9263158,27.0876525 C30.5284211,27.0876525 31.0757895,27.3947291 31.4042105,27.841386 C31.76,27.3947291 32.28,27.0876525 32.9094737,27.0876525 C33.9494737,27.0876525 34.7978947,27.9530503 34.7978947,29.0138604 C34.7978947,30.0746706 33.9494737,30.9400683 32.9094737,30.9400683 Z" id="Shape"></path>
            </g>
        </g>
    </g>
</svg>