<?xml version="1.0" encoding="UTF-8"?>
<svg width="223px" height="160px" viewBox="0 0 223 160" version="1.1" xmlns="http://www.w3.org/2000/svg" xmlns:xlink="http://www.w3.org/1999/xlink">
    <!-- Generator: Sketch 53.1 (72631) - https://sketchapp.com -->
    <title>Group 2</title>
    <desc>Created with Sketch.</desc>
    <defs>
        <linearGradient x1="50%" y1="100%" x2="50%" y2="1.60072707e-14%" id="linearGradient-1">
            <stop stop-color="#808080" stop-opacity="0.25" offset="0%"></stop>
            <stop stop-color="#808080" stop-opacity="0.12" offset="54%"></stop>
            <stop stop-color="#808080" stop-opacity="0.1" offset="100%"></stop>
        </linearGradient>
        <linearGradient x1="50.0156877%" y1="99.993948%" x2="50.0156877%" y2="0.00749273884%" id="linearGradient-2">
            <stop stop-color="#808080" stop-opacity="0.25" offset="0%"></stop>
            <stop stop-color="#808080" stop-opacity="0.12" offset="54%"></stop>
            <stop stop-color="#808080" stop-opacity="0.1" offset="100%"></stop>
        </linearGradient>
    </defs>
    <g id="320" stroke="none" stroke-width="1" fill="none" fill-rule="evenodd">
        <g id="Retirar-Aval" transform="translate(-49.000000, -75.000000)">
            <g id="Group-2" transform="translate(49.000000, 75.000000)">
                <g id="undraw_make_it_rain_iwk4" transform="translate(1.000000, 0.000000)">
                    <path d="M28.850308,81.1173184 C25.9831828,81.9821229 23.2995893,84.0759777 22.5833676,86.9810056 C21.7641889,90.3195531 23.6532238,93.6849162 23.9262834,97.1128492 C24.8081314,108.344134 8.80505133,116.268156 11.0880082,127.300559 C11.9944764,131.687151 15.6583984,134.913966 19.2686037,137.579888 C25.0520945,141.836872 31.4689938,145.597765 38.5752567,146.659218 C49.3611088,148.272626 60.6304107,143.530726 71.1141068,146.527374 C79.57,148.945251 86.040616,156.031285 94.4383162,158.64581 C100.830595,160.636872 107.717515,159.852514 114.358234,159.04581 C117.939343,158.612291 121.690554,158.111732 124.580062,155.96648 C129.951725,151.973184 130.289692,144.087151 133.886468,138.435754 C139.441663,129.72067 151.62191,128.008939 161.834784,129.702793 C172.047659,131.396648 181.965092,135.56648 192.312259,135.226816 C194.523593,135.153073 196.788645,134.853631 198.717967,133.769832 C201.063593,132.453631 202.648234,130.134078 204.049343,127.839106 C212.806268,113.440856 217.61304,96.9949378 217.986571,80.1541899 C218.047002,77.2603352 217.944045,74.2413408 216.580986,71.6871508 C214.857577,68.4558659 211.412998,66.522905 207.984086,65.2223464 C199.749774,62.0938547 190.653758,61.5821229 182.585072,58.0536313 C174.802875,54.6502793 168.500123,48.6815642 161.722875,43.5664804 C148.217196,33.3927124 132.563082,26.4322006 115.954066,23.2156425 C112.061848,22.4648045 108.02191,21.9284916 104.154312,22.7955307 C99.6980698,23.7944134 95.8573306,26.5675978 92.4037988,29.5530726 C83.2160164,37.4949721 75.8523614,47.2938547 67.3852772,55.9977654 C61.5443156,62.0002616 55.1840533,67.4762624 48.3785421,72.3620112 C45.2450719,74.6167598 41.9146407,77.2938547 38.4230595,78.9608939 C35.2269199,80.4849162 32.2299795,80.1005587 28.850308,81.1173184 Z" id="Path" fill="#F5BD41" opacity="0.2"></path>
                    <path d="M69.8047639,10.5340782 C69.8047639,10.5340782 61.1541478,22.0044693 67.3427515,35.3743017 C73.5313552,48.7441341 56.5568994,70.2256983 56.5568994,70.2256983" id="Path" stroke="#535461" stroke-width="1.36000001"></path>
                    <path d="M73.6835524,6.24134078 C72.9964271,9.19329609 69.7085216,10.9519553 69.7085216,10.9519553 C69.7085216,10.9519553 67.5374743,7.92402235 68.2245996,4.97206704 C68.9117248,2.02011173 70.6866119,-0.0893854749 72.1996304,0.261452514 C73.7126489,0.612290503 74.3706776,3.28938547 73.6835524,6.24134078 Z" id="Path" fill="#F5BD41"></path>
                    <ellipse id="Oval" fill="#8ED16F" transform="translate(70.845138, 5.580582) rotate(-76.900000) translate(-70.845138, -5.580582) " cx="70.8451381" cy="5.58058181" rx="1.72304588" ry="1"></ellipse>
                    <ellipse id="Oval" fill="#000000" opacity="0.3" transform="translate(70.845138, 5.580582) rotate(-76.900000) translate(-70.845138, -5.580582) " cx="70.8451381" cy="5.58058181" rx="1.72304588" ry="1"></ellipse>
                    <path d="M72.1884394,19.3564246 C69.3325051,20.3843575 66.0669815,18.5832402 66.0669815,18.5832402 C66.0669815,18.5832402 67.4322793,15.1173184 70.2904517,14.0916201 C73.1486242,13.0659218 75.8859343,13.4212291 76.4119097,14.8648045 C76.937885,16.3083799 75.0443737,18.3284916 72.1884394,19.3564246 Z" id="Path" fill="#F5BD41"></path>
                    <ellipse id="Oval" fill="#8ED16F" transform="translate(71.166257, 16.473430) rotate(-19.885165) translate(-71.166257, -16.473430) " cx="71.1662567" cy="16.4734302" rx="1.72463937" ry="1"></ellipse>
                    <ellipse id="Oval" fill="#000000" opacity="0.3" transform="translate(71.166257, 16.473430) rotate(-19.885165) translate(-71.166257, -16.473430) " cx="71.1662567" cy="16.4734302" rx="1.72463937" ry="1"></ellipse>
                    <path d="M71.5236961,29.8078212 C68.6677618,30.8357542 65.4022382,29.0346369 65.4022382,29.0346369 C65.4022382,29.0346369 66.7675359,25.5687151 69.6257084,24.5430168 C72.4838809,23.5173184 75.221191,23.8726257 75.7471663,25.3162011 C76.2731417,26.7597765 74.3796304,28.7821229 71.5236961,29.8078212 Z" id="Path" fill="#F5BD41"></path>
                    <ellipse id="Oval" fill="#8ED16F" transform="translate(70.535624, 27.082207) rotate(-19.800000) translate(-70.535624, -27.082207) " cx="70.5356244" cy="27.0822067" rx="1.72533225" ry="1"></ellipse>
                    <ellipse id="Oval" fill="#000000" opacity="0.3" transform="translate(70.535624, 27.082207) rotate(-19.800000) translate(-70.535624, -27.082207) " cx="70.5356244" cy="27.0822067" rx="1.72533225" ry="1"></ellipse>
                    <path d="M74.8608419,42.0692737 C72.0049076,43.0972067 68.739384,41.2960894 68.739384,41.2960894 C68.739384,41.2960894 70.1046817,37.8301676 72.9628542,36.8044693 C75.8210267,35.7787709 78.5583368,36.1340782 79.0843121,37.5776536 C79.6102875,39.0212291 77.7167762,41.0480447 74.8608419,42.0692737 Z" id="Path" fill="#F5BD41"></path>
                    <ellipse id="Oval" fill="#8ED16F" transform="translate(73.873186, 39.349104) rotate(-19.800000) translate(-73.873186, -39.349104) " cx="73.8731858" cy="39.3491035" rx="1.72533225" ry="1"></ellipse>
                    <ellipse id="Oval" fill="#000000" opacity="0.3" transform="translate(73.873186, 39.349104) rotate(-19.800000) translate(-73.873186, -39.349104) " cx="73.8731858" cy="39.3491035" rx="1.72533225" ry="1"></ellipse>
                    <path d="M72.6897947,53.2826816 C69.8338604,54.3106145 66.5683368,52.5094972 66.5683368,52.5094972 C66.5683368,52.5094972 67.9336345,49.0435754 70.791807,48.0178771 C73.6499795,46.9921788 76.3872895,47.347486 76.9132649,48.7910615 C77.4392402,50.2346369 75.5479671,52.2569832 72.6897947,53.2826816 Z" id="Path" fill="#F5BD41"></path>
                    <ellipse id="Oval" fill="#8ED16F" transform="translate(71.707407, 50.372559) rotate(-19.885165) translate(-71.707407, -50.372559) " cx="71.707407" cy="50.3725587" rx="1.72463937" ry="1"></ellipse>
                    <ellipse id="Oval" fill="#000000" opacity="0.3" transform="translate(71.707407, 50.372559) rotate(-19.885165) translate(-71.707407, -50.372559) " cx="71.707407" cy="50.3725587" rx="1.72463937" ry="1"></ellipse>
                    <path d="M59.2942094,22.326257 C61.4025873,24.5072626 65.1291786,24.3374302 65.1291786,24.3374302 C65.1291786,24.3374302 65.4358111,20.6256983 63.3274333,18.4446927 C61.2190554,16.2636872 58.6070842,15.3653631 57.4924641,16.4335196 C56.3778439,17.501676 57.1858316,20.1452514 59.2942094,22.326257 Z" id="Path" fill="#F5BD41"></path>
                    <ellipse id="Oval" fill="#8ED16F" transform="translate(61.391049, 20.312694) rotate(-43.990000) translate(-61.391049, -20.312694) " cx="61.3910493" cy="20.3126941" rx="1" ry="1.72422768"></ellipse>
                    <ellipse id="Oval" fill="#000000" opacity="0.3" transform="translate(61.391049, 20.312694) rotate(-43.990000) translate(-61.391049, -20.312694) " cx="61.3910493" cy="20.3126941" rx="1" ry="1.72422768"></ellipse>
                    <path d="M58.083347,56.9608939 C60.1917248,59.1418994 63.9183162,58.972067 63.9183162,58.972067 C63.9183162,58.972067 64.2249487,55.2603352 62.1165708,53.0793296 C60.008193,50.898324 57.3962218,50 56.2816016,51.0681564 C55.1669815,52.1363128 55.9749692,54.7798883 58.083347,56.9608939 Z" id="Path" fill="#F5BD41"></path>
                    <ellipse id="Oval" fill="#8ED16F" transform="translate(60.177090, 54.950377) rotate(-43.990000) translate(-60.177090, -54.950377) " cx="60.1770896" cy="54.9503774" rx="1" ry="1.72422768"></ellipse>
                    <ellipse id="Oval" fill="#000000" opacity="0.3" transform="translate(60.177090, 54.950377) rotate(-43.990000) translate(-60.177090, -54.950377) " cx="60.1770896" cy="54.9503774" rx="1" ry="1.72422768"></ellipse>
                    <path d="M60.8788501,34.5675978 C63.5960164,35.9217877 67.0495483,34.5139665 67.0495483,34.5139665 C67.0495483,34.5139665 66.0983162,30.9139665 63.3833881,29.5597765 C60.66846,28.2055866 57.9042916,28.2189944 57.2126899,29.6134078 C56.5210883,31.0078212 58.1616838,33.2134078 60.8788501,34.5675978 Z" id="Path" fill="#F5BD41"></path>
                    <ellipse id="Oval" fill="#8ED16F" transform="translate(62.174805, 31.964498) rotate(-63.480000) translate(-62.174805, -31.964498) " cx="62.1748045" cy="31.9644984" rx="1" ry="1.72510023"></ellipse>
                    <ellipse id="Oval" fill="#000000" opacity="0.3" transform="translate(62.174805, 31.964498) rotate(-63.480000) translate(-62.174805, -31.964498) " cx="62.1748045" cy="31.9644984" rx="1" ry="1.72510023"></ellipse>
                    <path d="M62.0180903,46.7620112 C64.7352567,48.1162011 68.1887885,46.7083799 68.1887885,46.7083799 C68.1887885,46.7083799 67.2375565,43.1083799 64.5226283,41.7541899 C61.8077002,40.4 59.0435318,40.4134078 58.3519302,41.8078212 C57.6603285,43.2022346 59.312115,45.4212291 62.0180903,46.7620112 Z" id="Path" fill="#F5BD41"></path>
                    <ellipse id="Oval" fill="#8ED16F" transform="translate(63.314988, 44.160511) rotate(-63.480000) translate(-63.314988, -44.160511) " cx="63.3149883" cy="44.1605107" rx="1" ry="1.72510023"></ellipse>
                    <ellipse id="Oval" fill="#000000" opacity="0.3" transform="translate(63.314988, 44.160511) rotate(-63.480000) translate(-63.314988, -44.160511) " cx="63.3149883" cy="44.1605107" rx="1" ry="1.72510023"></ellipse>
                    <path d="M28.1408008,35.1888268 C28.1408008,35.1888268 43.9402053,50.9631285 35.0210062,74.3709497 C26.101807,97.7787709 50.3101027,136.703911 50.3101027,136.703911 C50.3101027,136.703911 50.0504723,136.665922 49.5692608,136.581006 C17.115462,130.86257 1.00047228,93.8078212 19.040308,66.2815642 C25.7392197,56.0469274 31.2563655,44.0424581 28.1408008,35.1888268 Z" id="Path" fill="#F5BD41"></path>
                    <path d="M0,98.9899441 C0,98.9899441 18.0286448,96.122905 19.6714784,112.254749 C21.3143121,128.386592 54.3388501,130.623464 54.3388501,130.623464 C54.3388501,130.623464 54.1150308,130.77095 53.7188706,131.034637 C26.4509651,148.911732 0.384969199,142.417877 4.31299795,118.688268 C5.77677618,109.863687 5.65591376,101.003352 0,98.9899441 Z" id="Path" fill="#E8B33D"></path>
                    <ellipse id="Oval" fill="#8ED16F" cx="23.5771253" cy="85.877095" rx="4.95759754" ry="12.9139665"></ellipse>
                    <ellipse id="Oval" fill="#B38A2F" cx="23.5771253" cy="85.877095" rx="4.95759754" ry="12.9139665"></ellipse>
                    <ellipse id="Oval" fill="#8ED16F" transform="translate(17.865018, 127.527244) rotate(-45.000000) translate(-17.865018, -127.527244) " cx="17.8650177" cy="127.527244" rx="3.33897285" ry="7.43160735"></ellipse>
                    <ellipse id="Oval" fill="#B38A2F" opacity="0.912165179" transform="translate(17.865018, 127.527244) rotate(-45.000000) translate(-17.865018, -127.527244) " cx="17.8650177" cy="127.527244" rx="3.33897285" ry="7.43160735"></ellipse>
                    <path d="M162.020554,59.5441341 L44.6631417,59.5441341 C41.7100513,59.5441341 39.3160986,61.9342832 39.3160986,64.8826816 L39.3160986,133.559777 C39.3160986,136.508175 41.7100513,138.898324 44.6631417,138.898324 L162.020554,138.898324 C164.973645,138.898324 167.367598,136.508175 167.367598,133.559777 L167.367598,64.8826816 C167.367598,61.9342832 164.973645,59.5441341 162.020554,59.5441341 L162.020554,59.5441341 Z" id="Path" fill="url(#linearGradient-1)"></path>
                    <rect id="Rectangle" fill="#000132" x="40.8224025" y="60.4782123" width="125.036653" height="77.4860335" rx="16.8708002"></rect>
                    <rect id="Rectangle" fill="#6C63FF" x="40.8224025" y="74.0379888" width="125.036653" height="14.2055866"></rect>
                    <rect id="Rectangle" fill="#5FD0D6" opacity="0.3" x="40.8224025" y="74.0379888" width="125.036653" height="14.2055866"></rect>
                    <rect id="Rectangle" fill="#D6D6E3" x="52.6803491" y="98.7910615" width="101.322998" height="6.88715084"></rect>
                    <ellipse id="Oval" fill="#6C63FF" cx="61.0870021" cy="122.898324" rx="9.91743326" ry="9.90167598"></ellipse>
                    <ellipse id="Oval" fill="#5FD0D6" opacity="0.3" cx="61.0870021" cy="122.898324" rx="9.91743326" ry="9.90167598"></ellipse>
                    <path d="M158.750554,41.372067 C158.910637,41.8774364 159.250636,42.3067289 159.706263,42.5787709 C161.763162,43.9351955 166.235072,43.6469274 166.772238,43.6469274 C166.886386,43.6469274 167.036345,43.8502793 167.201971,44.1921788 C167.992053,45.8189944 169.216345,50.5877095 169.299158,51.6603352 C169.40883,52.9586592 170.617454,59.0346369 172.596016,61.298324 C172.656448,61.3675978 172.716879,61.4324022 172.775072,61.4927374 C174.715585,63.4391061 176.991828,61.298324 176.991828,61.298324 L177.318604,60.1653631 C177.226838,60.6122905 177.123881,61.1329609 177.020924,61.7162011 C176.969446,62.0089385 176.917967,62.3195531 176.868727,62.6391061 C176.573849,64.4397295 176.418951,66.260433 176.405421,68.0849162 C176.400431,68.7473741 176.428817,69.4096633 176.490472,70.0692737 C176.508378,70.252514 176.528522,70.4335196 176.553142,70.6100559 C176.654183,71.4135229 176.703524,72.2226312 176.700862,73.0324022 C176.682957,77.8413408 175.454189,83.8234637 175.454189,83.8234637 L175.501191,83.8078212 C175.472094,83.9575419 175.454189,84.0312849 175.454189,84.0312849 L175.525811,84.0089385 C175.491492,84.2309125 175.458665,84.4581006 175.427331,84.6905028 C175.011027,87.7072626 174.77154,91.4614525 174.657392,93.6290503 C174.598346,94.7724384 174.649311,95.9188454 174.809589,97.052514 L176.994066,112.406704 L176.994066,119.557542 C176.986714,120.641117 177.11911,121.721129 177.387988,122.77095 C178.099733,125.472626 177.513326,134.902793 177.184312,139.376536 C177.092546,140.596648 177.020924,141.450279 177.00078,141.696089 L177.00078,141.769832 L177.06345,141.745251 C177.06345,141.796648 177.06345,141.823464 177.06345,141.823464 C177.156677,141.783612 177.254367,141.755102 177.354415,141.738547 C176.488234,143.07933 174.919261,145.296089 173.712875,145.669274 C173.001895,145.885506 172.369521,146.304089 171.893224,146.873743 L171.861889,146.916201 L171.817125,146.978771 C171.667993,147.178038 171.577324,147.414797 171.555257,147.66257 C171.537831,147.61994 171.524345,147.575808 171.514969,147.530726 C171.423203,148.02905 171.723121,148.484916 172.6654,148.706145 C173.214739,148.81082 173.773818,148.855775 174.332854,148.840223 C177.600616,148.840223 183.399774,147.836872 184.039897,146.757542 L184.039897,143.034637 L184.145092,143.068156 L184.145092,143.101676 L184.545729,143.23352 L185.644682,139.550838 C186.962977,138.576536 185.868501,121.139665 185.644682,117.132961 C185.443244,113.481564 187.706057,98.9564246 188.106694,96.3977654 L188.052977,96.3329609 L188.113409,95.9597765 C188.194014,96.0181884 188.26895,96.0840266 188.337228,96.1564246 C188.468715,96.3123745 188.583489,96.4816397 188.679671,96.6614525 C188.868867,96.9812551 189.031314,97.3160966 189.165359,97.6625698 C191.376694,103.168715 192.37269,118.913966 192.37269,120.326257 L192.37269,135.132961 C192.368114,136.594127 192.571586,138.048524 192.977002,139.452514 C193.180085,140.191437 193.33706,140.942227 193.447023,141.700559 C193.494025,141.997765 193.534312,142.292737 193.572361,142.574302 C193.610411,142.855866 193.64846,143.177654 193.677556,143.441341 C193.677556,143.510615 193.693224,143.577654 193.699938,143.640223 C193.706653,143.702793 193.699938,143.700559 193.699938,143.731844 C193.76037,144.315084 193.791704,144.697207 193.791704,144.697207 C193.799987,144.665209 193.815276,144.635444 193.836468,144.610056 L193.847659,144.750838 C193.863411,144.697507 193.89362,144.649559 193.934949,144.612291 C194.025958,144.523135 194.12484,144.442361 194.23039,144.37095 L194.23039,146.252514 L194.176674,146.212291 L194.176674,146.536313 C196.455154,148.252514 200.16384,148.77095 203.010821,148.750838 C204.857331,148.750838 206.352444,148.527374 206.871704,148.268156 C207.614784,147.903911 207.207433,147.054749 206.531499,146.404469 C206.007762,145.899441 205.325113,145.510615 204.893142,145.559777 C204.172444,145.637989 201.708193,142.851397 200.416756,141.32514 L200.562238,141.260335 L200.768152,141.17095 L200.768152,116.482682 C200.768152,116.482682 201.099405,106.735196 202.086448,97.0949721 C202.554806,92.2354923 201.978688,87.3321768 200.396612,82.7128492 L200.365277,82.6212291 L200.665195,82.6681564 C200.983018,82.7173184 201.153121,82.7463687 201.153121,82.7463687 C201.153121,82.7463687 201.153121,82.6703911 201.132977,82.522905 L201.153121,82.522905 C201.153121,82.522905 200.768152,78.3418994 200.763676,73.0905028 C200.763676,67.1374302 201.267269,59.8793296 203.351027,55.772067 C204.550698,53.4078212 204.951335,51.526257 204.917762,50.0424581 C204.970091,48.7368351 204.593616,47.4499083 203.845667,46.3776536 C203.531951,45.9460243 203.105284,45.608944 202.612423,45.403352 L202.569897,45.3787709 L202.547515,45.3787709 C202.187583,45.2333644 201.803264,45.1575328 201.41499,45.1553073 L196.913984,45.1553073 C196.393025,45.1557363 195.880898,45.0209776 195.427823,44.7642458 L193.666366,43.7675978 C193.079959,42.4871508 192.994908,40.9005587 193.120246,39.4122905 C193.120246,39.2938547 193.142628,39.175419 193.153819,39.0592179 L193.281396,38.9251397 C193.379877,38.8201117 193.471643,38.701676 193.56117,38.6011173 C193.559136,38.6893071 193.552412,38.7773267 193.541027,38.8648045 C193.518645,39.0055866 193.480595,39.0882682 193.420164,39.1061453 C194.382587,38.9810056 195.45692,38.7910615 196.047803,38.049162 C196.072423,38.0201117 196.094805,37.9888268 196.117187,37.9575419 C196.291796,37.6753317 196.436563,37.3757718 196.549158,37.0636872 C196.631938,36.8504659 196.742567,36.6490965 196.878172,36.4648045 C197.025893,36.2726257 197.218378,36.1162011 197.37729,35.9329609 L197.404148,35.901676 C197.970411,35.2312849 198.001745,34.2703911 198.00846,33.3944134 C198.019651,31.2670391 197.956982,28.9251397 196.531253,27.3296089 C195.347248,26.0022346 193.458214,25.4994413 191.665421,25.4413408 C189.872628,25.3832402 188.084312,25.7050279 186.293758,25.7139665 C185.076181,25.7139665 183.607926,25.6938547 182.936468,26.6994413 C182.607454,27.1932961 182.567166,27.8391061 182.209055,28.3128492 C182.003142,28.5854749 181.687556,28.8201117 181.669651,29.1597765 C181.667379,29.3165042 181.707593,29.4709292 181.786037,29.6067039 L181.786037,29.6223464 C182.220246,30.4759777 183.142382,31.0078212 184.104805,31.175419 C183.942144,31.3709334 183.792605,31.5769692 183.657166,31.7921788 C183.069576,32.7300097 182.759238,33.8144671 182.761889,34.9206704 C182.761889,35.0502793 182.761889,35.1776536 182.775318,35.3050279 C182.875216,36.807515 183.546137,38.2151693 184.650924,39.2402235 C184.633018,39.3653631 184.615113,39.4905028 184.594969,39.6134078 L184.635257,39.649162 C184.762088,39.7638734 184.894141,39.8726257 185.031417,39.975419 L185.080657,40.0134078 C185.080657,40.0916201 185.080657,40.1698324 185.080657,40.2368715 C185.080657,40.3664804 185.080657,40.498324 185.067228,40.6256983 C185.053799,40.7530726 185.067228,40.8312849 185.053799,40.9340782 L185.024702,40.9094972 L182.837988,39.0860335 L179.321786,35.8368715 C179.321786,35.8368715 170.530164,29.4480447 170.08924,32.4849162 C170.03597,33.0242708 170.185117,33.5641678 170.507782,34 C172.12152,36.4581006 177.67,38.5497207 177.67,38.5497207 C177.67,38.5497207 180.978049,42.0424581 183.191622,45.8078212 C183.113285,45.8502793 183.034949,45.8905028 182.952136,45.9284916 C180.982526,46.8424581 178.108686,46.4558659 178.108686,46.4558659 C174.789446,46.972067 174.489528,50.603352 174.507433,52.0715084 C174.507433,52.1407821 174.507433,52.2078212 174.507433,52.2681564 C174.507433,52.3284916 174.507433,52.3418994 174.507433,52.375419 L170.102669,42.049162 L170.08924,42.0178771 C169.797182,41.3346508 169.175973,40.8475744 168.44193,40.726257 C165.496468,40.2324022 158.135051,39.2022346 158.750554,41.372067 Z M177.191027,141.707263 C177.255275,141.692006 177.320269,141.680072 177.385749,141.671508 L177.365606,141.702793 L177.191027,141.707263 Z" id="Shape" fill="url(#linearGradient-2)" fill-rule="nonzero"></path>
                    <path d="M199.199179,139.595531 C199.199179,139.595531 203.37117,144.831285 204.335832,144.724022 C205.300493,144.61676 207.5454,146.753073 206.262916,147.405587 C204.980431,148.058101 197.596632,148.473743 193.952854,145.696089 L193.952854,141.510615 L199.199179,139.595531 Z" id="Path" fill="#ACA9C9"></path>
                    <path d="M178.117639,139.915084 C178.117639,139.915084 175.655626,144.294972 173.945647,144.831285 C172.235667,145.367598 170.736078,147.289385 172.983224,147.823464 C175.23037,148.357542 183.25653,147.182123 184.004086,145.899441 L184.004086,140.234637 L178.117639,139.915084 Z" id="Path" fill="#ACA9C9"></path>
                    <path d="M175.026694,96.8871508 L177.152977,112.03352 L177.152977,119.07486 C177.146469,120.143108 177.275826,121.20786 177.537947,122.243575 C178.231786,124.909497 177.661047,134.210056 177.338747,138.623464 C177.233552,140.06257 177.152977,140.98324 177.152977,140.98324 C178.542895,140.341899 184.429343,142.37095 184.429343,142.37095 L185.024702,140.348603 L185.499199,138.739665 C186.783922,137.778771 185.723018,120.578771 185.499199,116.61676 C185.353717,113.910615 186.562341,105.13743 187.336756,99.8793296 C187.560575,98.3932961 187.741869,97.1977654 187.85154,96.4782123 C187.920924,96.0312849 187.958973,95.7832402 187.958973,95.7832402 C188.194831,95.9752627 188.390968,96.2113156 188.536427,96.4782123 C188.720609,96.7940145 188.878557,97.1243568 189.008686,97.4659218 C191.161828,102.898324 192.142156,118.42905 192.142156,119.812291 L192.142156,134.417877 C192.137728,135.858861 192.335876,137.293334 192.730801,138.67933 C192.995854,139.690234 193.18956,140.718456 193.310493,141.756425 C193.46269,142.916201 193.534312,143.850279 193.534312,143.850279 C193.641745,143.208939 200.275749,140.324022 200.275749,140.324022 L200.275749,115.96648 C200.275749,115.96648 200.595811,106.357542 201.560472,96.8424581 C201.975047,92.5143124 201.557215,88.1469403 200.329466,83.975419 C200.063121,83.0659218 199.796776,82.2949721 199.566242,81.6849162 C199.174559,80.6458101 198.894784,80.0715084 198.894784,80.0715084 L177.041068,80.0715084 C176.674004,80.1407821 176.36961,80.8782123 176.094312,81.9977654 C175.915257,82.7486034 175.758583,83.6692737 175.622053,84.6793296 C175.21694,87.6536313 174.984168,91.3564246 174.872259,93.4972067 C174.81577,94.6295206 174.867482,95.7646324 175.026694,96.8871508 Z" id="Path" fill="#000132"></path>
                    <g id="Group" opacity="0.1" transform="translate(177.041068, 80.000000)" fill="#000000">
                        <path d="M22.8497125,60.3932961 L22.8497125,36.0357542 C22.8497125,36.0357542 23.1697741,26.4268156 24.1344353,16.9117318 C25.0990965,7.39664804 21.4486037,0.138547486 21.4486037,0.138547486 L21.8760986,0.138547486 C21.8760986,0.138547486 25.5131622,7.40335196 24.5619302,16.9117318 C23.6106982,26.4201117 23.2772074,36.0357542 23.2772074,36.0357542 L23.2772074,60.3932961 C23.2772074,60.3932961 16.6432033,63.2782123 16.53577,63.9195531 C16.53577,63.9195531 16.53577,63.7765363 16.5021971,63.5307263 C17.9480698,62.5273743 22.8497125,60.3932961 22.8497125,60.3932961 Z" id="Path"></path>
                        <path d="M0.754271047,60.9162011 C0.552339113,60.9203521 0.352859248,60.9612449 0.165626283,61.0368715 L0.165626283,60.9296089 C0.361203084,60.9100195 0.55800295,60.9055369 0.754271047,60.9162011 L0.754271047,60.9162011 Z" id="Path"></path>
                        <path d="M8.08435318,58.7932961 C9.36907598,57.8324022 8.30817248,40.6324022 8.08435318,36.6703911 C7.86053388,32.7083799 10.5463655,15.8391061 10.5463655,15.8391061 C10.6869446,15.9475452 10.8112996,16.0754649 10.9156674,16.2189944 C10.5217454,18.7396648 8.31936345,33.0703911 8.51408624,36.6703911 C8.73790554,40.6234637 9.79880903,57.8234637 8.51408624,58.7932961 L7.44422998,62.424581 L7.05478439,62.2949721 L8.08435318,58.7932961 Z" id="Path"></path>
                    </g>
                    <path d="M179.400123,53.7005587 L177.16193,61.6067039 C177.16193,61.6067039 174.807351,63.8413408 172.882505,61.6067039 C170.957659,59.372067 169.771417,53.3810056 169.655031,52.098324 C169.538645,50.8156425 167.83538,44.1921788 167.193018,44.1921788 C166.550657,44.1921788 160.13152,44.6189944 159.381725,41.9575419 C158.781889,39.8167598 165.948583,40.8402235 168.817947,41.3206704 C169.536101,41.4427454 170.14167,41.9233946 170.422731,42.5944134 L174.823018,53.0860335 C174.823018,53.0860335 177.152977,50.3888268 179.400123,53.7005587 Z" id="Path" fill="#F5BD41"></path>
                    <path d="M193.845421,35.3251397 C193.845421,35.3251397 191.063347,43.1240223 194.595216,45.901676 C198.127084,48.6793296 181.965092,49.427933 181.965092,49.427933 L184.158522,47.3452514 C184.158522,47.3452514 185.709589,41.2022346 184.639733,36.073743 L193.845421,35.3251397 Z" id="Path" fill="#F5BD41"></path>
                    <path d="M190.420986,45.901676 C190.420986,45.901676 193.256776,45.2067039 193.256776,44.4603352 L195.770267,45.901676 L202.084209,45.901676 C202.084209,45.901676 206.685934,48.4648045 202.834004,56.1586592 C198.982074,63.852514 200.694292,82.750838 200.694292,82.750838 C200.694292,82.750838 186.998789,80.2927374 175.655626,84.0335196 C175.655626,84.0335196 177.367844,75.5932961 176.725483,70.7865922 C176.083121,65.9798883 177.795339,59.249162 177.795339,59.249162 L178.757762,55.1888268 C178.757762,55.1888268 178.704045,51.3899441 174.744682,53.3184358 C174.744682,53.3184358 174.156037,47.8167598 178.222834,47.175419 C178.222834,47.175419 182.923039,47.8167598 184.32191,45.4659218 C184.32191,45.4748603 187.426283,47.2916201 190.420986,45.901676 Z" id="Path" fill="#000000" opacity="0.1"></path>
                    <path d="M190.420986,45.6893855 C190.420986,45.6893855 193.256776,44.9944134 193.256776,44.2480447 L195.098809,45.3050279 C195.538968,45.5567948 196.037406,45.689295 196.544682,45.6893855 L200.960637,45.6893855 C201.897049,45.6866983 202.777527,46.1341388 203.326407,46.8916201 C204.340308,48.3150838 205.249014,51.1217877 202.834004,55.9463687 C198.982074,63.6379888 200.694292,82.5385475 200.694292,82.5385475 C200.694292,82.5385475 186.998789,80.0804469 175.655626,83.8212291 C175.655626,83.8212291 177.367844,75.3810056 176.725483,70.5743017 C176.083121,65.7675978 177.795339,59.052514 177.795339,59.052514 L178.757762,54.9921788 C178.757762,54.9921788 178.704045,51.1932961 174.744682,53.1217877 C174.744682,53.1217877 174.171704,47.772067 178.054969,47.0078212 C178.162886,46.9838584 178.273811,46.9763244 178.383984,46.9854749 C179.214353,47.0726257 183.084189,47.3519553 184.324148,45.2581006 C184.32191,45.2603352 187.426283,47.077095 190.420986,45.6893855 Z" id="Path" fill="#FA2C46"></path>
                    <path d="M201.22922,55.4100559 C201.22922,55.4100559 197.804784,57.5463687 192.240637,55.4100559 C192.240637,55.4100559 186.141561,53.175419 184.214476,48.7865922 C182.287392,44.3977654 193.950616,49.5351955 193.950616,49.5351955 C193.950616,49.5351955 196.412628,49.5351955 197.160185,49.0011173 C197.907741,48.4670391 203.154066,53.0592179 201.22922,55.4100559 Z" id="Path" fill="#000000" opacity="0.1"></path>
                    <path d="M201.22922,54.9832402 C201.22922,54.9832402 197.804784,57.1195531 192.240637,54.9832402 C192.240637,54.9832402 186.141561,52.7486034 184.214476,48.3597765 C182.287392,43.9709497 177.795339,39.1642458 177.795339,39.1642458 C177.795339,39.1642458 169.984045,36.172067 170.409302,33.1821229 C170.834559,30.1921788 179.397885,36.4938547 179.397885,36.4938547 L182.82232,39.698324 L193.950616,49.0994413 C193.950616,49.0994413 196.412628,49.0994413 197.160185,48.5653631 C197.907741,48.0312849 203.154066,52.6324022 201.22922,54.9832402 Z" id="Path" fill="#F5BD41"></path>
                    <path d="M184.536776,36.3932961 L193.737988,35.6446927 C193.264953,37.0570539 192.943096,38.5154699 192.777803,39.9955307 C190.552398,42.2993944 186.88869,42.3987935 184.541253,40.2189944 C184.775739,38.9543673 184.774221,37.6573727 184.536776,36.3932961 L184.536776,36.3932961 Z" id="Path" fill="#000000" opacity="0.1"></path>
                    <ellipse id="Oval" fill="#F5BD41" cx="188.65729" cy="35.5932961" rx="5.88420945" ry="5.87486034"></ellipse>
                    <path d="M191.887002,36.8692737 C191.54232,36.301676 192.242875,35.5620112 192.012341,34.9407821 C191.799713,34.3687151 190.953676,34.2703911 190.669425,33.7363128 C190.445606,33.3050279 190.669425,32.775419 190.579897,32.2994413 C190.45232,31.6849162 189.789815,31.3027933 189.160883,31.2715084 C188.531951,31.2402235 187.9254,31.4748603 187.327803,31.6759777 C186.354189,32.0044693 185.329097,32.2569832 184.30848,32.1407821 C183.287864,32.024581 182.269487,31.4703911 181.815133,30.5608939 C181.740822,30.4284129 181.701537,30.2792151 181.700986,30.1273743 C181.718891,29.7921788 182.027762,29.5620112 182.226961,29.2938547 C182.576119,28.8268156 182.616407,28.1899441 182.93423,27.7027933 C183.583306,26.7106145 185.009035,26.7351955 186.195277,26.7307263 C187.941068,26.7307263 189.677906,26.4044693 191.423696,26.4625698 C193.169487,26.5206704 195.004805,27.0145251 196.161951,28.3240223 C197.54963,29.8994413 197.6123,32.2055866 197.601109,34.3061453 C197.601109,35.1709497 197.565298,36.1117318 197.012464,36.7798883 C196.851314,36.9743017 196.654353,37.1351955 196.499918,37.3340782 C196.164189,37.7810056 196.074661,38.3530726 195.759076,38.8067039 C195.199528,39.6134078 194.10729,39.8100559 193.133676,39.9396648 C193.420164,39.901676 193.182916,37.9865922 193.133676,37.8100559 C192.945667,36.9296089 192.741992,36.947486 191.887002,36.8692737 Z" id="Path" fill="#000000" opacity="0.1"></path>
                    <path d="M191.887002,36.6569832 C191.54232,36.0893855 192.242875,35.3497207 192.012341,34.7284916 C191.799713,34.1564246 190.953676,34.0581006 190.669425,33.5240223 C190.445606,33.0927374 190.669425,32.5631285 190.579897,32.0871508 C190.45232,31.4726257 189.789815,31.0905028 189.160883,31.0592179 C188.531951,31.027933 187.9254,31.2625698 187.327803,31.4636872 C186.354189,31.7921788 185.329097,32.0446927 184.30848,31.9284916 C183.287864,31.8122905 182.269487,31.2581006 181.815133,30.3486034 C181.740822,30.2161224 181.701537,30.0669246 181.700986,29.9150838 C181.718891,29.5798883 182.027762,29.3497207 182.226961,29.0815642 C182.576119,28.6145251 182.616407,27.9776536 182.93423,27.4905028 C183.583306,26.498324 185.009035,26.522905 186.195277,26.5184358 C187.941068,26.5184358 189.677906,26.1921788 191.423696,26.2502793 C193.169487,26.3083799 195.004805,26.8022346 196.161951,28.1117318 C197.54963,29.6871508 197.6123,31.9932961 197.601109,34.0938547 C197.601109,34.9586592 197.565298,35.8994413 197.012464,36.5675978 C196.851314,36.7620112 196.654353,36.922905 196.499918,37.1217877 C196.164189,37.5687151 196.074661,38.1407821 195.759076,38.5944134 C195.199528,39.4011173 194.10729,39.5977654 193.133676,39.7273743 C193.420164,39.6893855 193.182916,37.7743017 193.133676,37.5977654 C192.945667,36.7061453 192.741992,36.7329609 191.887002,36.6569832 Z" id="Path" fill="#281C1C"></path>
                    <path d="M201.175503,55.6782123 C201.175503,55.6782123 198.285996,48.1988827 196.03885,47.9865922 C193.791704,47.7743017 200.318275,47.9865922 200.318275,47.9865922 L202.457988,51.8324022 L201.175503,55.6782123 Z" id="Path" fill="#000000" opacity="0.1"></path>
                    <path d="M201.39037,55.6782123 C201.39037,55.6782123 198.500862,48.1988827 196.253717,47.9865922 C194.006571,47.7743017 200.533142,47.9865922 200.533142,47.9865922 L202.672854,51.8324022 L201.39037,55.6782123 Z" id="Path" fill="#E14B5A"></path>
                    <path d="M193.30154,141.774302 C193.453737,142.934078 193.525359,143.868156 193.525359,143.868156 C193.632793,143.226816 200.266797,140.341899 200.266797,140.341899 L200.266797,138.605587 C200.097792,138.599288 199.928558,138.607512 199.760965,138.630168 C198.474004,138.802235 197.281047,139.425698 196.179856,140.09162 C195.249747,140.701091 194.289056,141.262717 193.30154,141.774302 L193.30154,141.774302 Z" id="Path" fill="#618FD8"></path>
                    <path d="M193.30154,141.774302 C193.453737,142.934078 193.525359,143.868156 193.525359,143.868156 C193.632793,143.226816 200.266797,140.341899 200.266797,140.341899 L200.266797,138.605587 C200.097792,138.599288 199.928558,138.607512 199.760965,138.630168 C198.474004,138.802235 197.281047,139.425698 196.179856,140.09162 C195.249747,140.701091 194.289056,141.262717 193.30154,141.774302 L193.30154,141.774302 Z" id="Path" fill="#000000" opacity="0.3"></path>
                    <path d="M177.152977,140.98324 C178.542895,140.341899 184.429343,142.37095 184.429343,142.37095 L185.024702,140.348603 C183.997372,140.140782 182.976756,139.881564 181.974045,139.573184 C181.5059,139.4379 181.048124,139.26912 180.604271,139.068156 C180.307893,138.910043 180.003039,138.768302 179.691088,138.643575 C178.923388,138.379888 178.124353,138.49162 177.336509,138.623464 C177.233552,140.06257 177.152977,140.98324 177.152977,140.98324 Z" id="Path" fill="#618FD8"></path>
                    <path d="M177.152977,140.98324 C178.542895,140.341899 184.429343,142.37095 184.429343,142.37095 L185.024702,140.348603 C183.997372,140.140782 182.976756,139.881564 181.974045,139.573184 C181.5059,139.4379 181.048124,139.26912 180.604271,139.068156 C180.307893,138.910043 180.003039,138.768302 179.691088,138.643575 C178.923388,138.379888 178.124353,138.49162 177.336509,138.623464 C177.233552,140.06257 177.152977,140.98324 177.152977,140.98324 Z" id="Path" fill="#000000" opacity="0.3"></path>
                    <path d="M206.204723,147.072626 C206.386064,146.995125 206.52149,146.838478 206.571786,146.648045 C206.654287,146.952958 206.497108,147.271601 206.204723,147.392179 C204.92,148.03352 197.538439,148.460335 193.894661,145.682682 L193.894661,145.363128 C197.538439,148.140782 204.92,147.713966 206.204723,147.072626 Z" id="Path" fill="#FFFFFF" opacity="0.4"></path>
                    <path d="M172.927269,147.499441 C175.165462,148.03352 183.200575,146.858101 183.948131,145.575419 L183.948131,145.894972 C183.198337,147.177654 175.174415,148.353073 172.927269,147.818994 C172.00961,147.595531 171.716407,147.148603 171.808172,146.659218 C171.879795,147.021229 172.215524,147.32067 172.927269,147.499441 Z" id="Path" fill="#FFFFFF" opacity="0.4"></path>
                    <path d="M185.980411,69.673743 C185.980411,69.673743 183.625832,68.9251397 182.98347,69.673743 C182.341109,70.4223464 176.850821,72.1765363 176.850821,72.1765363" id="Path" fill="#000000" opacity="0.1"></path>
                    <rect id="Rectangle" fill="#8ED16F" transform="translate(165.063378, 40.198883) rotate(-180.000000) translate(-165.063378, -40.198883) " x="159.339199" y="40.0782123" width="11.4483573" height="1"></rect>
                    <rect id="Rectangle" fill="#8ED16F" transform="translate(165.063378, 40.440223) rotate(-180.000000) translate(-165.063378, -40.440223) " x="159.339199" y="40.3195531" width="11.4483573" height="1"></rect>
                    <rect id="Rectangle" fill="#000000" opacity="0.1" transform="translate(165.063378, 40.440223) rotate(-180.000000) translate(-165.063378, -40.440223) " x="159.339199" y="40.3195531" width="11.4483573" height="1"></rect>
                    <rect id="Rectangle" fill="#8ED16F" transform="translate(165.063378, 40.681564) rotate(-180.000000) translate(-165.063378, -40.681564) " x="159.339199" y="40.5608939" width="11.4483573" height="1"></rect>
                    <rect id="Rectangle" fill="#8ED16F" transform="translate(165.063378, 40.920670) rotate(-180.000000) translate(-165.063378, -40.920670) " x="159.339199" y="40.8" width="11.4483573" height="1"></rect>
                    <rect id="Rectangle" fill="#000000" opacity="0.1" transform="translate(165.063378, 40.920670) rotate(-180.000000) translate(-165.063378, -40.920670) " x="159.339199" y="40.8" width="11.4483573" height="1"></rect>
                    <rect id="Rectangle" fill="#8ED16F" transform="translate(165.063378, 41.162011) rotate(-180.000000) translate(-165.063378, -41.162011) " x="159.339199" y="41.0413408" width="11.4483573" height="1"></rect>
                    <rect id="Rectangle" fill="#8ED16F" transform="translate(165.063378, 41.401117) rotate(-180.000000) translate(-165.063378, -41.401117) " x="159.339199" y="41.2804469" width="11.4483573" height="1"></rect>
                    <rect id="Rectangle" fill="#000000" opacity="0.1" transform="translate(165.063378, 41.401117) rotate(-180.000000) translate(-165.063378, -41.401117) " x="159.339199" y="41.2804469" width="11.4483573" height="1"></rect>
                    <rect id="Rectangle" fill="#8ED16F" transform="translate(165.063378, 41.642458) rotate(-180.000000) translate(-165.063378, -41.642458) " x="159.339199" y="41.5217877" width="11.4483573" height="1"></rect>
                    <rect id="Rectangle" fill="#8ED16F" transform="translate(165.063378, 41.881564) rotate(-180.000000) translate(-165.063378, -41.881564) " x="159.339199" y="41.7608939" width="11.4483573" height="1"></rect>
                    <rect id="Rectangle" fill="#000000" opacity="0.1" transform="translate(165.063378, 41.881564) rotate(-180.000000) translate(-165.063378, -41.881564) " x="159.339199" y="41.7608939" width="11.4483573" height="1"></rect>
                    <rect id="Rectangle" fill="#8ED16F" transform="translate(165.063378, 38.277095) rotate(-180.000000) translate(-165.063378, -38.277095) " x="159.339199" y="38.1564246" width="11.4483573" height="1"></rect>
                    <polygon id="Rectangle" fill="#8ED16F" transform="translate(171.915207, 36.245564) rotate(-140.250000) translate(-171.915207, -36.245564) " points="166.194841 36.1292862 177.635761 36.1203436 177.635572 36.3618414 166.194652 36.370784"></polygon>
                    <polygon id="Rectangle" fill="#8ED16F" transform="translate(163.890372, 32.400212) rotate(-140.250000) translate(-163.890372, -32.400212) " points="158.170007 32.2839343 169.610927 32.2749918 169.610738 32.5164896 158.169818 32.5254322"></polygon>
                    <rect id="Rectangle" fill="#8ED16F" transform="translate(165.063378, 38.516201) rotate(-180.000000) translate(-165.063378, -38.516201) " x="159.339199" y="38.3955307" width="11.4483573" height="1"></rect>
                    <rect id="Rectangle" fill="#000000" opacity="0.1" transform="translate(165.063378, 38.516201) rotate(-180.000000) translate(-165.063378, -38.516201) " x="159.339199" y="38.3955307" width="11.4483573" height="1"></rect>
                    <rect id="Rectangle" fill="#8ED16F" transform="translate(165.063378, 38.759777) rotate(-180.000000) translate(-165.063378, -38.759777) " x="159.339199" y="38.6391061" width="11.4483573" height="1"></rect>
                    <rect id="Rectangle" fill="#8ED16F" transform="translate(165.063378, 38.998883) rotate(-180.000000) translate(-165.063378, -38.998883) " x="159.339199" y="38.8782123" width="11.4483573" height="1"></rect>
                    <rect id="Rectangle" fill="#000000" opacity="0.1" transform="translate(165.063378, 38.998883) rotate(-180.000000) translate(-165.063378, -38.998883) " x="159.339199" y="38.8782123" width="11.4483573" height="1"></rect>
                    <rect id="Rectangle" fill="#8ED16F" transform="translate(165.063378, 39.237989) rotate(-180.000000) translate(-165.063378, -39.237989) " x="159.339199" y="39.1173184" width="11.4483573" height="1"></rect>
                    <rect id="Rectangle" fill="#8ED16F" transform="translate(165.063378, 39.479330) rotate(-180.000000) translate(-165.063378, -39.479330) " x="159.339199" y="39.3586592" width="11.4483573" height="1"></rect>
                    <rect id="Rectangle" fill="#000000" opacity="0.1" transform="translate(165.063378, 39.479330) rotate(-180.000000) translate(-165.063378, -39.479330) " x="159.339199" y="39.3586592" width="11.4483573" height="1"></rect>
                    <rect id="Rectangle" fill="#8ED16F" transform="translate(165.063378, 39.718436) rotate(-180.000000) translate(-165.063378, -39.718436) " x="159.339199" y="39.5977654" width="11.4483573" height="1"></rect>
                    <rect id="Rectangle" fill="#8ED16F" transform="translate(165.063378, 39.959777) rotate(-180.000000) translate(-165.063378, -39.959777) " x="159.339199" y="39.8391061" width="11.4483573" height="1"></rect>
                    <rect id="Rectangle" fill="#000000" opacity="0.1" transform="translate(165.063378, 39.959777) rotate(-180.000000) translate(-165.063378, -39.959777) " x="159.339199" y="39.8391061" width="11.4483573" height="1"></rect>
                    <polygon id="Rectangle" fill="#8ED16F" transform="translate(160.681316, 45.840169) rotate(-169.480000) translate(-160.681316, -45.840169) " points="158.59659 41.7813304 162.768361 41.7801405 162.766042 49.899007 158.594271 49.9001969"></polygon>
                    <ellipse id="Oval" fill="#8ED16F" transform="translate(160.738401, 45.865590) rotate(-79.480000) translate(-160.738401, -45.865590) " cx="160.738401" cy="45.8655896" rx="1.70958789" ry="1"></ellipse>
                    <ellipse id="Oval" fill="#000000" opacity="0.1" transform="translate(160.738401, 45.865590) rotate(-79.480000) translate(-160.738401, -45.865590) " cx="160.738401" cy="45.8655896" rx="1.70958789" ry="1"></ellipse>
                    <polygon id="Rectangle" fill="#8ED16F" transform="translate(161.383116, 62.687933) rotate(-169.480000) translate(-161.383116, -62.687933) " points="159.29839 58.6290952 163.470161 58.6279053 163.467842 66.7467717 159.296071 66.7479617"></polygon>
                    <ellipse id="Oval" fill="#8ED16F" transform="translate(161.438117, 62.711526) rotate(-79.480000) translate(-161.438117, -62.711526) " cx="161.438117" cy="62.7115258" rx="1.70958789" ry="1"></ellipse>
                    <ellipse id="Oval" fill="#000000" opacity="0.1" transform="translate(161.438117, 62.711526) rotate(-79.480000) translate(-161.438117, -62.711526) " cx="161.438117" cy="62.7115258" rx="1.70958789" ry="1"></ellipse>
                    <polygon id="Rectangle" fill="#8ED16F" transform="translate(146.336777, 28.650888) rotate(-61.580000) translate(-146.336777, -28.650888) " points="144.250641 24.5852862 148.417505 24.5880608 148.422913 32.7164896 144.256048 32.7137151"></polygon>
                    <ellipse id="Oval" fill="#8ED16F" transform="translate(147.033166, 28.808045) rotate(-61.389540) translate(-147.033166, -28.808045) " cx="147.033166" cy="28.8080447" rx="1" ry="1.71569687"></ellipse>
                    <ellipse id="Oval" fill="#000000" opacity="0.1" transform="translate(147.033166, 28.808045) rotate(-61.389540) translate(-147.033166, -28.808045) " cx="147.033166" cy="28.8080447" rx="1" ry="1.71569687"></ellipse>
                    <polygon id="Rectangle" fill="#8ED16F" transform="translate(130.634151, 100.946693) rotate(-61.580000) translate(-130.634151, -100.946693) " points="128.548015 96.8810917 132.714879 96.8838663 132.720287 105.012295 128.553422 105.009521"></polygon>
                    <ellipse id="Oval" fill="#8ED16F" transform="translate(130.611038, 100.995647) rotate(-61.580000) translate(-130.611038, -100.995647) " cx="130.611038" cy="100.995647" rx="1" ry="1.71160154"></ellipse>
                    <ellipse id="Oval" fill="#000000" opacity="0.1" transform="translate(130.611038, 100.995647) rotate(-61.580000) translate(-130.611038, -100.995647) " cx="130.611038" cy="100.995647" rx="1" ry="1.71160154"></ellipse>
                    <polygon id="Rectangle" fill="#8ED16F" transform="translate(121.026761, 41.285756) rotate(-61.580000) translate(-121.026761, -41.285756) " points="118.940625 37.2201538 123.107489 37.2229284 123.112897 45.3513573 118.946033 45.3485827"></polygon>
                    <ellipse id="Oval" fill="#8ED16F" transform="translate(121.001680, 41.331411) rotate(-61.580000) translate(-121.001680, -41.331411) " cx="121.00168" cy="41.3314112" rx="1" ry="1.71160154"></ellipse>
                    <ellipse id="Oval" fill="#000000" opacity="0.1" transform="translate(121.001680, 41.331411) rotate(-61.580000) translate(-121.001680, -41.331411) " cx="121.00168" cy="41.3314112" rx="1" ry="1.71160154"></ellipse>
                    <polygon id="Rectangle" fill="#8ED16F" transform="translate(133.068051, 28.649932) rotate(-61.580000) translate(-133.068051, -28.649932) " points="130.981915 24.5843303 135.14878 24.5871049 135.154188 32.7155337 130.987323 32.7127592"></polygon>
                    <ellipse id="Oval" fill="#8ED16F" transform="translate(133.042971, 28.695588) rotate(-61.580000) translate(-133.042971, -28.695588) " cx="133.042971" cy="28.6955877" rx="1" ry="1.71160154"></ellipse>
                    <ellipse id="Oval" fill="#000000" opacity="0.1" transform="translate(133.042971, 28.695588) rotate(-61.580000) translate(-133.042971, -28.695588) " cx="133.042971" cy="28.6955877" rx="1" ry="1.71160154"></ellipse>
                    <polygon id="Rectangle" fill="#8ED16F" transform="translate(140.875404, 44.057323) rotate(-6.240000) translate(-140.875404, -44.057323) " points="138.788749 39.997671 142.960662 39.9983872 142.962058 48.1169756 138.790145 48.1162594"></polygon>
                    <ellipse id="Oval" fill="#8ED16F" transform="translate(140.820619, 44.064224) rotate(-6.240000) translate(-140.820619, -44.064224) " cx="140.820619" cy="44.0642237" rx="1" ry="1.70952935"></ellipse>
                    <ellipse id="Oval" fill="#000000" opacity="0.1" transform="translate(140.820619, 44.064224) rotate(-6.240000) translate(-140.820619, -44.064224) " cx="140.820619" cy="44.0642237" rx="1" ry="1.70952935"></ellipse>
                    <polygon id="Rectangle" fill="#8ED16F" transform="translate(169.309705, 88.249014) rotate(-6.240000) translate(-169.309705, -88.249014) " points="167.22305 84.1893615 171.394963 84.1900777 171.396359 92.3086661 167.224446 92.3079498"></polygon>
                    <ellipse id="Oval" fill="#8ED16F" transform="translate(169.256914, 88.255927) rotate(-6.240000) translate(-169.256914, -88.255927) " cx="169.256914" cy="88.2559273" rx="1" ry="1.70952935"></ellipse>
                    <ellipse id="Oval" fill="#000000" opacity="0.1" transform="translate(169.256914, 88.255927) rotate(-6.240000) translate(-169.256914, -88.255927) " cx="169.256914" cy="88.2559273" rx="1" ry="1.70952935"></ellipse>
                    <polygon id="Rectangle" fill="#8ED16F" transform="translate(128.850496, 60.702899) rotate(-61.580000) translate(-128.850496, -60.702899) " points="126.764359 56.6372972 130.931224 56.6400717 130.936632 64.7685006 126.769767 64.765726"></polygon>
                    <ellipse id="Oval" fill="#8ED16F" transform="translate(128.824080, 60.751583) rotate(-61.580000) translate(-128.824080, -60.751583) " cx="128.82408" cy="60.7515834" rx="1" ry="1.71160154"></ellipse>
                    <ellipse id="Oval" fill="#000000" opacity="0.1" transform="translate(128.824080, 60.751583) rotate(-61.580000) translate(-128.824080, -60.751583) " cx="128.82408" cy="60.7515834" rx="1" ry="1.71160154"></ellipse>
                    <polygon id="Rectangle" fill="#8ED16F" transform="translate(110.804210, 55.556972) rotate(-61.580000) translate(-110.804210, -55.556972) " points="108.718074 51.4913703 112.884938 51.4941449 112.890346 59.6225737 108.723482 59.6197991"></polygon>
                    <ellipse id="Oval" fill="#8ED16F" transform="translate(111.372216, 55.841966) rotate(-61.389540) translate(-111.372216, -55.841966) " cx="111.372216" cy="55.8419665" rx="1" ry="1.71569687"></ellipse>
                    <ellipse id="Oval" fill="#000000" opacity="0.1" transform="translate(111.372216, 55.841966) rotate(-61.389540) translate(-111.372216, -55.841966) " cx="111.372216" cy="55.8419665" rx="1" ry="1.71569687"></ellipse>
                    <polygon id="Rectangle" fill="#8ED16F" transform="translate(105.024484, 142.195358) rotate(-61.580000) translate(-105.024484, -142.195358) " points="102.938347 138.129756 107.105212 138.132531 107.11062 146.26096 102.943755 146.258185"></polygon>
                    <ellipse id="Oval" fill="#8ED16F" transform="translate(104.999133, 142.242077) rotate(-61.580000) translate(-104.999133, -142.242077) " cx="104.999133" cy="142.242077" rx="1" ry="1.71160154"></ellipse>
                    <ellipse id="Oval" fill="#000000" opacity="0.1" transform="translate(104.999133, 142.242077) rotate(-61.580000) translate(-104.999133, -142.242077) " cx="104.999133" cy="142.242077" rx="1" ry="1.71160154"></ellipse>
                    <polygon id="Rectangle" fill="#8ED16F" transform="translate(100.855464, 142.631944) rotate(-79.490000) translate(-100.855464, -142.631944) " points="98.7715134 138.565887 102.937097 138.567075 102.939414 146.698001 98.7738304 146.696812"></polygon>
                    <polygon id="Rectangle" fill="#000000" opacity="0.05" transform="translate(100.855464, 142.631944) rotate(-79.490000) translate(-100.855464, -142.631944) " points="98.7715134 138.565887 102.937097 138.567075 102.939414 146.698001 98.7738304 146.696812"></polygon>
                    <ellipse id="Oval" fill="#8ED16F" transform="translate(100.847353, 142.683831) rotate(-79.490000) translate(-100.847353, -142.683831) " cx="100.847353" cy="142.683831" rx="1" ry="1.71212714"></ellipse>
                    <ellipse id="Oval" fill="#000000" opacity="0.1" transform="translate(100.847353, 142.683831) rotate(-79.490000) translate(-100.847353, -142.683831) " cx="100.847353" cy="142.683831" rx="1" ry="1.71212714"></ellipse>
                    <polygon id="Rectangle" fill="#8ED16F" transform="translate(101.604517, 145.088001) rotate(-79.490000) translate(-101.604517, -145.088001) " points="99.5205662 141.021944 103.68615 141.023133 103.688467 149.154058 99.5228833 149.152869"></polygon>
                    <ellipse id="Oval" fill="#8ED16F" transform="translate(101.594167, 145.139888) rotate(-79.490000) translate(-101.594167, -145.139888) " cx="101.594167" cy="145.139888" rx="1" ry="1.71212714"></ellipse>
                    <ellipse id="Oval" fill="#000000" opacity="0.1" transform="translate(101.594167, 145.139888) rotate(-79.490000) translate(-101.594167, -145.139888) " cx="101.594167" cy="145.139888" rx="1" ry="1.71212714"></ellipse>
                    <polygon id="Rectangle" fill="#8ED16F" transform="translate(113.460023, 152.724561) rotate(-61.580000) translate(-113.460023, -152.724561) " points="111.373887 148.65896 115.540752 148.661734 115.54616 156.790163 111.379295 156.787389"></polygon>
                    <ellipse id="Oval" fill="#8ED16F" transform="translate(113.436911, 152.771281) rotate(-61.580000) translate(-113.436911, -152.771281) " cx="113.436911" cy="152.771281" rx="1" ry="1.71160154"></ellipse>
                    <ellipse id="Oval" fill="#000000" opacity="0.1" transform="translate(113.436911, 152.771281) rotate(-61.580000) translate(-113.436911, -152.771281) " cx="113.436911" cy="152.771281" rx="1" ry="1.71160154"></ellipse>
                    <polygon id="Rectangle" fill="#8ED16F" transform="translate(109.292643, 153.158355) rotate(-79.490000) translate(-109.292643, -153.158355) " points="107.208693 149.092298 111.374276 149.093486 111.376593 157.224412 107.21101 157.223223"></polygon>
                    <polygon id="Rectangle" fill="#000000" opacity="0.05" transform="translate(109.292643, 153.158355) rotate(-79.490000) translate(-109.292643, -153.158355) " points="107.208693 149.092298 111.374276 149.093486 111.376593 157.224412 107.21101 157.223223"></polygon>
                    <ellipse id="Oval" fill="#8ED16F" transform="translate(109.282294, 153.210242) rotate(-79.490000) translate(-109.282294, -153.210242) " cx="109.282294" cy="153.210242" rx="1" ry="1.71212714"></ellipse>
                    <ellipse id="Oval" fill="#000000" opacity="0.1" transform="translate(109.282294, 153.210242) rotate(-79.490000) translate(-109.282294, -153.210242) " cx="109.282294" cy="153.210242" rx="1" ry="1.71212714"></ellipse>
                    <polygon id="Rectangle" fill="#8ED16F" transform="translate(110.041250, 155.617017) rotate(-79.490000) translate(-110.041250, -155.617017) " points="107.9573 151.55096 112.122883 151.552149 112.125201 159.683074 107.959617 159.681885"></polygon>
                    <ellipse id="Oval" fill="#8ED16F" transform="translate(110.033139, 155.668904) rotate(-79.490000) translate(-110.033139, -155.668904) " cx="110.033139" cy="155.668904" rx="1" ry="1.71212714"></ellipse>
                    <ellipse id="Oval" fill="#000000" opacity="0.1" transform="translate(110.033139, 155.668904) rotate(-79.490000) translate(-110.033139, -155.668904) " cx="110.033139" cy="155.668904" rx="1" ry="1.71212714"></ellipse>
                    <polygon id="Rectangle" fill="#8ED16F" transform="translate(126.116572, 145.939039) rotate(-61.580000) translate(-126.116572, -145.939039) " points="124.030435 141.873437 128.1973 141.876212 128.202708 150.004641 124.035843 150.001866"></polygon>
                    <ellipse id="Oval" fill="#8ED16F" transform="translate(126.089253, 145.984695) rotate(-61.580000) translate(-126.089253, -145.984695) " cx="126.089253" cy="145.984695" rx="1" ry="1.71160154"></ellipse>
                    <ellipse id="Oval" fill="#000000" opacity="0.1" transform="translate(126.089253, 145.984695) rotate(-61.580000) translate(-126.089253, -145.984695) " cx="126.089253" cy="145.984695" rx="1" ry="1.71160154"></ellipse>
                    <polygon id="Rectangle" fill="#8ED16F" transform="translate(121.947979, 146.374150) rotate(-79.490000) translate(-121.947979, -146.374150) " points="119.864028 142.308093 124.029612 142.309282 124.031929 150.440208 119.866345 150.439019"></polygon>
                    <polygon id="Rectangle" fill="#000000" opacity="0.05" transform="translate(121.947979, 146.374150) rotate(-79.490000) translate(-121.947979, -146.374150) " points="119.864028 142.308093 124.029612 142.309282 124.031929 150.440208 119.866345 150.439019"></polygon>
                    <ellipse id="Oval" fill="#8ED16F" transform="translate(121.937630, 146.426038) rotate(-79.490000) translate(-121.937630, -146.426038) " cx="121.93763" cy="146.426038" rx="1" ry="1.71212714"></ellipse>
                    <ellipse id="Oval" fill="#000000" opacity="0.1" transform="translate(121.937630, 146.426038) rotate(-79.490000) translate(-121.937630, -146.426038) " cx="121.93763" cy="146.426038" rx="1" ry="1.71212714"></ellipse>
                    <polygon id="Rectangle" fill="#8ED16F" transform="translate(122.696623, 148.832405) rotate(-79.490000) translate(-122.696623, -148.832405) " points="120.612673 144.766348 124.778257 144.767537 124.780574 152.898462 120.61499 152.897273"></polygon>
                    <ellipse id="Oval" fill="#8ED16F" transform="translate(122.688475, 148.884700) rotate(-79.490000) translate(-122.688475, -148.884700) " cx="122.688475" cy="148.8847" rx="1" ry="1.71212714"></ellipse>
                    <ellipse id="Oval" fill="#000000" opacity="0.1" transform="translate(122.688475, 148.884700) rotate(-79.490000) translate(-122.688475, -148.884700) " cx="122.688475" cy="148.8847" rx="1" ry="1.71212714"></ellipse>
                </g>
                <g id="Group-8" transform="translate(0.000000, 6.000000)">
                    <g id="Group-3" transform="translate(59.042553, 0.000000)" fill-rule="nonzero">
                        <path d="M7.25125156,9.76996262e-15 C3.6770723,9.76996262e-15 0.79787234,2.9 0.79787234,6.5 C0.79787234,10.1 3.6770723,13 7.25125156,13 C10.8254308,13 13.7046308,10.1 13.7046308,6.5 C13.7046308,2.9 10.8254308,9.76996262e-15 7.25125156,9.76996262e-15 Z M7.25125156,9.6 C5.56344469,9.6 4.17348609,8.2 4.17348609,6.5 C4.17348609,4.8 5.56344469,3.4 7.25125156,3.4 C8.93905844,3.4 10.329017,4.8 10.329017,6.5 C10.329017,8.2 8.98869982,9.6 7.25125156,9.6 Z" id="Shape" fill="#E6434D"></path>
                        <ellipse id="Oval" fill="#5FD0D6" cx="7.25125156" cy="6.5" rx="1.76001252" ry="1.77272727"></ellipse>
                    </g>
                    <path d="M6.45337922,60.2727273 C2.87919996,60.2727273 6.42152997e-13,63.1727273 6.42152997e-13,66.7727273 C6.42152997e-13,70.3727273 2.87919996,73.2727273 6.45337922,73.2727273 C10.0275585,73.2727273 12.9067584,70.3727273 12.9067584,66.7727273 C12.9067584,63.1727273 10.0275585,60.2727273 6.45337922,60.2727273 Z M6.45337922,69.8727273 C4.76557235,69.8727273 3.37561375,68.4727273 3.37561375,66.7727273 C3.37561375,65.0727273 4.76557235,63.6727273 6.45337922,63.6727273 C8.1411861,63.6727273 9.5311447,65.0727273 9.5311447,66.7727273 C9.5311447,68.4727273 8.1411861,69.8727273 6.45337922,69.8727273 Z" id="Shape" fill="#E6434D" fill-rule="nonzero"></path>
                    <ellipse id="Oval" fill="#5FD0D6" fill-rule="nonzero" cx="6.45337922" cy="66.7727273" rx="1.76001252" ry="1.77272727"></ellipse>
                    <ellipse id="Oval" stroke="#5FD0D6" stroke-width="1.60000002" cx="16.5910513" cy="74.7319109" rx="1.76001252" ry="1.77272727"></ellipse>
                    <ellipse id="Oval" stroke="#5FD0D6" stroke-width="1.60000002" cx="72.1605131" cy="15.9545455" rx="1.76001252" ry="1.77272727"></ellipse>
                    <ellipse id="Oval" stroke="#5FD0D6" stroke-width="1.60000002" cx="55.7337297" cy="1.77272727" rx="1.76001252" ry="1.77272727"></ellipse>
                </g>
                <g id="Group-8" transform="translate(185.500000, 106.000000) scale(-1, 1) translate(-185.500000, -106.000000) translate(148.000000, 67.000000)">
                    <g id="Group-3" transform="translate(59.042553, 0.000000)" fill-rule="nonzero">
                        <path d="M7.25125156,9.76996262e-15 C3.6770723,9.76996262e-15 0.79787234,2.9 0.79787234,6.5 C0.79787234,10.1 3.6770723,13 7.25125156,13 C10.8254308,13 13.7046308,10.1 13.7046308,6.5 C13.7046308,2.9 10.8254308,9.76996262e-15 7.25125156,9.76996262e-15 Z M7.25125156,9.6 C5.56344469,9.6 4.17348609,8.2 4.17348609,6.5 C4.17348609,4.8 5.56344469,3.4 7.25125156,3.4 C8.93905844,3.4 10.329017,4.8 10.329017,6.5 C10.329017,8.2 8.98869982,9.6 7.25125156,9.6 Z" id="Shape" fill="#E6434D"></path>
                        <ellipse id="Oval" fill="#5FD0D6" cx="7.25125156" cy="6.5" rx="1.76001252" ry="1.77272727"></ellipse>
                    </g>
                    <path d="M6.45337922,60.2727273 C2.87919996,60.2727273 6.42152997e-13,63.1727273 6.42152997e-13,66.7727273 C6.42152997e-13,70.3727273 2.87919996,73.2727273 6.45337922,73.2727273 C10.0275585,73.2727273 12.9067584,70.3727273 12.9067584,66.7727273 C12.9067584,63.1727273 10.0275585,60.2727273 6.45337922,60.2727273 Z M6.45337922,69.8727273 C4.76557235,69.8727273 3.37561375,68.4727273 3.37561375,66.7727273 C3.37561375,65.0727273 4.76557235,63.6727273 6.45337922,63.6727273 C8.1411861,63.6727273 9.5311447,65.0727273 9.5311447,66.7727273 C9.5311447,68.4727273 8.1411861,69.8727273 6.45337922,69.8727273 Z" id="Shape" fill="#E6434D" fill-rule="nonzero"></path>
                    <ellipse id="Oval" fill="#5FD0D6" fill-rule="nonzero" cx="6.45337922" cy="66.7727273" rx="1.76001252" ry="1.77272727"></ellipse>
                    <ellipse id="Oval" stroke="#5FD0D6" stroke-width="1.60000002" cx="16.5910513" cy="74.7319109" rx="1.76001252" ry="1.77272727"></ellipse>
                    <ellipse id="Oval" stroke="#5FD0D6" stroke-width="1.60000002" cx="72.1605131" cy="15.9545455" rx="1.76001252" ry="1.77272727"></ellipse>
                    <ellipse id="Oval" stroke="#5FD0D6" stroke-width="1.60000002" cx="55.7337297" cy="1.77272727" rx="1.76001252" ry="1.77272727"></ellipse>
                </g>
            </g>
        </g>
    </g>
</svg>