<?xml version="1.0" encoding="UTF-8"?>
<svg width="26px" height="26px" viewBox="0 0 26 26" version="1.1" xmlns="http://www.w3.org/2000/svg" xmlns:xlink="http://www.w3.org/1999/xlink">
    <!-- Generator: Sketch 53.1 (72631) - https://sketchapp.com -->
    <title>Group 21</title>
    <desc>Created with Sketch.</desc>
    <g id="320" stroke="none" stroke-width="1" fill="none" fill-rule="evenodd">
        <g id="Menu" transform="translate(-147.000000, -543.000000)" fill="#FA2C46">
            <g id="Group-21" transform="translate(147.000000, 543.000000)">
                <path d="M9.56664868,7.48043947 L12.2243105,15.0037482 L15.5735347,4.05487789 L18.6872263,12.8779539 L25.6174066,12.8779539 C25.6175332,12.8550466 25.6191411,12.8324984 25.6191411,12.8095705 C25.6191411,5.73504579 19.8840953,6.75015599e-14 12.8095705,6.75015599e-14 C5.73504579,6.75015599e-14 -7.81597009e-14,5.73504237 -7.81597009e-14,12.8095671 C-7.81597009e-14,12.832495 0.00160789474,12.8550432 0.00173447368,12.8779505 L7.00854632,12.8779505 L9.56664868,7.48043947 Z" id="Shape"></path>
                <path d="M15.712515,10.6170145 L12.3646284,21.5625458 L9.28935526,12.8582384 L8.30747211,14.9305821 L0.178004211,14.9305821 C1.18909974,20.9952258 6.457945,25.6191376 12.8095671,25.6191376 C19.1611892,25.6191376 24.4300379,20.9952258 25.44113,14.9305821 L17.2352871,14.9305821 L15.712515,10.6170145 Z" id="Shape"></path>
            </g>
        </g>
    </g>
</svg>