<?xml version="1.0" encoding="UTF-8"?>
<svg width="47px" height="30px" viewBox="0 0 47 30" version="1.1" xmlns="http://www.w3.org/2000/svg" xmlns:xlink="http://www.w3.org/1999/xlink">
    <!-- Generator: Sketch 53.1 (72631) - https://sketchapp.com -->
    <title>g3110</title>
    <desc>Created with Sketch.</desc>
    <g id="320" stroke="none" stroke-width="1" fill="none" fill-rule="evenodd">
        <g id="Recargar2" transform="translate(-67.000000, -155.000000)">
            <g id="Group-20" transform="translate(30.000000, 117.000000)">
                <g id="Group-2" transform="translate(24.000000, 38.000000)">
                    <g id="g3110" transform="translate(13.000000, 0.000000)">
                        <path d="M46.9221267,14.5364249 C46.9221267,22.5629317 40.427657,29.0697021 32.416321,29.0697021 C24.4049851,29.0697021 17.9105134,22.5629317 17.9105134,14.5364249 C17.9105134,6.50991683 24.4049851,0.00314688653 32.416321,0.00314688653 C40.427657,0.00314688653 46.9221267,6.50991683 46.9221267,14.5364249 L46.9221267,14.5364249 Z" id="path2997" fill="#F79F1A"></path>
                        <path d="M29.0270135,14.5364249 C29.0270135,22.5629317 22.5325439,29.0697021 14.5212078,29.0697021 C6.50987195,29.0697021 0.0154002472,22.5629317 0.0154002472,14.5364249 C0.0154002472,6.50991683 6.50987195,0.00314688653 14.5212078,0.00314688653 C22.5325439,0.00314688653 29.0270135,6.50991683 29.0270135,14.5364249 L29.0270135,14.5364249 Z" id="path2995" fill="#EA001B"></path>
                        <path d="M23.4687938,3.0957223 C20.0842222,5.75629276 17.911641,9.89065818 17.911641,14.5350631 C17.911641,19.179468 20.0842222,23.316989 23.4687938,25.9775596 C26.8533653,23.316989 29.0259467,19.179468 29.0259467,14.5350631 C29.0259467,9.89065818 26.8533653,5.75629276 23.4687938,3.0957223 L23.4687938,3.0957223 Z" id="path2999" fill="#FF5F01"></path>
                    </g>
                </g>
            </g>
        </g>
    </g>
</svg>