<?xml version="1.0" encoding="UTF-8"?>
<svg width="24px" height="19px" viewBox="0 0 24 19" version="1.1" xmlns="http://www.w3.org/2000/svg" xmlns:xlink="http://www.w3.org/1999/xlink">
    <!-- Generator: Sketch 53.1 (72631) - https://sketchapp.com -->
    <title>Combined Shape 2</title>
    <desc>Created with Sketch.</desc>
    <g id="320" stroke="none" stroke-width="1" fill="none" fill-rule="evenodd">
        <g id="Tarjeta-Debito" transform="translate(-30.000000, -23.000000)" fill="#FFFFFF" fill-rule="nonzero">
            <g id="Combined-Shape-2" transform="translate(30.000000, 23.000000)">
                <path d="M4.53799834,10.628287 L10.2418289,16.3300129 C10.7608939,16.8488863 10.7610491,17.6903015 10.2421758,18.2093664 C9.72330237,18.7284313 8.88188713,18.7285866 8.36282222,18.2097132 L0.389400289,10.2392335 C-0.129800096,9.72022473 -0.129800096,8.87854198 0.389400289,8.35953319 L8.36282222,0.389053481 C8.88188713,-0.1298199 9.72330237,-0.129664629 10.2421758,0.389400289 C10.7610491,0.908465207 10.7608939,1.74988045 10.2418289,2.26875383 L4.53799834,7.9704797 L22.5913621,7.9704797 C23.3252953,7.9704797 23.9202658,8.56545014 23.9202658,9.29938336 C23.9202658,10.0333166 23.3252953,10.628287 22.5913621,10.628287 L4.53799834,10.628287 Z" id="Combined-Shape"></path>
            </g>
        </g>
    </g>
</svg>