<?xml version="1.0" encoding="UTF-8"?>
<svg width="26px" height="26px" viewBox="0 0 26 26" version="1.1" xmlns="http://www.w3.org/2000/svg" xmlns:xlink="http://www.w3.org/1999/xlink">
    <!-- Generator: Sketch 53.1 (72631) - https://sketchapp.com -->
    <title>Shape</title>
    <desc>Created with Sketch.</desc>
    <g id="320" stroke="none" stroke-width="1" fill="none" fill-rule="evenodd">
        <g id="Menu" transform="translate(-67.000000, -589.000000)" fill="#FA2C46">
            <g id="Group-22" transform="translate(55.000000, 577.000000)">
                <path d="M27.5706182,26.5056529 C28.0745883,26.9424171 28.1676762,27.6891014 27.7863668,28.236232 C27.3683013,28.834254 26.7349277,29.2471806 26.0190646,29.3884213 L26.0190646,25.7161049 C26.5944561,25.8445124 27.1281255,26.1160837 27.5706182,26.5056529 L27.5706182,26.5056529 Z M22.2733019,20.597814 C21.8465635,21.1301647 21.8860254,21.8976989 22.3651098,22.3834778 C22.8220392,22.7991842 23.3812776,23.0859326 23.9855194,23.2143394 L23.9855194,19.587927 C23.3112191,19.7058373 22.702729,20.0647323 22.2733019,20.597814 L22.2733019,20.597814 Z M37.9999967,24.9908224 C38.0050653,32.1705215 32.1888788,37.9949269 25.0091797,37.9999967 C17.8294806,38.0050665 12.0050743,32.1888809 12.0000033,25.0091818 C11.9949323,17.8294827 17.8111169,12.0050754 24.990816,12.0000032 C28.4386306,11.9975675 31.7461992,13.364871 34.185894,15.8011223 C36.6255888,18.2373737 37.9975627,21.5430078 37.9999967,24.9908224 Z M28.5621436,24.7567123 C28.216319,24.5245316 27.8489184,24.3262275 27.4650391,24.1645512 C27.0059996,23.9671642 26.4918753,23.8202716 26.0420165,23.6596077 L26.0420165,19.5695654 C26.0876315,19.5880042 26.1354775,19.6003516 26.1843188,19.6062885 L26.418429,19.6797349 C27.2492905,20.0240145 27.9148979,20.4922349 28.0572001,21.4791699 C28.1091042,21.7326434 28.2598095,21.9550135 28.4760117,22.0971385 C28.6922138,22.2392634 28.9561128,22.2894419 29.2093894,22.2365851 C29.754543,22.1212672 30.1125031,21.5974726 30.0218894,21.0476727 C29.8133979,19.6797847 28.8992334,18.5231223 27.6165222,18.0042405 C27.0943301,17.7853196 26.5593301,17.5982996 26.0144742,17.4442123 L26.0144742,16.4710484 C26.0144742,16.1102505 25.8219908,15.7768595 25.5095307,15.5964606 C25.1970705,15.4160616 24.8121038,15.4160616 24.4996436,15.5964606 C24.1871835,15.7768595 23.9947001,16.1102505 23.9947002,16.4710484 L23.9947002,17.4809354 C23.9185688,17.5111218 23.8403212,17.5356701 23.76059,17.5543818 C23.1173484,17.7646241 22.4912118,18.0239797 21.8877086,18.3301586 C20.8054966,18.8949125 20.0907111,19.9775001 19.9964657,21.1945654 C19.872525,22.746119 20.6069883,23.824862 21.9427934,24.5088309 C22.5900391,24.8531106 23.2923697,25.0688591 23.9947002,25.3534637 L23.9947002,29.3516981 C22.9910966,29.2499943 22.1715348,28.5049382 21.9749262,27.5155399 C21.9327336,27.2498875 21.7839411,27.0129654 21.5629734,26.8595878 C21.3420057,26.7062102 21.068009,26.649667 20.8043753,26.7030399 C20.5378831,26.7508689 20.301757,26.9037025 20.1489925,27.1272393 C19.996228,27.3507761 19.9396206,27.6262925 19.9918753,27.8919524 C20.146529,29.0991429 20.8892242,30.1512944 21.9749262,30.7012744 C22.6326992,31.0185044 23.3069136,31.3004486 23.9947002,31.5459071 C23.9947002,31.8167405 23.9947002,32.1747913 23.9947002,32.5374326 C23.9947002,33.0901073 24.4427316,33.5381388 24.9954064,33.5381388 C25.5480811,33.5381388 25.9961126,33.0901073 25.9961126,32.5374326 C26.0142087,32.2669015 26.0142087,31.9954636 25.9961126,31.7249326 C25.9794717,31.6392461 26.0024229,31.5506277 26.0585655,31.4837913 C26.114708,31.4169549 26.1980348,31.379052 26.2853075,31.3806529 C27.3388879,31.1866316 28.3034577,30.6625487 29.0395448,29.884184 C29.7525847,29.1816428 30.1120744,28.1958034 30.0186408,27.1991789 C29.9252073,26.2025545 29.3887473,25.3007103 28.5575532,24.7429411 L28.5621436,24.7567123 Z" id="Shape"></path>
            </g>
        </g>
    </g>
</svg>