<?xml version="1.0" encoding="UTF-8"?>
<svg width="148px" height="99px" viewBox="0 0 148 99" version="1.1" xmlns="http://www.w3.org/2000/svg" xmlns:xlink="http://www.w3.org/1999/xlink">
    <!-- Generator: Sketch 53.1 (72631) - https://sketchapp.com -->
    <title>Group 2</title>
    <desc>Created with Sketch.</desc>
    <g id="320" stroke="none" stroke-width="1" fill="none" fill-rule="evenodd">
        <g id="Transferir-dale-2" transform="translate(-86.000000, -102.000000)">
            <g id="Group-2" transform="translate(86.000000, 102.000000)">
                <g id="Group-17" transform="translate(13.000000, 12.000000)" fill-rule="nonzero">
                    <path d="M82.9297521,15.538537 C94.5268574,15.538537 103.916772,24.9139524 103.916772,36.4931507 L119.479339,36.4931507 C119.479339,16.3416105 103.112456,0 82.9297521,0 C62.7470478,0 46.3801653,16.3416105 46.3801653,36.4931507 L61.9427324,36.4931507 C61.9427324,24.9139524 71.3326467,15.538537 82.9297521,15.538537 Z" id="Shape" fill="#FA2C46"></path>
                    <ellipse id="Oval" fill="#5FD0D6" cx="35.0371901" cy="38.7739726" rx="35.0371901" ry="35.2260274"></ellipse>
                    <ellipse id="Oval" fill="#000132" cx="35.0371901" cy="38.7739726" rx="18.9049587" ry="19.0068493"></ellipse>
                    <ellipse id="Oval" fill="#F5BD41" cx="34.785124" cy="39.0273973" rx="6.55371901" ry="6.5890411"></ellipse>
                    <polygon id="Shape" fill="#F5BD41" points="83.6859504 34.4657534 83.6859504 51.1917808 68.0578512 51.1917808"></polygon>
                    <polygon id="Shape" fill="#5FD0D6" points="98.8099174 34.4657534 98.8099174 51.1917808 83.1818182 51.1917808"></polygon>
                    <polygon id="Shape" fill="#E6434D" points="83.6859504 50.6849315 83.6859504 67.4109589 68.0578512 67.4109589"></polygon>
                    <polygon id="Shape" fill="#5FD0D6" points="98.8099174 50.6849315 98.8099174 67.4109589 83.1818182 67.4109589"></polygon>
                    <polygon id="Rectangle-path" fill="#F5BD41" points="103.347107 34.4657534 122 34.4657534 122 39.0273973 103.347107 39.0273973"></polygon>
                </g>
                <path d="M85.8178574,16.2996476 C76.3498574,15.972028 67.3310002,12.911958 58.7184288,9.57401166 C50.1058574,6.23606533 41.5755716,2.52075611 32.3338574,0.747150514 C26.3887145,-0.393514597 19.5915716,-0.55475147 14.8001431,2.63396498 C10.1921431,5.70261142 8.70242878,11.0011295 7.90185735,15.9154236 C7.29842878,19.6135799 6.94528592,23.5072789 8.59614307,26.9687258 C9.74128592,29.370126 11.7761431,31.3924481 13.1835716,33.6943617 C18.0795716,41.7064621 14.6184288,51.5847935 9.31271449,59.4064971 C6.82357164,63.0669171 3.93500021,66.5678156 2.01671449,70.4666604 C0.0984287799,74.3655052 -0.792999791,78.8492625 0.887000209,82.8321563 C2.55328592,86.7773139 6.52185735,89.748189 10.8298574,91.8356919 C19.5641431,96.0724481 29.8584288,97.2851552 39.8887145,97.9729848 C62.1024288,99.4927281 84.4344288,98.8306278 106.708143,98.1753886 C114.950429,97.931818 123.228714,97.6848168 131.337286,96.4086441 C135.840714,95.700231 140.489857,94.5767188 143.759,91.8631365 C147.909286,88.4188425 148.937857,82.5851552 146.159,78.2660653 C141.494429,71.0206978 128.596143,69.2213629 125.337286,61.445972 C123.542429,57.1663337 125.385286,52.397839 127.992714,48.4286674 C133.588143,39.9139883 142.965286,32.4439183 143.459,22.7113862 C143.801857,16.0217713 139.289857,9.33215635 132.316143,6.16916918 C125.009857,2.85352158 114.880143,3.27033604 109.488714,8.75925086 C103.932714,14.4162637 94.1784288,16.5912462 85.8178574,16.2996476 Z" id="Path" fill="#FA2C46" opacity="0.1"></path>
            </g>
        </g>
    </g>
</svg>