<?xml version="1.0" encoding="UTF-8"?>
<svg width="224px" height="177px" viewBox="0 0 224 177" version="1.1" xmlns="http://www.w3.org/2000/svg" xmlns:xlink="http://www.w3.org/1999/xlink">
    <!-- Generator: Sketch 53.1 (72631) - https://sketchapp.com -->
    <title>Group 2</title>
    <desc>Created with Sketch.</desc>
    <defs>
        <linearGradient x1="50.0366418%" y1="100.01391%" x2="50.0366418%" y2="-0.00325046985%" id="linearGradient-1">
            <stop stop-color="#808080" stop-opacity="0.25" offset="0%"></stop>
            <stop stop-color="#808080" stop-opacity="0.12" offset="54%"></stop>
            <stop stop-color="#808080" stop-opacity="0.1" offset="100%"></stop>
        </linearGradient>
        <linearGradient x1="50%" y1="58%" x2="50%" y2="42%" id="linearGradient-2">
            <stop stop-color="#808080" stop-opacity="0.25" offset="0%"></stop>
            <stop stop-color="#808080" stop-opacity="0.12" offset="54%"></stop>
            <stop stop-color="#808080" stop-opacity="0.1" offset="100%"></stop>
        </linearGradient>
        <linearGradient x1="50.1133825%" y1="99.9786495%" x2="50.1133825%" y2="0.34848182%" id="linearGradient-3">
            <stop stop-color="#808080" stop-opacity="0.25" offset="0%"></stop>
            <stop stop-color="#808080" stop-opacity="0.12" offset="54%"></stop>
            <stop stop-color="#808080" stop-opacity="0.1" offset="100%"></stop>
        </linearGradient>
        <linearGradient x1="49.9915974%" y1="99.9808511%" x2="49.9915974%" y2="-0.00714750836%" id="linearGradient-4">
            <stop stop-color="#808080" stop-opacity="0.25" offset="0%"></stop>
            <stop stop-color="#808080" stop-opacity="0.12" offset="54%"></stop>
            <stop stop-color="#808080" stop-opacity="0.1" offset="100%"></stop>
        </linearGradient>
    </defs>
    <g id="320" stroke="none" stroke-width="1" fill="none" fill-rule="evenodd">
        <g id="Cobrar-a-dale" transform="translate(-48.000000, -76.000000)">
            <g id="Group-2" transform="translate(48.000000, 76.000000)">
                <g id="undraw_btc_p2p_lth5">
                    <path d="M57.0704016,20.5992969 C54.2652111,22.0581641 51.4554068,23.895 50.0274356,26.7136328 C48.9777961,28.7878516 48.7863234,31.1662891 48.6133059,33.4801953 L46.5370958,61.1041797 C46.0757158,67.26 45.5705046,73.5863672 42.8806591,79.1452734 C38.2460968,88.72125 28.1557158,94.1856641 20.5798558,101.657461 C8.16642636,113.902266 2.83748713,134.543047 12.1596704,149.274609 C16.2722434,155.713958 22.6254127,160.404275 29.9943151,162.441289 C34.3174459,163.61668 38.8343563,163.824102 43.3097425,164.024609 C80.7968692,165.648646 118.309372,166.300104 155.84725,165.978984 C160.304181,165.939805 164.883378,165.86375 168.996581,164.172109 C174.678476,161.837461 178.761689,156.698008 181.5738,151.240508 C184.385911,145.783008 186.1876,139.857656 188.847456,134.326406 C194.29174,123.033438 203.150237,113.828516 210.869125,103.957539 C215.125355,98.5184766 219.109372,92.7544531 221.49932,86.2782813 C225.298785,75.9855469 224.634398,63.8790234 218.696437,54.64875 C216.131164,50.6593359 212.638517,47.2046094 210.892194,42.7957422 C208.4538,36.6307031 209.814871,29.7258594 210.39621,23.1229297 C210.977549,16.52 210.340844,8.98136719 205.25413,4.72460937 C202.446632,2.37613281 198.727909,1.44964844 195.103769,0.919570312 C177.753574,-1.61558594 160.32725,3.40171875 143.122389,6.785 C127.94068,9.78109375 112.549042,11.4957812 97.1481771,12.8624609 C83.4774871,14.0793359 69.5461174,14.1116016 57.0704016,20.5992969 Z" id="Path" fill-opacity="0.2" fill="#5FD0D6"></path>
                    <path d="M51.1947271,149.389844 C51.1947271,149.389844 44.4793409,126.612617 52.4542945,109.84832 C55.8016066,102.812109 56.9135324,94.9139453 55.3656025,87.2785156 C54.6264036,83.6544557 53.5561352,80.1057452 52.1682389,76.6769531" id="Path" stroke="#535461" stroke-width="1.4000001"></path>
                    <path d="M57.1280742,66.0938281 C57.1280742,68.8848047 52.0690422,76.9788672 52.0690422,76.9788672 C52.0690422,76.9788672 47.0100103,68.8848047 47.0100103,66.0938281 C47.0100103,63.3024818 49.275016,61.0396484 52.0690422,61.0396484 C54.8630684,61.0396484 57.1280742,63.3024818 57.1280742,66.0938281 Z" id="Path" fill="#6C63FF"></path>
                    <path d="M65.490587,81.5467578 C63.9726468,83.890625 55.3217714,87.9376563 55.3217714,87.9376563 C55.3217714,87.9376563 55.4786406,78.39625 56.9965808,76.0523828 C57.9789986,74.53653 59.6962644,73.6594352 61.5015007,73.7514916 C63.3067369,73.8435479 64.9256854,74.8907699 65.7485038,76.4986791 C66.5713222,78.1065883 66.4730049,80.030905 65.490587,81.5467578 Z" id="Path" fill="#6C63FF"></path>
                    <path d="M65.1260968,107.976914 C62.6323378,109.232969 53.1302163,108.366406 53.1302163,108.366406 C53.1302163,108.366406 58.0715963,100.214727 60.5699691,98.9517578 C63.0603596,97.7226526 66.0769177,98.7294418 67.3277512,101.207197 C68.5785846,103.684951 67.5958038,106.706837 65.1260968,107.976914 L65.1260968,107.976914 Z" id="Path" fill="#6C63FF"></path>
                    <path d="M60.3438929,127.905547 C58.0969722,129.564922 48.5787024,130.31625 48.5787024,130.31625 C48.5787024,130.31625 52.0851905,121.438594 54.3298043,119.779219 C55.781487,118.679917 57.7126417,118.445173 59.3858305,119.164627 C61.0590192,119.88408 62.2158695,121.446635 62.4146222,123.255607 C62.6133749,125.064579 61.8233387,126.840629 60.3461998,127.905547 L60.3438929,127.905547 Z" id="Path" fill="#6C63FF"></path>
                    <path d="M44.6915757,88.4861719 C46.6962719,90.4313281 56.0322966,92.445625 56.0322966,92.445625 C56.0322966,92.445625 53.7461586,83.1807813 51.7414624,81.235625 C49.734575,79.3086364 46.5464946,79.3633265 44.6070111,81.3580133 C42.6675276,83.3527002 42.7053158,86.5379686 44.6915757,88.4861719 L44.6915757,88.4861719 Z" id="Path" fill="#6C63FF"></path>
                    <path d="M39.4018538,111.864922 C41.8956128,113.120977 51.3977343,112.254414 51.3977343,112.254414 C51.3977343,112.254414 46.440206,104.09582 43.946447,102.839766 C42.3305785,102.008786 40.3927177,102.107554 38.8698869,103.098505 C37.3470562,104.089457 36.4732798,105.820306 36.5808791,107.632762 C36.6884785,109.445218 37.7609181,111.060749 39.3903193,111.864922 L39.4018538,111.864922 Z" id="Path" fill="#6C63FF"></path>
                    <path d="M37.3740886,135.294375 C39.6210093,136.95375 49.1392791,137.705078 49.1392791,137.705078 C49.1392791,137.705078 45.6327909,128.827422 43.3881771,127.168047 C41.1412788,125.548184 38.0081339,126.035452 36.3604259,128.261006 C34.7127178,130.486561 35.1636052,133.62221 37.3717817,135.294375 L37.3740886,135.294375 Z" id="Path" fill="#6C63FF"></path>
                    <path d="M57.1280742,66.0938281 C57.1280742,68.8848047 52.0690422,76.9788672 52.0690422,76.9788672 C52.0690422,76.9788672 47.0100103,68.8848047 47.0100103,66.0938281 C47.0100103,63.3024818 49.275016,61.0396484 52.0690422,61.0396484 C54.8630684,61.0396484 57.1280742,63.3024818 57.1280742,66.0938281 Z" id="Path" fill="#FA2C46"></path>
                    <path d="M65.490587,81.5467578 C63.9726468,83.890625 55.3217714,87.9376563 55.3217714,87.9376563 C55.3217714,87.9376563 55.4786406,78.39625 56.9965808,76.0523828 C57.9789986,74.53653 59.6962644,73.6594352 61.5015007,73.7514916 C63.3067369,73.8435479 64.9256854,74.8907699 65.7485038,76.4986791 C66.5713222,78.1065883 66.4730049,80.030905 65.490587,81.5467578 Z" id="Path" fill="#FA2C46"></path>
                    <path d="M65.1260968,107.976914 C62.6323378,109.232969 53.1302163,108.366406 53.1302163,108.366406 C53.1302163,108.366406 58.0715963,100.214727 60.5699691,98.9517578 C63.0603596,97.7226526 66.0769177,98.7294418 67.3277512,101.207197 C68.5785846,103.684951 67.5958038,106.706837 65.1260968,107.976914 L65.1260968,107.976914 Z" id="Path" fill="#FA2C46"></path>
                    <path d="M60.3438929,127.905547 C58.0969722,129.564922 48.5787024,130.31625 48.5787024,130.31625 C48.5787024,130.31625 52.0851905,121.438594 54.3298043,119.779219 C55.781487,118.679917 57.7126417,118.445173 59.3858305,119.164627 C61.0590192,119.88408 62.2158695,121.446635 62.4146222,123.255607 C62.6133749,125.064579 61.8233387,126.840629 60.3461998,127.905547 L60.3438929,127.905547 Z" id="Path" fill="#FA2C46"></path>
                    <path d="M44.6915757,88.4861719 C46.6962719,90.4313281 56.0322966,92.445625 56.0322966,92.445625 C56.0322966,92.445625 53.7461586,83.1807813 51.7414624,81.235625 C49.734575,79.3086364 46.5464946,79.3633265 44.6070111,81.3580133 C42.6675276,83.3527002 42.7053158,86.5379686 44.6915757,88.4861719 L44.6915757,88.4861719 Z" id="Path" fill="#FA2C46"></path>
                    <path d="M39.4018538,111.864922 C41.8956128,113.120977 51.3977343,112.254414 51.3977343,112.254414 C51.3977343,112.254414 46.440206,104.09582 43.946447,102.839766 C42.3305785,102.008786 40.3927177,102.107554 38.8698869,103.098505 C37.3470562,104.089457 36.4732798,105.820306 36.5808791,107.632762 C36.6884785,109.445218 37.7609181,111.060749 39.3903193,111.864922 L39.4018538,111.864922 Z" id="Path" fill="#FA2C46"></path>
                    <path d="M37.3740886,135.294375 C39.6210093,136.95375 49.1392791,137.705078 49.1392791,137.705078 C49.1392791,137.705078 45.6327909,128.827422 43.3881771,127.168047 C41.1412788,125.548184 38.0081339,126.035452 36.3604259,128.261006 C34.7127178,130.486561 35.1636052,133.62221 37.3717817,135.294375 L37.3740886,135.294375 Z" id="Path" fill="#FA2C46"></path>
                    <path d="M180.007415,137.142734 C180.007415,137.142734 173.292029,114.367813 181.260062,97.6035156 C184.607374,90.5673047 185.7193,82.6691406 184.17137,75.0337109 C183.432171,71.409651 182.361902,67.8609405 180.974006,64.4321484" id="Path" stroke="#535461" stroke-width="1.4000001"></path>
                    <path d="M185.940762,53.8467187 C185.940762,56.6376953 180.88173,64.7317578 180.88173,64.7317578 C180.88173,64.7317578 175.822698,56.6376953 175.822698,53.8467187 C175.822698,51.0553724 178.087704,48.7925391 180.88173,48.7925391 C183.675756,48.7925391 185.940762,51.0553724 185.940762,53.8467187 Z" id="Path" fill="#6C63FF"></path>
                    <path d="M194.303275,69.3088672 C192.785335,71.6527344 184.134459,75.6997656 184.134459,75.6997656 C184.134459,75.6997656 184.291329,66.1583594 185.809269,63.8144922 C186.791687,62.2986394 188.508952,61.4215446 190.314189,61.513601 C192.119425,61.6056573 193.738373,62.6528793 194.561192,64.2607885 C195.38401,65.8686977 195.285693,67.7930144 194.303275,69.3088672 L194.303275,69.3088672 Z" id="Path" fill="#6C63FF"></path>
                    <path d="M193.948012,95.7298047 C191.454253,96.9858594 181.952132,96.1192969 181.952132,96.1192969 C181.952132,96.1192969 186.90966,87.9607031 189.403419,86.7046484 C191.025339,85.8211775 193.00032,85.8911547 194.555516,86.8871967 C196.110713,87.8832387 196.998832,89.6469634 196.872336,91.4881938 C196.74584,93.3294242 195.624844,94.9553835 193.948012,95.7298047 Z" id="Path" fill="#6C63FF"></path>
                    <path d="M189.156581,115.656133 C186.90966,117.315508 177.39139,118.066836 177.39139,118.066836 C177.39139,118.066836 180.897878,109.18918 183.142492,107.529805 C184.593099,106.412269 186.535075,106.165434 188.219569,106.884484 C189.904063,107.603533 191.067899,109.176126 191.262287,110.995851 C191.456675,112.815576 190.651245,114.598128 189.156581,115.656133 L189.156581,115.656133 Z" id="Path" fill="#6C63FF"></path>
                    <path d="M173.511184,76.2459766 C175.515881,78.1911328 184.851905,80.2054297 184.851905,80.2054297 C184.851905,80.2054297 182.565767,70.9451953 180.567992,68.9885156 C179.270327,67.7291474 177.398725,67.2570754 175.6582,67.7501244 C173.917676,68.2431734 172.572656,69.6264377 172.129796,71.3788549 C171.686937,73.1312721 172.213519,74.9866084 173.511184,76.2459766 Z" id="Path" fill="#6C63FF"></path>
                    <path d="M168.214542,99.6178125 C170.708301,100.873867 180.210422,100.007305 180.210422,100.007305 C180.210422,100.007305 175.262122,91.8487109 172.770669,90.5926562 C171.154801,89.7616763 169.21694,89.8604443 167.694109,90.8513961 C166.171279,91.8423478 165.297502,93.5731968 165.405102,95.3856529 C165.512701,97.198109 166.585141,98.8136392 168.214542,99.6178125 L168.214542,99.6178125 Z" id="Path" fill="#6C63FF"></path>
                    <path d="M166.186777,123.047266 C168.433697,124.706641 177.951967,125.457969 177.951967,125.457969 C177.951967,125.457969 174.445479,116.580312 172.200865,114.920937 C169.953967,113.301074 166.820822,113.788342 165.173114,116.013897 C163.525406,118.239452 163.976293,121.375101 166.18447,123.047266 L166.186777,123.047266 Z" id="Path" fill="#6C63FF"></path>
                    <path d="M185.940762,53.8467187 C185.940762,56.6376953 180.88173,64.7317578 180.88173,64.7317578 C180.88173,64.7317578 175.822698,56.6376953 175.822698,53.8467187 C175.822698,51.0553724 178.087704,48.7925391 180.88173,48.7925391 C183.675756,48.7925391 185.940762,51.0553724 185.940762,53.8467187 Z" id="Path" fill="#F5BD41"></path>
                    <path d="M194.303275,69.3088672 C192.785335,71.6527344 184.134459,75.6997656 184.134459,75.6997656 C184.134459,75.6997656 184.291329,66.1583594 185.809269,63.8144922 C186.791687,62.2986394 188.508952,61.4215446 190.314189,61.513601 C192.119425,61.6056573 193.738373,62.6528793 194.561192,64.2607885 C195.38401,65.8686977 195.285693,67.7930144 194.303275,69.3088672 L194.303275,69.3088672 Z" id="Path" fill="#F5BD41"></path>
                    <path d="M193.948012,95.7298047 C191.454253,96.9858594 181.952132,96.1192969 181.952132,96.1192969 C181.952132,96.1192969 186.90966,87.9607031 189.403419,86.7046484 C191.025339,85.8211775 193.00032,85.8911547 194.555516,86.8871967 C196.110713,87.8832387 196.998832,89.6469634 196.872336,91.4881938 C196.74584,93.3294242 195.624844,94.9553835 193.948012,95.7298047 Z" id="Path" fill="#F5BD41"></path>
                    <path d="M189.156581,115.656133 C186.90966,117.315508 177.39139,118.066836 177.39139,118.066836 C177.39139,118.066836 180.897878,109.18918 183.142492,107.529805 C184.593099,106.412269 186.535075,106.165434 188.219569,106.884484 C189.904063,107.603533 191.067899,109.176126 191.262287,110.995851 C191.456675,112.815576 190.651245,114.598128 189.156581,115.656133 L189.156581,115.656133 Z" id="Path" fill="#F5BD41"></path>
                    <path d="M173.511184,76.2459766 C175.515881,78.1911328 184.851905,80.2054297 184.851905,80.2054297 C184.851905,80.2054297 182.565767,70.9451953 180.567992,68.9885156 C179.270327,67.7291474 177.398725,67.2570754 175.6582,67.7501244 C173.917676,68.2431734 172.572656,69.6264377 172.129796,71.3788549 C171.686937,73.1312721 172.213519,74.9866084 173.511184,76.2459766 Z" id="Path" fill="#F5BD41"></path>
                    <path d="M168.214542,99.6178125 C170.708301,100.873867 180.210422,100.007305 180.210422,100.007305 C180.210422,100.007305 175.262122,91.8487109 172.770669,90.5926562 C171.154801,89.7616763 169.21694,89.8604443 167.694109,90.8513961 C166.171279,91.8423478 165.297502,93.5731968 165.405102,95.3856529 C165.512701,97.198109 166.585141,98.8136392 168.214542,99.6178125 L168.214542,99.6178125 Z" id="Path" fill="#F5BD41"></path>
                    <path d="M166.186777,123.047266 C168.433697,124.706641 177.951967,125.457969 177.951967,125.457969 C177.951967,125.457969 174.445479,116.580312 172.200865,114.920937 C169.953967,113.301074 166.820822,113.788342 165.173114,116.013897 C163.525406,118.239452 163.976293,121.375101 166.18447,123.047266 L166.186777,123.047266 Z" id="Path" fill="#F5BD41"></path>
                    <g id="Group" opacity="0.1" transform="translate(0.230690, 176.078125)" fill="#00FFFF">
                        <path d="M0.200700309,0.883333333 C2.76135942,-0.45 0.514438723,0.636666667 0.0715139032,0.85 C0.112613654,0.873412994 0.156532606,0.884745185 0.200700309,0.883333333 L0.200700309,0.883333333 Z" id="Path"></path>
                    </g>
                    <g id="Group" opacity="0.1" transform="translate(0.000000, 176.539062)" fill="#00FFFF">
                        <polygon id="Path" points="0.655 0.27 0.505 0.225 0.505 0.325"></polygon>
                    </g>
                    <path d="M176.018785,147.848008 C176.018785,147.820352 176.018785,147.790391 176.034933,147.76043 C176.051081,147.730469 176.034933,147.744297 176.034933,147.737383 C176.039612,147.67986 176.039612,147.622054 176.034933,147.564531 C176.034933,147.564531 175.725808,146.972227 175.365932,146.158672 L175.365932,146.158672 C174.874562,145.040898 174.290917,143.503672 174.290917,142.496523 C174.290917,142.496523 168.899691,123.648789 165.254789,121.590703 C165.254789,121.590703 162.255819,116.255352 162.288115,113.252344 C162.292377,112.292638 162.215204,111.334299 162.057425,110.387617 C161.524531,107.075781 160.636375,100.735586 161.448404,99.5763281 C162.479588,98.1036328 164.198229,91.6966016 160.094253,86.8590625 L160.814006,86.7484375 C160.814006,86.7484375 160.774789,86.7000391 160.710196,86.6055469 L160.814006,86.5894141 C160.814006,86.5894141 159.226859,84.6857422 159.226859,80.4796875 C159.249928,78.0574609 159.796663,74.893125 161.448404,70.9083203 C161.66679,70.3797786 161.866722,69.8566146 162.048198,69.3388281 C162.816945,68.9571087 163.518222,68.4526733 164.124408,67.8453906 L164.198229,67.7693359 L164.283584,67.6886719 C165.799217,66.1675781 166.717364,64.1486719 167.356375,62.0998047 C167.94301,60.2166336 168.318263,58.2741427 168.475221,56.308125 C168.645932,54.1716797 168.555963,52.0260156 168.475221,49.8849609 C168.371411,47.3866797 168.244531,44.8146484 167.243337,42.5353125 C166.848857,41.6433984 166.320577,40.7998828 166.078352,39.8549609 C165.943862,39.2062052 165.85063,38.5495917 165.799217,37.8890625 C165.469331,35.3008984 164.24206,32.7910937 162.230443,31.1294141 C160.218826,29.4677344 157.406715,28.7279297 154.889887,29.4239453 C153.450381,29.8226562 152.165438,30.6477344 150.968157,31.5511719 C150.455216,31.9373273 149.971031,32.3601979 149.519423,32.8164453 C148.072997,34.2338281 146.981833,36.0914062 148.029166,38.0434766 C148.106062,38.1848307 148.188342,38.323112 148.276004,38.4583203 C147.15648,40.2428637 146.884432,42.4307456 147.532883,44.4347027 C148.181334,46.4386598 149.68386,48.053417 151.637158,48.8455469 L151.824016,49.1728125 L151.844779,49.1728125 C152.391514,50.1822656 152.986694,51.4429297 153.143563,52.399375 C152.458731,52.8867927 151.838601,53.4590883 151.298043,54.1025391 C149.431761,56.3265625 148.409804,57.8361328 147.851535,58.8202344 C147.323617,59.7321384 146.711137,60.592492 146.022163,61.3899609 C145.17553,62.3901953 144.176643,64.3422656 144.176643,67.9744531 C144.176643,68.2402604 144.176643,68.5160547 144.176643,68.8018359 C139.708177,73.6624219 122.281854,70.099375 122.281854,70.099375 C120.182575,69.2835156 117.739567,70.2676172 116.595345,70.8460937 C116.405945,70.9391116 116.269381,71.1133857 116.224455,71.3193986 C116.179529,71.5254116 116.231151,71.7406456 116.364655,71.9039453 C118.210175,74.1256641 122.750154,72.7935547 122.750154,72.7935547 C122.750154,72.7935547 139.078393,75.6444531 140.347188,76.5939844 C141.209969,77.2416016 142.73483,76.7138281 143.62068,76.3105078 L143.438435,76.515625 L143.669125,76.4026953 L142.414171,87.6795312 L142.432626,87.6795312 L142.414171,87.8385547 C142.414171,87.8385547 142.70484,87.8132031 143.168527,87.7809375 L143.556087,88.7834766 L143.52379,88.7834766 L143.925191,89.7330078 L143.925191,89.7330078 L144.255077,90.5142969 C143.270031,94.0727344 139.299856,108.721328 139.717405,112.06543 C139.717405,112.06543 137.179815,118.082969 138.132564,121.410937 C138.132564,121.410937 134.644531,146.435234 132.425294,147.702812 L132.736725,147.843398 C130.367539,149.19625 125.207003,151.740625 121.645149,150.553711 C121.645149,150.553711 119.425911,151.1875 122.913944,153.404609 C122.913944,153.404609 137.182122,157.205039 139.085314,155.939766 L138.769269,150.461523 L138.930752,150.519141 C138.953821,150.210312 139.161442,147.944805 140.038064,146.912305 C140.038064,146.912305 145.745335,131.390234 145.429289,123.471328 L150.755922,110.611172 C151.332647,112.086172 151.943975,113.337617 152.562225,114.128125 L154.781462,119.829922 L158.428671,124.582187 C158.428671,124.582187 169.843213,142.637109 169.040412,148.023164 L169.308012,148.09 C168.239918,149.989062 165.582369,153.88168 161.745994,153.88168 C161.745994,153.88168 158.417137,157.366367 164.599629,156.891602 C164.599629,156.891602 172.366962,156.416836 178.074233,153.247891 L176.018785,147.848008 Z" id="Path" fill="url(#linearGradient-1)"></path>
                    <path d="M135.564985,146.384531 C135.564985,146.384531 128.226735,151.272773 123.640618,149.744766 C123.640618,149.744766 121.499815,150.355508 124.863275,152.494258 C124.863275,152.494258 138.623934,156.161016 140.45792,154.937227 L139.99654,146.995273 L135.564985,146.384531 Z" id="Path" fill="#333333"></path>
                    <path d="M170.117734,146.384531 C170.117734,146.384531 167.213347,152.952891 162.320412,152.952891 C162.320412,152.952891 159.109207,156.313125 165.072544,155.854492 C165.072544,155.854492 172.563048,155.393555 178.067312,152.342148 L175.435139,145.488008 L170.117734,146.384531 Z" id="Path" fill="#333333"></path>
                    <polygon id="Path" fill="#FDB797" points="143.973635 88.1128125 145.127085 91.0927734 152.612976 90.5580859 151.847085 85.5177344"></polygon>
                    <path d="M145.655366,91.0927734 C145.655366,91.0927734 140.610175,108.972539 141.069248,112.630078 C141.069248,112.630078 138.623934,118.433281 139.539773,121.641406 C139.539773,121.641406 136.176313,145.773789 134.03551,146.992969 C134.03551,146.992969 140.26414,149.809297 140.455613,149.742461 C142.596416,148.979609 140.303357,149.742461 140.303357,149.742461 C140.303357,149.742461 140.455613,147.299492 141.373759,146.230117 C141.373759,146.230117 146.878023,131.261172 146.571205,123.625742 L153.909454,105.907305 L145.655366,91.0927734 Z" id="Path" fill="#252A62"></path>
                    <path d="M145.655366,91.0927734 C145.655366,91.0927734 140.610175,108.972539 141.069248,112.630078 C141.069248,112.630078 138.623934,118.433281 139.539773,121.641406 C139.539773,121.641406 136.176313,145.773789 134.03551,146.992969 C134.03551,146.992969 140.26414,149.809297 140.455613,149.742461 C142.596416,148.979609 140.303357,149.742461 140.303357,149.742461 C140.303357,149.742461 140.455613,147.299492 141.373759,146.230117 C141.373759,146.230117 146.878023,131.261172 146.571205,123.625742 L153.909454,105.907305 L145.655366,91.0927734 Z" id="Path" fill="#000000" opacity="0.1"></path>
                    <path d="M144.739526,90.1755078 L148.102987,98.1174609 C148.102987,98.1174609 150.702863,111.099766 153.454995,114.612109 L155.595798,120.111094 L159.113821,124.695117 C159.113821,124.695117 170.122348,142.107031 169.356457,147.299492 C169.356457,147.299492 176.235633,149.143242 176.083378,146.838555 C176.083378,146.838555 174.401648,143.63043 174.401648,141.950312 C174.401648,141.950312 169.204202,123.775547 165.686179,121.788906 C165.686179,121.788906 162.79794,116.642539 162.825623,113.747852 C162.82719,112.821116 162.750016,111.89592 162.594933,110.982227 C162.080494,107.78793 161.224634,101.675898 162.00898,100.558125 C163.079382,99.0301172 164.913368,92.0054297 159.715922,87.2692969 L144.739526,90.1755078 Z" id="Path" fill="#000035"></path>
                    <path d="M176.078764,146.843164 C176.078764,146.843164 174.397034,143.635039 174.397034,141.954922 C174.397034,141.954922 169.199588,123.780156 165.681565,121.793516 C165.681565,121.793516 162.793326,116.647148 162.821009,113.752461 C162.822576,112.825726 162.745402,111.90053 162.590319,110.986836 C162.075881,107.792539 161.220021,101.680508 162.004367,100.562734 C163.074768,99.0347266 164.908754,92.0100391 159.711308,87.2739062 L158.825458,87.4467578 C163.794521,92.1782812 161.992832,99.0531641 160.936272,100.562734 C159.879712,102.072305 161.859032,112.934297 161.859032,112.934297 C161.095448,115.53168 164.611164,121.793516 164.611164,121.793516 C168.12688,123.780156 173.326632,141.954922 173.326632,141.954922 C173.326632,143.635039 175.008363,146.843164 175.008363,146.843164 C175.059114,147.599102 174.341668,147.905625 173.358929,147.97707 C174.839959,148.062344 176.147971,147.854922 176.078764,146.843164 Z" id="Path" fill="#000000" opacity="0.1"></path>
                    <path d="M151.770958,50.3113281 C151.770958,50.3113281 154.675345,54.7409375 153.911761,56.1145312 L161.402266,54.2707812 C161.402266,54.2707812 159.413718,52.1320313 159.872791,46.9395703 L151.770958,50.3113281 Z" id="Path" fill="#F5BD41"></path>
                    <path d="M162.472667,53.5194531 C162.472667,53.5194531 156.20482,52.1366406 152.230031,56.8796875 C150.430649,59.0230469 149.445602,60.4796094 148.905788,61.4291406 C148.397203,62.3082718 147.807123,63.137758 147.143316,63.9066797 C146.149042,65.0797656 144.930999,67.6080078 145.50311,72.7635937 L143.65759,89.2582422 C143.65759,89.2582422 149.009598,88.7973047 150.384511,89.2582422 C151.759423,89.7191797 161.393038,88.1888672 161.393038,88.1888672 C161.393038,88.1888672 157.570505,83.6071484 162.004367,72.9157031 C166.438229,62.2242578 162.472667,53.5194531 162.472667,53.5194531 Z" id="Path" fill="#000000" opacity="0.1"></path>
                    <path d="M162.472667,53.3673437 C162.472667,53.3673437 156.20482,51.9845312 152.230031,56.7275781 C150.430649,58.8709375 149.445602,60.3275 148.905788,61.2770312 C148.397203,62.1561625 147.807123,62.9856486 147.143316,63.7545703 C146.149042,64.9276562 144.930999,67.4558984 145.50311,72.6114844 L143.65759,89.1061328 C143.65759,89.1061328 149.009598,88.6451953 150.384511,89.1061328 C151.759423,89.5670703 161.393038,88.0367578 161.393038,88.0367578 C161.393038,88.0367578 157.570505,83.4550391 162.004367,72.7635937 C166.438229,62.0721484 162.472667,53.3673437 162.472667,53.3673437 Z" id="Path" fill="#FA2C46"></path>
                    <path d="M154.906035,67.4881641 C154.906035,67.4881641 148.942698,76.0477734 146.19518,77.5757812 L144.665705,78.3386328 C144.665705,78.3386328 154.294706,67.4881641 154.906035,67.4881641 Z" id="Path" fill="#000000" opacity="0.1"></path>
                    <path d="M149.325644,63.1415234 C149.325644,63.1415234 153.247374,61.5996875 154.929104,66.7114844 C155.068505,67.1340242 154.967858,67.5988504 154.666117,67.9260547 L145.50311,77.8039453 C145.50311,77.8039453 142.903234,79.3319531 141.680577,78.4146875 C140.45792,77.4974219 124.71102,74.7479297 124.71102,74.7479297 C124.71102,74.7479297 120.339444,76.0316406 118.553903,73.8905859 C118.423132,73.7349667 118.37121,73.5279357 118.413087,73.3291007 C118.454963,73.1302656 118.585991,72.9616916 118.768445,72.8719141 C119.621998,72.4409375 121.045355,72.6898437 122.724779,72.4824219 C124.014087,72.3286206 125.318593,72.3557717 126.600371,72.5630859 C131.843955,73.3835547 144.197405,74.7387109 146.114439,69.7075781 C148.559753,63.2959375 149.325644,63.1415234 149.325644,63.1415234 Z" id="Path" fill="#F5BD41"></path>
                    <path d="M149.249516,63.2175781 C149.249516,63.2175781 153.987889,62.4547266 155.05829,67.1885547 L155.05829,66.8820312 C155.05829,66.8820312 153.683378,61.691875 149.249516,63.2175781 Z" id="Path" fill="#000000" opacity="0.1"></path>
                    <path d="M160.036581,47.2576172 L151.923213,50.6178516 C151.923213,50.6178516 152.29001,51.1755859 152.726014,51.956875 C153.517281,52.2749219 154.610752,52.0698047 155.515057,52.0698047 C157.360577,52.0698047 158.710113,51.5835156 159.948919,50.3896875 C159.835881,49.4724219 159.914315,48.5228906 160.036581,47.2576172 Z" id="Path" fill="#000000" opacity="0.1"></path>
                    <ellipse id="Oval" fill="#F5BD41" cx="155.134418" cy="45.2709766" rx="6.87917611" ry="6.87257812"></ellipse>
                    <path d="M155.145953,44.3421875 C155.295901,44.8722656 154.855283,45.3631641 154.536931,45.8125781 C153.422698,47.3866797 153.628012,49.5300391 154.137837,51.3876172 C154.386982,52.2979687 154.7607,53.2659375 155.575036,53.7430078 C156.225582,54.1232812 157.026076,54.1071484 157.755057,54.2984375 C159.067683,54.6418359 160.128857,55.68125 160.754027,56.8773828 C161.379197,58.0735156 161.602966,59.4540234 161.676787,60.8091797 C161.899705,64.7289552 160.956571,68.6269779 158.966179,72.0122656 C161.007786,72.3602734 163.118599,71.4314844 164.583481,69.9633984 C166.048363,68.4953125 166.929598,66.5501562 167.545541,64.5750391 C168.111427,62.7593375 168.473527,60.8864169 168.62517,58.9907812 C168.78896,56.9303906 168.703605,54.8607812 168.62517,52.7957812 C168.525973,50.3873828 168.410628,47.9144531 167.437116,45.7088672 C167.056478,44.8469141 166.54896,44.0356641 166.313656,43.1230078 C166.183766,42.4978455 166.093617,41.865096 166.043749,41.2285547 C165.725396,38.7325781 164.541957,36.3126562 162.601854,34.7085937 C160.661751,33.1045312 157.951143,32.4039062 155.524284,33.0653516 C154.140144,33.4502344 152.899032,34.2453516 151.750196,35.1165234 C149.890834,36.5292969 147.756952,38.8040234 149.069578,41.2239453 C150.211493,43.3419531 152.735242,44.7201562 155.145953,44.3421875 Z" id="Path" fill="#000000" opacity="0.1"></path>
                    <path d="M155.298208,44.1900781 C155.448157,44.7201563 155.007539,45.2110547 154.689186,45.6604687 C153.574954,47.2345703 153.780268,49.3779297 154.290093,51.2355078 C154.539238,52.1458594 154.912956,53.1138281 155.727291,53.5908984 C156.377837,53.9711719 157.178332,53.9550391 157.907312,54.1463281 C159.219938,54.4897266 160.281112,55.5291406 160.906282,56.7252734 C161.531452,57.9214063 161.755221,59.3019141 161.829042,60.6570703 C162.051951,64.5796283 161.107155,68.4802886 159.113821,71.8670703 C161.155427,72.2150781 163.266241,71.2862891 164.731123,69.8182031 C166.196004,68.3501172 167.07724,66.4049609 167.693182,64.4298437 C168.259069,62.6141421 168.621169,60.7412216 168.772812,58.8455859 C168.936601,56.7851953 168.851246,54.7155859 168.772812,52.6505859 C168.673615,50.2421875 168.55827,47.7692578 167.584758,45.5636719 C167.204119,44.7017187 166.696601,43.8904687 166.461298,42.9778125 C166.331408,42.3526502 166.241259,41.7199007 166.19139,41.0833594 C165.873038,38.5873828 164.689598,36.1674609 162.749495,34.5633984 C160.809392,32.9593359 158.098785,32.2587109 155.671926,32.9201562 C154.287786,33.3050391 153.046674,34.1001562 151.897837,34.9713281 C150.038476,36.3841016 147.904593,38.6588281 149.217219,41.07875 C150.366056,43.1898437 152.885191,44.5680469 155.298208,44.1900781 Z" id="Path" fill="#000000"></path>
                    <path d="M155.976437,78.3386328 C155.976437,78.3386328 158.880824,78.3386328 159.951226,76.9558203" id="Path" fill="#000000" opacity="0.1"></path>
                    <path d="M155.976437,79.4080078 C155.976437,79.4080078 158.880824,79.4080078 159.951226,78.0251953" id="Path" fill="#000000" opacity="0.1"></path>
                    <path d="M158.728568,61.8439844 C158.728568,61.8439844 158.267188,65.5107422 156.587765,67.1908594" id="Path" fill="#000000" opacity="0.1"></path>
                    <g id="Group" opacity="0.1" transform="translate(92.276004, 153.031250)" fill="url(#linearGradient-2)">
                        <polygon id="Path" points="0.365 0.725 0.365 0.645 0.245 0.685"></polygon>
                    </g>
                    <g id="Group" opacity="0.1" transform="translate(91.122554, 152.800781)" fill="url(#linearGradient-3)">
                        <path d="M1.16037075,0.816666667 C1.1958605,0.817903383 1.23116108,0.808835431 1.26418126,0.79 C0.908918641,0.61 -0.88815654,-0.243333333 1.16037075,0.816666667 Z" id="Path"></path>
                    </g>
                    <path d="M115.225046,72.4570703 C114.057755,71.8878125 111.566303,70.9152344 109.425499,71.7195703 C109.425499,71.7195703 88.8940886,75.7850391 86.3057467,69.2166797 C86.1842499,68.909388 86.066598,68.6136198 85.9527909,68.329375 C86.0045682,67.8988824 86.02692,67.465365 86.019691,67.0318359 C86.0286255,66.4987106 85.9908016,65.9658279 85.9066529,65.4392969 C85.7712775,64.6687168 85.4749437,63.9352677 85.0369516,63.2867188 C84.5276579,62.4338233 84.1108295,61.5291146 83.7935324,60.5879297 C82.7859351,57.8442065 80.6504364,55.6629359 77.9270855,54.5957422 C77.9663028,53.6139453 78.6606797,52.1642969 79.2904634,51.0373047 L79.3112255,51.0373047 L79.5026982,50.7146484 C82.2152642,49.6823238 84.0172129,47.094507 84.0426777,44.1946875 C84.042523,42.829454 83.6335903,41.4954772 82.8684655,40.3642969 C85.0392585,40.0162891 84.2964367,38.1725391 82.9538208,36.5915234 C82.6934587,36.2851635 82.4153871,35.9942764 82.1210299,35.7203516 C80.810107,34.4305359 79.1598579,33.5386737 77.361895,33.1483203 C77.1473532,33.1022266 76.9305046,33.0676562 76.713656,33.0376953 C74.0969106,32.1371155 71.2108886,32.4898721 68.8886509,33.9941406 C68.3153251,32.3685875 66.7704374,31.2874622 65.0453553,31.3045703 C62.812276,31.3045703 61.0036663,33.0538281 61.0036663,35.2225391 C61.0036663,37.39125 62.812276,39.1405078 65.0453553,39.1405078 L65.2760453,39.1405078 C65.126556,39.7571328 65.0491424,40.3889958 65.0453553,41.0234375 C65.0453553,44.9690625 67.8436251,48.2832031 71.6269413,49.2096875 L71.6938414,49.2719141 C71.6938414,49.3364453 71.6823069,49.4032812 71.6730793,49.4678125 L71.6892276,49.4816406 C71.5450851,50.6423144 71.1785329,51.7643907 70.6095984,52.7865625 L70.4665705,52.7519922 C67.4837487,54.8262109 66.4041195,57.9721094 66.4294954,61.249375 C66.4133471,64.0334375 67.1838517,66.9465625 68.2750154,69.3157812 C68.675773,70.2630616 68.8737917,71.2836069 68.8563543,72.311875 C68.7986818,75.8610937 67.1630896,80.1201562 66.0511637,82.6138281 C65.6105458,83.6025391 59.2227394,99.0347266 59.2227394,99.0347266 L59.3680742,98.9978516 L59.2227394,99.3481641 C60.6207209,98.9563672 62.120206,99.1361328 63.3936148,99.4795312 C65.164579,99.944059 67.0480978,99.6783274 68.6210505,98.7420312 C68.7920743,99.4831676 69.0860342,100.190487 69.4907518,100.834687 C70.3189289,101.987031 69.4146241,108.237344 68.8701957,111.507695 C68.7107522,112.442544 68.6335606,113.389547 68.6395057,114.337852 C68.6694954,117.303984 65.6151596,122.5725 65.6151596,122.5725 C61.8964367,124.605234 56.3990937,143.213281 56.3990937,143.213281 C56.3990937,144.208906 55.8039135,145.725391 55.3033162,146.829336 L55.3033162,146.829336 C54.938826,147.633672 54.6112461,148.212148 54.6112461,148.212148 C54.6064852,148.268898 54.6064852,148.325946 54.6112461,148.382695 C54.6112461,148.382695 54.6112461,148.398828 54.6112461,148.405742 C54.6151189,148.435193 54.6205088,148.464424 54.6273944,148.49332 L52.5050463,153.8425 C58.3253553,156.969961 66.2472503,157.440117 66.2472503,157.440117 C72.5520082,157.901055 69.1585582,154.469375 69.1585582,154.469375 C65.236828,154.469375 62.5377549,150.625156 61.4465911,148.751445 L61.7211123,148.684609 C60.9136972,143.367695 72.5635427,125.540938 72.5635427,125.540938 L76.2822657,120.848594 L78.5453347,115.195195 C79.1751184,114.416211 79.8002884,113.180898 80.3908548,111.724336 L85.8212976,124.413945 C85.4983316,132.23375 91.3186406,147.557617 91.3186406,147.557617 C92.2206385,148.576289 92.4236457,150.814141 92.4467147,151.118359 L92.6105046,151.063047 L92.2875386,156.472148 C94.2276416,157.723594 108.779567,153.969258 108.779567,153.969258 C112.336807,151.779805 110.073738,151.155234 110.073738,151.155234 C106.442678,152.326016 101.178332,149.813906 98.7699279,148.479492 L99.0859732,148.341211 C96.8229042,147.089766 93.2656643,122.383516 93.2656643,122.383516 C94.2368692,119.099336 91.6508342,113.164766 91.6508342,113.164766 C91.9461174,110.883125 90.0867559,103.220039 88.5872709,97.5666406 C90.5122294,97.550261 92.4314484,97.3542795 94.3199176,96.98125 C94.1999588,96.9051953 94.0892276,96.8245312 93.9669619,96.7507812 C94.1976519,96.7069922 94.3199176,96.6793359 94.3199176,96.6793359 C89.323172,93.4873437 86.4764573,82.7060156 85.2468795,76.5985937 C85.5544301,76.8594327 85.8857645,77.0909129 86.2365396,77.29 L87.8513697,78.0712891 L87.6668177,77.8707812 C88.5688157,78.2694922 90.1236663,78.7926562 91.0049022,78.1496484 C92.2990731,77.2116406 108.950278,74.3976172 108.950278,74.3976172 C108.950278,74.3976172 113.564078,75.7135937 115.462657,73.5195312 C115.606198,73.3583557 115.663366,73.1380361 115.61628,72.9274913 C115.569193,72.7169465 115.423601,72.5418857 115.225046,72.4570703 Z" id="Path" fill="url(#linearGradient-4)"></path>
                    <ellipse id="Oval" fill="#A81D2F" cx="74.335242" cy="42.5975391" rx="8.25639547" ry="8.24847656"></ellipse>
                    <path d="M80.5269619,50.7699609 C80.5269619,50.7699609 77.6225747,55.1995703 78.3861586,56.5731641 L70.895654,54.7294141 C70.895654,54.7294141 72.8842019,52.5906641 72.4251287,47.3982031 L80.5269619,50.7699609 Z" id="Path" fill="#F5BD41"></path>
                    <path d="M72.2705664,47.71625 L80.3723996,51.0764844 C80.3723996,51.0764844 80.0056025,51.6342187 79.5695984,52.4155078 C78.7783316,52.7335547 77.684861,52.5284375 76.7805561,52.5284375 C74.935036,52.5284375 73.5854995,52.0421484 72.3466941,50.8483203 C72.4620391,49.9310547 72.3743769,48.9815234 72.2705664,47.71625 Z" id="Path" fill="#000000" opacity="0.1"></path>
                    <ellipse id="Oval" fill="#F5BD41" cx="77.1635015" cy="45.7296094" rx="6.87917611" ry="6.87257812"></ellipse>
                    <ellipse id="Oval" fill="#FA2C46" cx="66.0788465" cy="36.9464453" rx="3.82253347" ry="3.81886719"></ellipse>
                    <path d="M82.049516,42.0444141 C80.3285685,42.0144531 78.3723172,41.66875 77.08276,42.8049609 C76.16,43.6208203 75.9108548,44.9391016 75.5971164,46.1329297 C75.1357364,47.9259766 74.0791761,49.8964844 72.2428836,50.1638281 C71.1217302,50.3274609 69.993656,49.7697266 69.1977755,48.9630859 C68.401895,48.1564453 67.8874562,47.1193359 67.4007003,46.1029687 C66.9139444,45.0866016 66.438723,44.02875 66.4779403,42.9017578 C66.5263852,41.5627344 67.3084243,40.3666016 68.1066117,39.2949219 C68.58805,38.621948 69.1243049,37.9898512 69.7099073,37.4050781 C71.5380508,35.6451734 74.025367,34.7388244 76.5583713,34.9095779 C79.0913756,35.0803313 81.4342683,36.3122916 83.0091864,38.3016016 C84.4417714,40.0370312 85.1546035,42.0974219 82.049516,42.0444141 Z" id="Path" fill="#000000" opacity="0.1"></path>
                    <path d="M81.8972606,41.8923047 C80.1763131,41.8623437 78.2200618,41.5166406 76.9305046,42.6528516 C76.0077446,43.4687109 75.7585994,44.7869922 75.444861,45.9808203 C74.9834809,47.7738672 73.9269207,49.744375 72.0906282,50.0117188 C70.9694748,50.1753516 69.8414006,49.6176172 69.0455201,48.8109766 C68.2496395,48.0043359 67.7352008,46.9672266 67.2484449,45.9508594 C66.761689,44.9344922 66.2864676,43.8766406 66.3256849,42.7496484 C66.3741298,41.410625 67.1561689,40.2144922 67.9543563,39.1428125 C68.4357946,38.4698386 68.9720495,37.8377419 69.5576519,37.2529688 C71.3857954,35.493064 73.8731116,34.586715 76.4061159,34.7574685 C78.9391201,34.9282219 81.2820129,36.1601822 82.856931,38.1494922 C84.2872091,39.8849219 85.0023481,41.9453125 81.8972606,41.8923047 Z" id="Path" fill="#FA2C46"></path>
                    <path d="M96.7329351,146.843164 C96.7329351,146.843164 104.071184,151.731406 108.657302,150.203398 C108.657302,150.203398 110.798105,150.814141 107.434645,152.952891 C107.434645,152.952891 93.6739856,156.619648 91.84,155.395859 L92.30138,147.453906 L96.7329351,146.843164 Z" id="Path" fill="#333333"></path>
                    <path d="M62.1801854,146.843164 C62.1801854,146.843164 65.0845726,153.411523 69.9775077,153.411523 C69.9775077,153.411523 73.1887127,156.771758 67.2253759,156.313125 C67.2253759,156.313125 59.7348713,155.852188 54.2306076,152.800781 L56.8627806,145.946641 L62.1801854,146.843164 Z" id="Path" fill="#333333"></path>
                    <path d="M86.6425541,91.5514062 C86.6425541,91.5514062 91.6877446,109.421953 91.2286715,113.086406 C91.2286715,113.086406 93.6739856,118.889609 92.7581462,122.097734 C92.7581462,122.097734 96.1216066,146.230117 98.2624099,147.449297 C98.2624099,147.449297 92.0337796,150.265625 91.8423069,150.198789 C89.7015036,149.435937 91.9945623,150.198789 91.9945623,150.198789 C91.9945623,150.198789 91.8423069,147.75582 90.9241607,146.686445 C90.9241607,146.686445 85.419897,131.7175 85.7267147,124.08207 L78.3884655,106.363633 L86.6425541,91.5514062 Z" id="Path" fill="#3AD29F"></path>
                    <path d="M86.6425541,91.5514062 C86.6425541,91.5514062 91.6877446,109.421953 91.2286715,113.086406 C91.2286715,113.086406 93.6739856,118.889609 92.7581462,122.097734 C92.7581462,122.097734 96.1216066,146.230117 98.2624099,147.449297 C98.2624099,147.449297 92.0337796,150.265625 91.8423069,150.198789 C89.7015036,149.435937 91.9945623,150.198789 91.9945623,150.198789 C91.9945623,150.198789 91.8423069,147.75582 90.9241607,146.686445 C90.9241607,146.686445 85.419897,131.7175 85.7267147,124.08207 L78.3884655,106.363633 L86.6425541,91.5514062 Z" id="Path" fill="#1D5558"></path>
                    <path d="M87.5607003,90.6341406 L84.19724,98.5760937 C84.19724,98.5760937 81.5973635,111.558398 78.8452317,115.070742 L76.7044284,120.569727 L73.1887127,125.151445 C73.1887127,125.151445 62.1801854,142.563359 62.9460762,147.75582 C62.9460762,147.75582 56.0669001,149.59957 56.2191555,147.294883 C56.2191555,147.294883 57.9008857,144.086758 57.9008857,142.406641 C57.9008857,142.406641 63.0983316,124.231875 66.6163543,122.245234 C66.6163543,122.245234 69.5045932,117.098867 69.4769104,114.20418 C69.4753438,113.277444 69.5525175,112.352248 69.7076004,111.438555 C70.2220391,108.244258 71.0778991,102.132227 70.293553,101.014453 C69.2231514,99.4864453 67.3891658,92.4617578 72.5866117,87.725625 L87.5607003,90.6341406 Z" id="Path" fill="#5FD0D6"></path>
                    <path d="M56.2260762,147.299492 C56.2260762,147.299492 57.9078064,144.091367 57.9078064,142.41125 C57.9078064,142.41125 63.1052523,124.236484 66.623275,122.249844 C66.623275,122.249844 69.5115139,117.103477 69.4838311,114.208789 C69.4822645,113.282054 69.5594382,112.356858 69.7145211,111.443164 C70.2289598,108.248867 71.0848198,102.136836 70.3004737,101.019062 C69.2300721,99.4910547 67.3960865,92.4663672 72.5935324,87.7302344 L73.4793821,87.9030859 C68.494171,92.6369141 70.2981668,99.5233203 71.3547271,101.021367 C72.4112873,102.519414 70.431967,113.39293 70.431967,113.39293 C71.195551,115.990312 67.6798352,122.252148 67.6798352,122.252148 C64.1641195,124.238789 58.9643666,142.413555 58.9643666,142.413555 C58.9643666,144.093672 57.2826365,147.301797 57.2826365,147.301797 C57.2318847,148.057734 57.9493306,148.364258 58.93207,148.435703 C57.4579609,148.520977 56.1499485,148.313555 56.2260762,147.299492 Z" id="Path" fill="#000000" opacity="0.1"></path>
                    <path d="M71.2070855,54.3514453 L76.8889804,55.7480859 C80.1110007,56.5439117 82.7136473,58.9100485 83.8096807,62.0398828 C84.1082075,62.9571542 84.5017433,63.8407948 84.9838929,64.6764453 C85.3992932,65.3140962 85.6788477,66.0303559 85.8051493,66.780625 C86.0358393,68.2763672 86.0173841,70.6985937 84.4486921,73.4457812 C84.4486921,73.4457812 87.0347271,92.8443359 93.7501133,97.2739453 C93.7501133,97.2739453 87.1962101,98.7812109 81.4520288,96.9167187 C77.6018126,95.6675781 73.3778785,96.1930469 70.0790113,98.5530469 L69.9359835,98.6567578 C68.3886622,99.8118168 66.3968678,100.194846 64.5309166,99.6961719 C63.3267147,99.3619922 61.9079712,99.1868359 60.5861174,99.5694141 C60.5861174,99.5694141 66.6278888,84.4990625 67.0454377,83.5310937 C68.4526468,80.2607422 70.7595469,73.8813672 69.1447168,70.2537891 C66.900103,65.2042187 66.0788465,57.7208984 71.2070855,54.3514453 Z" id="Path" fill="#000000" opacity="0.1"></path>
                    <path d="M71.2070855,54.0541406 L76.8889804,55.4507812 C80.1110007,56.246607 82.7136473,58.6127438 83.8096807,61.7425781 C84.1082075,62.6598495 84.5017433,63.5434902 84.9838929,64.3791406 C85.3992932,65.0167915 85.6788477,65.7330512 85.8051493,66.4833203 C86.0358393,67.9790625 86.0173841,70.4012891 84.4486921,73.1484766 C84.4486921,73.1484766 87.0347271,92.5470312 93.7501133,96.9766406 C93.7501133,96.9766406 87.1962101,98.4839062 81.4520288,96.6194141 C77.6018126,95.3702734 73.3778785,95.8957422 70.0790113,98.2557422 L69.9359835,98.3594531 C68.3875107,99.5121209 66.3958164,99.8925832 64.5309166,99.3919531 C63.3267147,99.0577734 61.9079712,98.8826172 60.5861174,99.2651953 C60.5861174,99.2651953 66.6278888,84.1948437 67.0454377,83.226875 C68.4526468,79.9542187 70.7595469,73.5748437 69.1447168,69.9380469 C66.900103,64.8976953 66.0788465,57.7208984 71.2070855,54.0541406 Z" id="Path" fill="#000132"></path>
                    <path d="M77.3941916,67.9491016 C77.3941916,67.9491016 83.3575283,76.5017969 86.1096601,78.0298047 L87.6391349,78.7926563 C87.6391349,78.7926563 78.0055201,67.9491016 77.3941916,67.9491016 Z" id="Path" fill="#000000" opacity="0.1"></path>
                    <path d="M82.972276,63.6001562 C82.972276,63.6001562 79.0505458,62.0583203 77.3688157,67.1701172 C77.229415,67.592657 77.3300621,68.0574832 77.6318023,68.3846875 L86.7948095,78.2648828 C86.7948095,78.2648828 89.3946859,79.7928906 90.6173429,78.875625 C91.84,77.9583594 107.5869,75.2088672 107.5869,75.2088672 C107.5869,75.2088672 111.928486,76.4833594 113.725561,74.3722656 C113.860544,74.2160941 113.916942,74.0069853 113.878772,73.8042025 C113.840601,73.6014197 113.712022,73.4270631 113.529475,73.3305469 C112.581339,72.8534766 110.84655,72.8696094 108.980268,72.7105859 C108.334819,72.6549056 107.684841,72.6843512 107.047085,72.7981641 C103.056148,73.5057031 88.2919876,75.704375 86.1834809,70.1685156 C83.7381668,63.7522656 82.972276,63.6001562 82.972276,63.6001562 Z" id="Path" fill="#F5BD41"></path>
                    <path d="M83.0507106,63.6762109 C83.0507106,63.6762109 78.3123378,62.9133594 77.2419361,67.6471875 L77.2419361,67.3406641 C77.2419361,67.3406641 78.6168486,62.1482031 83.0507106,63.6762109 Z" id="Path" fill="#000000" opacity="0.1"></path>
                    <path d="M132.93961,56.9532812 C132.93961,63.8102434 128.80511,69.992025 122.464022,72.6160708 C116.122933,75.2401166 108.824024,73.7896658 103.970764,68.9410614 C99.1175049,64.0924569 97.6656616,56.8005484 100.292227,50.4655414 C102.918792,44.1305344 109.106508,40 115.970053,40 C125.342081,40 132.93961,47.5902426 132.93961,56.9532812 L132.93961,56.9532812 Z" id="Shape" fill="#FFFFFF" fill-rule="nonzero" opacity="0.8"></path>
                    <path d="M113.654047,145.847539 C113.654047,145.847539 110.018373,133.517461 114.346117,124.441602 C116.179954,120.647423 116.732809,116.361454 115.92173,112.226758 C115.52073,110.266557 114.940813,108.347181 114.189248,106.492695" id="Path" stroke="#535461" stroke-width="1.4000001"></path>
                    <path d="M116.867559,100.751719 C116.867559,102.263594 114.129269,106.644805 114.129269,106.644805 C114.129269,106.644805 111.390978,102.265898 111.390978,100.751719 C111.390978,99.7739484 111.913113,98.8704512 112.7607,98.381566 C113.608287,97.8926808 114.652557,97.8926808 115.500144,98.381566 C116.347731,98.8704512 116.869866,99.7739484 116.869866,100.751719 L116.867559,100.751719 Z" id="Path" fill="#6C63FF"></path>
                    <path d="M121.393697,109.122344 C120.572441,110.389922 115.889434,112.579375 115.889434,112.579375 C115.889434,112.579375 115.974789,107.41457 116.796045,106.144687 C117.618455,104.876299 119.314369,104.514122 120.583975,105.335742 C121.853582,106.157363 122.216107,107.85165 121.393697,109.120039 L121.393697,109.122344 Z" id="Path" fill="#6C63FF"></path>
                    <path d="M121.195304,123.427539 C119.845767,124.118945 114.694459,123.637266 114.694459,123.637266 C114.694459,123.637266 117.377384,119.221484 118.729228,118.539297 C119.602854,118.099197 120.645134,118.158156 121.463451,118.693963 C122.281768,119.22977 122.751799,120.161025 122.696489,121.136932 C122.641179,122.112839 122.06893,122.985135 121.195304,123.425234 L121.195304,123.427539 Z" id="Path" fill="#6C63FF"></path>
                    <path d="M118.606962,134.218086 C117.391226,135.116914 112.235304,135.522539 112.235304,135.522539 C112.235304,135.522539 114.133883,130.717266 115.349619,129.818437 C116.136295,129.237127 117.173637,129.119259 118.070887,129.509232 C118.968138,129.899204 119.588984,130.737773 119.699559,131.709056 C119.810134,132.680339 119.393638,133.636776 118.606962,134.218086 Z" id="Path" fill="#6C63FF"></path>
                    <path d="M110.138332,112.87668 C111.222575,113.929922 116.2793,115.020039 116.2793,115.020039 C116.2793,115.020039 115.040494,110.002734 113.956251,108.951797 C113.263736,108.229595 112.231935,107.942493 111.265434,108.203069 C110.298933,108.463645 109.551795,109.230362 109.316985,110.202578 C109.082175,111.174793 109.397123,112.197534 110.138332,112.869766 L110.138332,112.87668 Z" id="Path" fill="#6C63FF"></path>
                    <path d="M107.270855,125.531719 C108.620391,126.223125 113.771699,125.741445 113.771699,125.741445 C113.771699,125.741445 111.086468,121.325664 109.746159,120.645781 C108.872532,120.205682 107.830252,120.26464 107.011935,120.800447 C106.193619,121.336255 105.723587,122.267509 105.778897,123.243416 C105.834207,124.219323 106.406456,125.091619 107.280082,125.531719 L107.270855,125.531719 Z" id="Path" fill="#6C63FF"></path>
                    <path d="M106.17277,138.216719 C107.388507,139.115547 112.544428,139.521172 112.544428,139.521172 C112.544428,139.521172 110.64585,134.715898 109.430113,133.81707 C108.214018,132.918443 106.498996,133.174856 105.599506,134.389785 C104.700015,135.604715 104.956675,137.318091 106.17277,138.216719 Z" id="Path" fill="#6C63FF"></path>
                    <path d="M116.867559,100.751719 C116.867559,102.263594 114.129269,106.644805 114.129269,106.644805 C114.129269,106.644805 111.390978,102.265898 111.390978,100.751719 C111.390978,99.7739484 111.913113,98.8704512 112.7607,98.381566 C113.608287,97.8926808 114.652557,97.8926808 115.500144,98.381566 C116.347731,98.8704512 116.869866,99.7739484 116.869866,100.751719 L116.867559,100.751719 Z" id="Path" fill="#5FD0D6" opacity="0.952450707"></path>
                    <path d="M121.393697,109.122344 C120.572441,110.389922 115.889434,112.579375 115.889434,112.579375 C115.889434,112.579375 115.974789,107.41457 116.796045,106.144687 C117.618455,104.876299 119.314369,104.514122 120.583975,105.335742 C121.853582,106.157363 122.216107,107.85165 121.393697,109.120039 L121.393697,109.122344 Z" id="Path" fill="#5FD0D6" opacity="0.952450707"></path>
                    <path d="M121.195304,123.427539 C119.845767,124.118945 114.694459,123.637266 114.694459,123.637266 C114.694459,123.637266 117.377384,119.221484 118.729228,118.539297 C119.602854,118.099197 120.645134,118.158156 121.463451,118.693963 C122.281768,119.22977 122.751799,120.161025 122.696489,121.136932 C122.641179,122.112839 122.06893,122.985135 121.195304,123.425234 L121.195304,123.427539 Z" id="Path" fill="#5FD0D6" opacity="0.952450707"></path>
                    <path d="M118.606962,134.218086 C117.391226,135.116914 112.235304,135.522539 112.235304,135.522539 C112.235304,135.522539 114.133883,130.717266 115.349619,129.818437 C116.136295,129.237127 117.173637,129.119259 118.070887,129.509232 C118.968138,129.899204 119.588984,130.737773 119.699559,131.709056 C119.810134,132.680339 119.393638,133.636776 118.606962,134.218086 Z" id="Path" fill="#5FD0D6" opacity="0.952450707"></path>
                    <path d="M110.138332,112.87668 C111.222575,113.929922 116.2793,115.020039 116.2793,115.020039 C116.2793,115.020039 115.040494,110.002734 113.956251,108.951797 C113.263736,108.229595 112.231935,107.942493 111.265434,108.203069 C110.298933,108.463645 109.551795,109.230362 109.316985,110.202578 C109.082175,111.174793 109.397123,112.197534 110.138332,112.869766 L110.138332,112.87668 Z" id="Path" fill="#5FD0D6" opacity="0.952450707"></path>
                    <path d="M107.270855,125.531719 C108.620391,126.223125 113.771699,125.741445 113.771699,125.741445 C113.771699,125.741445 111.086468,121.325664 109.746159,120.645781 C108.872532,120.205682 107.830252,120.26464 107.011935,120.800447 C106.193619,121.336255 105.723587,122.267509 105.778897,123.243416 C105.834207,124.219323 106.406456,125.091619 107.280082,125.531719 L107.270855,125.531719 Z" id="Path" fill="#5FD0D6" opacity="0.952450707"></path>
                    <path d="M106.17277,138.216719 C107.388507,139.115547 112.544428,139.521172 112.544428,139.521172 C112.544428,139.521172 110.64585,134.715898 109.430113,133.81707 C108.214018,132.918443 106.498996,133.174856 105.599506,134.389785 C104.700015,135.604715 104.956675,137.318091 106.17277,138.216719 Z" id="Path" fill="#5FD0D6" opacity="0.952450707"></path>
                </g>
                <g id="Group-8" transform="translate(2.000000, 9.000000)">
                    <g id="Group-3" transform="translate(59.042553, 0.000000)" fill-rule="nonzero">
                        <path d="M7.25125156,9.76996262e-15 C3.6770723,9.76996262e-15 0.79787234,2.9 0.79787234,6.5 C0.79787234,10.1 3.6770723,13 7.25125156,13 C10.8254308,13 13.7046308,10.1 13.7046308,6.5 C13.7046308,2.9 10.8254308,9.76996262e-15 7.25125156,9.76996262e-15 Z M7.25125156,9.6 C5.56344469,9.6 4.17348609,8.2 4.17348609,6.5 C4.17348609,4.8 5.56344469,3.4 7.25125156,3.4 C8.93905844,3.4 10.329017,4.8 10.329017,6.5 C10.329017,8.2 8.98869982,9.6 7.25125156,9.6 Z" id="Shape" fill="#E6434D"></path>
                        <ellipse id="Oval" fill="#5FD0D6" cx="7.25125156" cy="6.5" rx="1.76001252" ry="1.77272727"></ellipse>
                    </g>
                    <path d="M6.45337922,60.2727273 C2.87919996,60.2727273 6.42152997e-13,63.1727273 6.42152997e-13,66.7727273 C6.42152997e-13,70.3727273 2.87919996,73.2727273 6.45337922,73.2727273 C10.0275585,73.2727273 12.9067584,70.3727273 12.9067584,66.7727273 C12.9067584,63.1727273 10.0275585,60.2727273 6.45337922,60.2727273 Z M6.45337922,69.8727273 C4.76557235,69.8727273 3.37561375,68.4727273 3.37561375,66.7727273 C3.37561375,65.0727273 4.76557235,63.6727273 6.45337922,63.6727273 C8.1411861,63.6727273 9.5311447,65.0727273 9.5311447,66.7727273 C9.5311447,68.4727273 8.1411861,69.8727273 6.45337922,69.8727273 Z" id="Shape" fill="#E6434D" fill-rule="nonzero"></path>
                    <ellipse id="Oval" fill="#5FD0D6" fill-rule="nonzero" cx="6.45337922" cy="66.7727273" rx="1.76001252" ry="1.77272727"></ellipse>
                    <ellipse id="Oval" stroke="#5FD0D6" stroke-width="1.60000002" cx="16.5910513" cy="74.7319109" rx="1.76001252" ry="1.77272727"></ellipse>
                    <ellipse id="Oval" stroke="#5FD0D6" stroke-width="1.60000002" cx="72.1605131" cy="15.9545455" rx="1.76001252" ry="1.77272727"></ellipse>
                    <ellipse id="Oval" stroke="#5FD0D6" stroke-width="1.60000002" cx="55.7337297" cy="1.77272727" rx="1.76001252" ry="1.77272727"></ellipse>
                </g>
                <g id="Group-8-Copy" transform="translate(127.000000, 76.000000)">
                    <g id="Group-3" transform="translate(59.042553, 0.000000)" fill-rule="nonzero">
                        <path d="M7.25125156,9.76996262e-15 C3.6770723,9.76996262e-15 0.79787234,2.9 0.79787234,6.5 C0.79787234,10.1 3.6770723,13 7.25125156,13 C10.8254308,13 13.7046308,10.1 13.7046308,6.5 C13.7046308,2.9 10.8254308,9.76996262e-15 7.25125156,9.76996262e-15 Z M7.25125156,9.6 C5.56344469,9.6 4.17348609,8.2 4.17348609,6.5 C4.17348609,4.8 5.56344469,3.4 7.25125156,3.4 C8.93905844,3.4 10.329017,4.8 10.329017,6.5 C10.329017,8.2 8.98869982,9.6 7.25125156,9.6 Z" id="Shape" fill="#E6434D"></path>
                        <ellipse id="Oval" fill="#5FD0D6" cx="7.25125156" cy="6.5" rx="1.76001252" ry="1.77272727"></ellipse>
                    </g>
                    <path d="M6.45337922,60.2727273 C2.87919996,60.2727273 6.42152997e-13,63.1727273 6.42152997e-13,66.7727273 C6.42152997e-13,70.3727273 2.87919996,73.2727273 6.45337922,73.2727273 C10.0275585,73.2727273 12.9067584,70.3727273 12.9067584,66.7727273 C12.9067584,63.1727273 10.0275585,60.2727273 6.45337922,60.2727273 Z M6.45337922,69.8727273 C4.76557235,69.8727273 3.37561375,68.4727273 3.37561375,66.7727273 C3.37561375,65.0727273 4.76557235,63.6727273 6.45337922,63.6727273 C8.1411861,63.6727273 9.5311447,65.0727273 9.5311447,66.7727273 C9.5311447,68.4727273 8.1411861,69.8727273 6.45337922,69.8727273 Z" id="Shape" fill="#E6434D" fill-rule="nonzero"></path>
                    <ellipse id="Oval" fill="#5FD0D6" fill-rule="nonzero" cx="6.45337922" cy="66.7727273" rx="1.76001252" ry="1.77272727"></ellipse>
                    <ellipse id="Oval" stroke="#5FD0D6" stroke-width="1.60000002" cx="16.5910513" cy="74.7319109" rx="1.76001252" ry="1.77272727"></ellipse>
                    <ellipse id="Oval" stroke="#5FD0D6" stroke-width="1.60000002" cx="72.1605131" cy="15.9545455" rx="1.76001252" ry="1.77272727"></ellipse>
                    <ellipse id="Oval" stroke="#5FD0D6" stroke-width="1.60000002" cx="55.7337297" cy="1.77272727" rx="1.76001252" ry="1.77272727"></ellipse>
                </g>
                <g id="Group-8-Copy" transform="translate(157.500000, 126.000000) scale(-1, 1) translate(-157.500000, -126.000000) translate(120.000000, 87.000000)">
                    <g id="Group-3" transform="translate(59.042553, 0.000000)" fill-rule="nonzero">
                        <path d="M7.25125156,9.76996262e-15 C3.6770723,9.76996262e-15 0.79787234,2.9 0.79787234,6.5 C0.79787234,10.1 3.6770723,13 7.25125156,13 C10.8254308,13 13.7046308,10.1 13.7046308,6.5 C13.7046308,2.9 10.8254308,9.76996262e-15 7.25125156,9.76996262e-15 Z M7.25125156,9.6 C5.56344469,9.6 4.17348609,8.2 4.17348609,6.5 C4.17348609,4.8 5.56344469,3.4 7.25125156,3.4 C8.93905844,3.4 10.329017,4.8 10.329017,6.5 C10.329017,8.2 8.98869982,9.6 7.25125156,9.6 Z" id="Shape" fill="#E6434D"></path>
                        <ellipse id="Oval" fill="#5FD0D6" cx="7.25125156" cy="6.5" rx="1.76001252" ry="1.77272727"></ellipse>
                    </g>
                    <path d="M6.45337922,60.2727273 C2.87919996,60.2727273 6.42152997e-13,63.1727273 6.42152997e-13,66.7727273 C6.42152997e-13,70.3727273 2.87919996,73.2727273 6.45337922,73.2727273 C10.0275585,73.2727273 12.9067584,70.3727273 12.9067584,66.7727273 C12.9067584,63.1727273 10.0275585,60.2727273 6.45337922,60.2727273 Z M6.45337922,69.8727273 C4.76557235,69.8727273 3.37561375,68.4727273 3.37561375,66.7727273 C3.37561375,65.0727273 4.76557235,63.6727273 6.45337922,63.6727273 C8.1411861,63.6727273 9.5311447,65.0727273 9.5311447,66.7727273 C9.5311447,68.4727273 8.1411861,69.8727273 6.45337922,69.8727273 Z" id="Shape" fill="#E6434D" fill-rule="nonzero"></path>
                    <ellipse id="Oval" fill="#5FD0D6" fill-rule="nonzero" cx="6.45337922" cy="66.7727273" rx="1.76001252" ry="1.77272727"></ellipse>
                    <ellipse id="Oval" stroke="#5FD0D6" stroke-width="1.60000002" cx="16.5910513" cy="74.7319109" rx="1.76001252" ry="1.77272727"></ellipse>
                    <ellipse id="Oval" stroke="#5FD0D6" stroke-width="1.60000002" cx="72.1605131" cy="15.9545455" rx="1.76001252" ry="1.77272727"></ellipse>
                    <ellipse id="Oval" stroke="#5FD0D6" stroke-width="1.60000002" cx="55.7337297" cy="1.77272727" rx="1.76001252" ry="1.77272727"></ellipse>
                </g>
                <text id="$" font-family="AvenirNext-Bold, Avenir Next" font-size="19" font-weight="bold" fill="#000000">
                    <tspan x="109.363" y="63">$</tspan>
                </text>
            </g>
        </g>
    </g>
</svg>