<?xml version="1.0" encoding="UTF-8"?>
<svg width="23px" height="20px" viewBox="0 0 23 20" version="1.1" xmlns="http://www.w3.org/2000/svg" xmlns:xlink="http://www.w3.org/1999/xlink">
    <!-- Generator: Sketch 53.1 (72631) - https://sketchapp.com -->
    <title>Group 15</title>
    <desc>Created with Sketch.</desc>
    <g id="320" stroke="none" stroke-width="1" fill="none" fill-rule="evenodd">
        <g id="Tarjeta-Debito4" transform="translate(-149.000000, -281.000000)" fill="#FA2C46" fill-rule="nonzero">
            <g id="Group-5" transform="translate(60.000000, 266.000000)">
                <g id="Group-17" transform="translate(75.000000, 0.000000)">
                    <g id="Group-15" transform="translate(14.000000, 15.000000)">
                        <path d="M6.8372093,7.2653394 C7.35096256,7.2653394 7.76744186,7.6818187 7.76744186,8.19557196 C7.76744186,8.70932521 7.35096256,9.12580451 6.8372093,9.12580451 L1.25581395,9.12580451 C0.742060698,9.12580451 0.325581395,8.70932521 0.325581395,8.19557196 L0.325581395,2.61623616 C0.325581395,2.10248291 0.742060698,1.6860036 1.25581395,1.6860036 C1.76956721,1.6860036 2.18604651,2.10248291 2.18604651,2.61623616 L2.18604651,7.2653394 L6.8372093,7.2653394 Z" id="Shape"></path>
                        <path d="M16.1395349,12.8453617 C15.6257816,12.8453617 15.2093023,12.4288824 15.2093023,11.9151292 C15.2093023,11.4013759 15.6257816,10.9848966 16.1395349,10.9848966 L21.7209302,10.9848966 C22.2346835,10.9848966 22.6511628,11.4013759 22.6511628,11.9151292 L22.6511628,17.4944649 C22.6511628,18.0082182 22.2346835,18.4246975 21.7209302,18.4246975 C21.207177,18.4246975 20.7906977,18.0082182 20.7906977,17.4944649 L20.7906977,12.8453617 L16.1395349,12.8453617 Z" id="Shape"></path>
                        <path d="M20.2629556,6.95525878 C20.434398,7.43956232 20.1807739,7.97114942 19.6964704,8.14259179 C19.2121668,8.31403416 18.6805798,8.06041008 18.5091374,7.57610653 C17.6567697,5.16827312 15.6281611,3.365891 13.1359131,2.8021965 C10.6436053,2.23848847 8.03627266,2.99238384 6.20896963,4.81928175 L1.89269056,8.87359909 C1.51822652,9.22533633 0.929524056,9.20691261 0.577786817,8.83244856 C0.226049579,8.45798452 0.244473297,7.86928206 0.618937345,7.51754482 L4.91427583,3.48352431 C7.17220949,1.22529236 10.4311738,0.282981402 13.5463442,0.987567953 C16.6615744,1.69216802 19.197404,3.94520686 20.2629556,6.95525878 Z M21.0840536,11.237102 C21.4585177,10.8853648 22.0472201,10.9037885 22.3989574,11.2782525 C22.7506946,11.6527166 22.7322709,12.241419 22.3578068,12.5931563 L18.0624684,16.6271768 C15.8045347,18.8854088 12.5455704,19.8277197 9.4304,19.1231332 C6.31516982,18.4185331 3.77934021,16.1654942 2.71378854,13.1554423 C2.54234617,12.6711388 2.79597026,12.1395517 3.2802738,11.9681093 C3.76457734,11.7966669 4.29616443,12.050291 4.46760681,12.5345946 C5.31997447,14.942428 7.34858305,16.7448101 9.84083111,17.3085046 C12.3331389,17.8722126 14.9404715,17.1183173 16.7677746,15.2914194 L21.0840536,11.237102 Z" id="Shape"></path>
                    </g>
                </g>
            </g>
        </g>
    </g>
</svg>