<?xml version="1.0" encoding="UTF-8"?>
<svg width="76px" height="25px" viewBox="0 0 76 25" version="1.1" xmlns="http://www.w3.org/2000/svg" xmlns:xlink="http://www.w3.org/1999/xlink">
    <!-- Generator: Sketch 53.1 (72631) - https://sketchapp.com -->
    <title>Logo_white_color</title>
    <desc>Created with Sketch.</desc>
    <g id="320" stroke="none" stroke-width="1" fill="none" fill-rule="evenodd">
        <g id="Mi-plata" transform="translate(-122.000000, -20.000000)">
            <g id="Logo_white_color" transform="translate(122.000000, 20.000000)">
                <g>
                    <path d="M38.9184655,7.09821429 L38.9184655,24.2857143 L33.7173803,24.2857143 L33.7173803,22.6785714 C32.5964567,23.9732143 30.8926529,24.7767857 28.561132,24.7767857 C24.0326008,24.7767857 20.3111347,20.8035714 20.3111347,15.7142857 C20.3111347,10.5803571 24.0326008,6.65178571 28.561132,6.65178571 C30.8926529,6.65178571 32.5516198,7.45535714 33.7173803,8.75 L33.7173803,7.14285714 L38.9184655,7.14285714 L38.9184655,7.09821429 Z M33.7622172,15.6696429 C33.7622172,13.0803571 32.0135765,11.4732143 29.6372186,11.4732143 C27.2608607,11.4732143 25.5122199,13.0803571 25.5122199,15.6696429 C25.5122199,18.2589286 27.2608607,19.8660714 29.6372186,19.8660714 C32.0135765,19.8660714 33.7622172,18.2589286 33.7622172,15.6696429 Z" id="XMLID_190_" fill="#FFFFFF"></path>
                    <path d="M12.5095068,21.2946429 C12.5095068,19.375 14.0787997,17.8571429 15.9619513,17.8571429 C17.8899398,17.8571429 19.4143958,19.4196429 19.4143958,21.2946429 C19.4143958,23.2142857 17.8451029,24.7321429 15.9619513,24.7321429 C14.0339628,24.7767857 12.5095068,23.2142857 12.5095068,21.2946429 Z" id="XMLID_188_" fill="#FA2C46"></path>
                    <path d="M68.645358,21.2946429 C68.645358,19.375 70.214651,17.8571429 72.0978025,17.8571429 C73.9809541,17.8571429 75.550247,19.4196429 75.550247,21.2946429 C75.550247,23.2142857 73.9809541,24.7321429 72.0978025,24.7321429 C70.214651,24.7321429 68.645358,23.2142857 68.645358,21.2946429 Z" id="XMLID_186_" fill="#FFC700"></path>
                    <polygon id="XMLID_184_" fill="#FFFFFF" points="41.8777037 0.267857143 47.078789 0.267857143 47.078789 24.2857143 41.8777037 24.2857143"></polygon>
                    <polygon id="XMLID_182_" fill="#2FCCF2" points="69.4524229 0.267857143 74.6535082 0.267857143 74.6535082 16.0267857 69.4524229 16.0267857"></polygon>
                    <path d="M58.5570461,20.1339286 C59.9918282,20.1339286 61.2024256,19.5982143 61.8749798,18.8392857 L65.9999784,21.2053571 C64.2961746,23.5267857 61.7404689,24.7321429 58.4673722,24.7321429 C52.5488959,24.7321429 48.9171036,20.7589286 48.9171036,15.6696429 C48.9171036,10.5357143 52.6385697,6.60714286 58.1086767,6.60714286 C63.1304141,6.60714286 66.8967173,10.4910714 66.8967173,15.6696429 C66.8967173,16.3839286 66.8070434,17.0982143 66.6725326,17.7232143 L54.4320474,17.7232143 C55.0597646,19.5535714 56.6738945,20.1339286 58.5570461,20.1339286 Z M61.7404689,13.8839286 C61.2024256,11.875 59.6331327,11.1607143 58.0638397,11.1607143 C56.0910143,11.1607143 54.790743,12.1428571 54.2975366,13.8839286 L61.7404689,13.8839286 Z" id="XMLID_179_" fill="#FFFFFF"></path>
                    <path d="M10.805703,21.2946429 C10.805703,20.6696429 10.8953769,20.0892857 11.1195616,19.5535714 C10.5815183,19.7767857 9.99863804,19.8660714 9.37092085,19.8660714 C6.99456293,19.8660714 5.2459222,18.2589286 5.2459222,15.6696429 C5.2459222,13.0803571 6.99456293,11.4732143 9.37092085,11.4732143 C11.7472788,11.4732143 13.4959195,13.0803571 13.4959195,15.6696429 C13.4959195,16.1160714 13.4510826,16.5178571 13.3614087,16.875 C14.1236367,16.4285714 15.0203755,16.1607143 15.9619513,16.1607143 C16.948364,16.1607143 17.8899398,16.4285714 18.6970048,16.9196429 L18.6970048,0.267857143 L13.4959195,0.267857143 L13.4959195,8.70535714 C12.374996,7.41071429 10.6711922,6.60714286 8.33967119,6.60714286 C3.81114006,6.60714286 0.0896738837,10.5803571 0.0896738837,15.6696429 C0.0896738837,20.8035714 3.81114006,24.7321429 8.33967119,24.7321429 C9.59510556,24.7321429 10.7160291,24.5089286 11.6127679,24.0625 C11.1195616,23.3035714 10.805703,22.3214286 10.805703,21.2946429 Z" id="XMLID_178_" fill="#FFFFFF"></path>
                </g>
            </g>
        </g>
    </g>
</svg>