<?xml version="1.0" encoding="UTF-8"?>
<svg width="116px" height="38px" viewBox="0 0 116 38" version="1.1" xmlns="http://www.w3.org/2000/svg" xmlns:xlink="http://www.w3.org/1999/xlink">
    <!-- Generator: Sketch 53.1 (72631) - https://sketchapp.com -->
    <title>Group 7</title>
    <desc>Created with Sketch.</desc>
    <g id="320" stroke="none" stroke-width="1" fill="none" fill-rule="evenodd">
        <g id="Splash" transform="translate(-102.000000, -315.000000)">
            <g id="Group-7" transform="translate(102.148026, 314.689655)">
                <path d="M59.6113145,10.9133005 L59.6113145,37.3385878 L51.6448255,37.3385878 L51.6448255,34.8676519 C49.9279098,36.8581281 47.3181978,38.0935961 43.7470131,38.0935961 C36.8106735,38.0935961 31.1105132,31.9848933 31.1105132,24.1602627 C31.1105132,16.2669951 36.8106735,10.2269294 43.7470131,10.2269294 C47.3181978,10.2269294 49.8592331,11.4623974 51.6448255,13.4528736 L51.6448255,10.9819376 L59.6113145,10.9819376 L59.6113145,10.9133005 Z M51.7135021,24.0916256 C51.7135021,20.1106732 49.0351136,17.6397373 45.3952522,17.6397373 C41.7553908,17.6397373 39.0770023,20.1106732 39.0770023,24.0916256 C39.0770023,28.072578 41.7553908,30.543514 45.3952522,30.543514 C49.0351136,30.543514 51.7135021,28.072578 51.7135021,24.0916256 Z" id="XMLID_190_" fill="#000035"></path>
                <path d="M19.1607797,32.7399015 C19.1607797,29.7885057 21.5644617,27.454844 24.4488802,27.454844 C27.4019752,27.454844 29.7369806,29.8571429 29.7369806,32.7399015 C29.7369806,35.6912972 27.3332986,38.0249589 24.4488802,38.0249589 C21.4957851,38.0935961 19.1607797,35.6912972 19.1607797,32.7399015 Z" id="XMLID_188_" fill="#F7323F"></path>
                <path d="M105.14392,32.7399015 C105.14392,29.7885057 107.547602,27.454844 110.43202,27.454844 C113.316439,27.454844 115.720121,29.8571429 115.720121,32.7399015 C115.720121,35.6912972 113.316439,38.0249589 110.43202,38.0249589 C107.547602,38.0249589 105.14392,35.6912972 105.14392,32.7399015 Z" id="XMLID_186_" fill="#FFC700"></path>
                <polygon id="XMLID_184_" fill="#000035" points="64.1439721 0.41182266 72.1104611 0.41182266 72.1104611 37.3385878 64.1439721 37.3385878"></polygon>
                <polygon id="XMLID_182_" fill="#00C1DE" points="106.380099 0.41182266 114.346588 0.41182266 114.346588 24.6407225 106.380099 24.6407225"></polygon>
                <path d="M89.6916783,30.9553366 C91.8893305,30.9553366 93.7435995,30.1316913 94.7737489,28.9648604 L101.091999,32.6026273 C98.4822869,36.171757 94.567719,38.0249589 89.5543251,38.0249589 C80.48901,38.0249589 74.926203,31.9162562 74.926203,24.0916256 C74.926203,16.198358 80.6263632,10.1582923 89.004912,10.1582923 C96.6966946,10.1582923 102.465531,16.1297209 102.465531,24.0916256 C102.465531,25.1898194 102.328178,26.2880131 102.122148,27.2489327 L83.3734284,27.2489327 C84.3349012,30.0630542 86.8072599,30.9553366 89.6916783,30.9553366 Z M94.567719,21.3461412 C93.7435995,18.2574713 91.3399175,17.1592775 88.9362354,17.1592775 C85.9144637,17.1592775 83.9228414,18.6692939 83.1673985,21.3461412 L94.567719,21.3461412 Z" id="XMLID_179_" fill="#000035"></path>
                <path d="M16.5510677,32.7399015 C16.5510677,31.7789819 16.688421,30.8866995 17.0318042,30.0630542 C16.2076846,30.4062397 15.3148884,30.543514 14.3534156,30.543514 C10.7135542,30.543514 8.03516567,28.072578 8.03516567,24.0916256 C8.03516567,20.1106732 10.7135542,17.6397373 14.3534156,17.6397373 C17.993277,17.6397373 20.6716655,20.1106732 20.6716655,24.0916256 C20.6716655,24.7779967 20.6029889,25.3957307 20.4656356,25.9448276 C21.6331383,25.2584565 23.0066709,24.8466338 24.4488802,24.8466338 C25.959766,24.8466338 27.4019752,25.2584565 28.6381546,26.0134647 L28.6381546,0.41182266 L20.6716655,0.41182266 L20.6716655,13.3842365 C18.9547498,11.3937603 16.3450379,10.1582923 12.7738531,10.1582923 C5.83751352,10.1582923 0.137353259,16.2669951 0.137353259,24.0916256 C0.137353259,31.9848933 5.83751352,38.0249589 12.7738531,38.0249589 C14.6967987,38.0249589 16.4137145,37.6817734 17.7872471,36.9954023 C17.0318042,35.8285714 16.5510677,34.318555 16.5510677,32.7399015 Z" id="XMLID_178_" fill="#000035"></path>
            </g>
        </g>
    </g>
</svg>