<?xml version="1.0" encoding="UTF-8"?>
<svg width="151px" height="207px" viewBox="0 0 151 207" version="1.1" xmlns="http://www.w3.org/2000/svg" xmlns:xlink="http://www.w3.org/1999/xlink">
    <!-- Generator: Sketch 53.1 (72631) - https://sketchapp.com -->
    <title>Group 9 Copy</title>
    <desc>Created with Sketch.</desc>
    <g id="320" stroke="none" stroke-width="1" fill="none" fill-rule="evenodd">
        <g id="Splash" transform="translate(-169.000000, -484.000000)">
            <g id="Group-9-Copy" transform="translate(169.000000, 484.000000)">
                <path d="M124,248 C55.516691,248 0,192.483309 0,124 C0,55.516691 55.516691,0 124,0 C192.483309,0 248,55.516691 248,124 C248,192.483309 192.483309,248 124,248 Z M124,193.914894 C162.61293,193.914894 193.914894,162.61293 193.914894,124 C193.914894,85.3870705 162.61293,54.0851064 124,54.0851064 C85.3870705,54.0851064 54.0851064,85.3870705 54.0851064,124 C54.0851064,162.61293 85.3870705,193.914894 124,193.914894 Z" id="Combined-Shape" fill="#05D3D8"></path>
                <circle id="Oval-25" fill="#FA2C46" cx="124.5" cy="124.5" r="29.5"></circle>
            </g>
        </g>
    </g>
</svg>