<?xml version="1.0" encoding="UTF-8"?>
<svg width="47px" height="50px" viewBox="0 0 47 50" version="1.1" xmlns="http://www.w3.org/2000/svg" xmlns:xlink="http://www.w3.org/1999/xlink">
    <!-- Generator: Sketch 53.1 (72631) - https://sketchapp.com -->
    <title>Group 22</title>
    <desc>Created with Sketch.</desc>
    <g id="320" stroke="none" stroke-width="1" fill="none" fill-rule="evenodd">
        <g id="Mi-plata" transform="translate(-205.000000, -469.000000)">
            <g id="Group-10" transform="translate(170.000000, 454.000000)">
                <g id="Group-22" transform="translate(35.000000, 16.000000)">
                    <g id="Group-16" transform="translate(7.000000, 8.000000)">
                        <circle id="Oval" fill="#FA2C46" fill-rule="nonzero" cx="18" cy="18" r="18"></circle>
                        <g id="Group-28" transform="translate(11.000000, 9.000000)">
                            <path d="M6.73217391,16.8328125 L6.73217391,16.4646875 C6.3225014,16.4389473 5.98986962,16.131954 5.94086957,15.734375 L6.40956522,15.6453125 C6.41261436,15.7729602 6.46887813,15.8938793 6.56536889,15.9801574 C6.66185965,16.0664355 6.79023794,16.1106158 6.92086957,16.1025 C7.15826087,16.1025 7.29826087,16.0075 7.29826087,15.829375 C7.29826087,15.65125 7.20086957,15.5978125 7.01217391,15.55625 L6.69565217,15.4375 C6.33483909,15.3973089 6.05675287,15.1084692 6.03826087,14.7546875 C6.05906,14.3778357 6.35419179,14.0699236 6.73826087,14.024375 L6.73826087,13.6621875 L7.11565217,13.6621875 L7.11565217,14.071875 C7.4388498,14.1171206 7.69884417,14.3541398 7.76695652,14.665625 L7.30434783,14.84375 C7.2759431,14.6412898 7.0862294,14.4985326 6.87826087,14.523125 C6.64695652,14.523125 6.50695652,14.6596875 6.50695652,14.79625 C6.50695652,14.9328125 6.59826087,14.9803125 6.73826087,15.021875 L7.06695652,15.116875 C7.43682305,15.138876 7.72503489,15.4382329 7.72434783,15.7996875 C7.71461351,16.1750918 7.40318453,16.4762552 7.01826087,16.4825 L7.01826087,16.850625 L6.73217391,16.8328125 Z" id="Path" fill="#FFFFFF"></path>
                            <polygon id="Path" stroke="#FFFFFF" stroke-width="0.599999964" stroke-linecap="round" points="3.97478261 18.5190625 3.93217391 11.6790625 9.72695652 11.6315625 9.77565217 18.5190625"></polygon>
                            <path d="M8.36956522,11.6315625 C8.21894336,12.0373231 8.29637378,12.4903455 8.57380224,12.8264925 C8.8512307,13.1626396 9.28841501,13.3331518 9.72695652,13.27625" id="Path" stroke="#FFFFFF" stroke-width="0.599999964" stroke-linecap="round"></path>
                            <path d="M8.41826087,18.5190625 C8.26763901,18.1133019 8.34506944,17.6602795 8.6224979,17.3241325 C8.89992635,16.9879854 9.33711066,16.8174732 9.77565217,16.874375" id="Path" stroke="#FFFFFF" stroke-width="0.599999964" stroke-linecap="round"></path>
                            <path d="M5.47826087,18.5190625 C5.62888273,18.1133019 5.5514523,17.6602795 5.27402384,17.3241325 C4.99659538,16.9879854 4.55941108,16.8174732 4.12086957,16.874375" id="Path" stroke="#FFFFFF" stroke-width="0.599999964" stroke-linecap="round"></path>
                            <path d="M5.38086957,11.6315625 C5.52775593,12.0371549 5.44883296,12.4880187 5.17229524,12.8230865 C4.89575751,13.1581543 4.46105373,13.329628 4.02347826,13.27625" id="Path" stroke="#FFFFFF" stroke-width="0.599999964" stroke-linecap="round"></path>
                            <path d="M2.62347826,11.6315625 L11.0843478,11.6315625" id="Path" stroke="#FFFFFF" stroke-width="0.599999964" stroke-linecap="round"></path>
                            <path d="M3.4573913,14.926875 L0.413913043,14.926875 L0.413913043,1.413125 C0.417238036,0.847173893 0.886759506,0.389180853 1.46695652,0.3859375 L12.3930435,0.3859375 C12.9732405,0.389180853 13.442762,0.847173893 13.446087,1.413125 L13.446087,14.926875 L9.79391304,14.926875" id="Path" stroke="#FFFFFF" stroke-width="0.599999964" stroke-linecap="round"></path>
                            <rect id="Rectangle" stroke="#FFFFFF" stroke-width="0.599999964" stroke-linecap="round" stroke-linejoin="round" x="2.64173913" y="2.5471875" width="8.41217391" height="4.001875"></rect>
                            <rect id="Rectangle" stroke="#FFFFFF" stroke-width="0.599999964" stroke-linecap="round" stroke-linejoin="round" x="2.93391304" y="7.991875" width="8.12608696" height="1.7159375"></rect>
                        </g>
                    </g>
                    <g id="Group-5" transform="translate(37.000000, 0.000000)" fill-rule="nonzero">
                        <path d="M4.54411765,-1.86517468e-14 C2.30429864,-1.86517468e-14 0.5,1.82179487 0.5,4.08333333 C0.5,6.34487179 2.30429864,8.16666667 4.54411765,8.16666667 C6.78393665,8.16666667 8.58823529,6.34487179 8.58823529,4.08333333 C8.58823529,1.82179487 6.78393665,-1.86517468e-14 4.54411765,-1.86517468e-14 Z M4.54411765,6.03076923 C3.48642534,6.03076923 2.61538462,5.15128205 2.61538462,4.08333333 C2.61538462,3.01538462 3.48642534,2.13589744 4.54411765,2.13589744 C5.60180995,2.13589744 6.47285068,3.01538462 6.47285068,4.08333333 C6.47285068,5.15128205 5.63291855,6.03076923 4.54411765,6.03076923 Z" id="Shape" fill="#5FD0D6"></path>
                        <ellipse id="Oval" fill="#F5BD41" cx="4.54411765" cy="4.08333333" rx="1.10294118" ry="1.11363636"></ellipse>
                    </g>
                    <g id="Group-5" transform="translate(33.000000, 37.000000)" fill-rule="nonzero">
                        <path d="M6.56372549,-1.86517468e-14 C3.32843137,-1.86517468e-14 0.722222222,2.63148148 0.722222222,5.89814815 C0.722222222,9.16481481 3.32843137,11.7962963 6.56372549,11.7962963 C9.79901961,11.7962963 12.4052288,9.16481481 12.4052288,5.89814815 C12.4052288,2.63148148 9.79901961,-1.86517468e-14 6.56372549,-1.86517468e-14 Z M6.56372549,8.71111111 C5.03594771,8.71111111 3.77777778,7.44074074 3.77777778,5.89814815 C3.77777778,4.35555556 5.03594771,3.08518519 6.56372549,3.08518519 C8.09150327,3.08518519 9.3496732,4.35555556 9.3496732,5.89814815 C9.3496732,7.44074074 8.13643791,8.71111111 6.56372549,8.71111111 Z" id="Shape" fill="#5FD0D6"></path>
                        <ellipse id="Oval" fill="#F5BD41" cx="6.56372549" cy="5.89814815" rx="1.59313725" ry="1.60858586"></ellipse>
                    </g>
                    <path d="M4.04411765,37.8636364 C1.80429864,37.8636364 -3.90798505e-14,39.6854312 -3.90798505e-14,41.9469697 C-3.90798505e-14,44.2085082 1.80429864,46.030303 4.04411765,46.030303 C6.28393665,46.030303 8.08823529,44.2085082 8.08823529,41.9469697 C8.08823529,39.6854312 6.28393665,37.8636364 4.04411765,37.8636364 Z" id="Path" fill="#5FD0D6" fill-rule="nonzero"></path>
                    <path d="M4.04411765,43.8944056 C2.98642534,43.8944056 2.11538462,43.0149184 2.11538462,41.9469697 C2.11538462,40.879021 2.98642534,39.9995338 4.04411765,39.9995338 C5.10180995,39.9995338 5.97285068,40.879021 5.97285068,41.9469697 C5.97285068,43.0149184 5.10180995,43.8944056 4.04411765,43.8944056 Z" id="Path" fill="#E6434D" fill-rule="nonzero"></path>
                    <ellipse id="Oval" fill="#F5BD41" fill-rule="nonzero" cx="4.04411765" cy="41.9469697" rx="1.10294118" ry="1.11363636"></ellipse>
                    <ellipse id="Oval" stroke="#5FD0D6" cx="10.3970588" cy="46.9469697" rx="1.10294118" ry="1.11363636"></ellipse>
                    <ellipse id="Oval" stroke="#5FD0D6" cx="45.2205882" cy="10.0227273" rx="1.10294118" ry="1.11363636"></ellipse>
                    <ellipse id="Oval" stroke="#5FD0D6" cx="34.9264706" cy="1.11363636" rx="1.10294118" ry="1.11363636"></ellipse>
                </g>
            </g>
        </g>
    </g>
</svg>