<?xml version="1.0" encoding="UTF-8"?>
<svg width="47px" height="50px" viewBox="0 0 47 50" version="1.1" xmlns="http://www.w3.org/2000/svg" xmlns:xlink="http://www.w3.org/1999/xlink">
    <!-- Generator: Sketch 53.1 (72631) - https://sketchapp.com -->
    <title>Group 15</title>
    <desc>Created with Sketch.</desc>
    <g id="320" stroke="none" stroke-width="1" fill="none" fill-rule="evenodd">
        <g id="Mi-plata" transform="translate(-65.000000, -469.000000)">
            <g id="Group-8" transform="translate(27.000000, 453.000000)">
                <g id="Group-15" transform="translate(38.000000, 17.000000)">
                    <g id="Group-13" transform="translate(4.000000, 8.000000)">
                        <circle id="Oval" fill="#F5BD41" fill-rule="nonzero" cx="18" cy="18" r="18"></circle>
                        <g id="Group-27" transform="translate(10.000000, 12.000000)">
                            <path d="M7.96190476,9.93055556 L7.96190476,9.28055556 C7.20652533,9.23405278 6.59253473,8.68538529 6.49904762,7.97333333 L7.36,7.80722222 C7.36554362,8.03736327 7.47074454,8.25520226 7.65089436,8.40957565 C7.83104418,8.56394903 8.07026848,8.64125374 8.31238095,8.62333333 C8.73904762,8.62333333 8.99809524,8.46444444 8.99809524,8.13944444 C8.99809524,7.81444444 8.82285714,7.72777778 8.48,7.64833333 L7.87809524,7.48222222 C7.21760346,7.40604883 6.71007627,6.8914615 6.67428571,6.26166667 C6.70700644,5.58547897 7.25248008,5.03170085 7.96190476,4.95444444 L7.96190476,4.33333333 L8.6552381,4.33333333 L8.6552381,5.05555556 C9.24629224,5.14570447 9.72161452,5.56490187 9.85904762,6.11722222 L8.99809524,6.36277778 C8.94670561,6.0096492 8.61050039,5.75788052 8.23619048,5.79222222 C7.80952381,5.79222222 7.55047619,6.03777778 7.55047619,6.28333333 C7.55047619,6.52888889 7.71809524,6.60833333 7.97714286,6.68777778 L8.57904762,6.85388889 C9.26026342,6.89216418 9.79167183,7.42757626 9.79047619,8.07444444 C9.77436636,8.74610034 9.20379817,9.28695144 8.4952381,9.30222222 L8.4952381,9.95222222 L7.96190476,9.93055556 Z" id="Path" fill="#FFFFFF"></path>
                            <polygon id="Path" stroke="#FFFFFF" stroke-width="0.751999953" stroke-linecap="round" points="2.88761905 12.9494444 2.79619048 0.707777778 13.4780952 0.628333333 13.5619048 12.9494444"></polygon>
                            <path d="M11.0628571,12.9494444 C11.0628571,12.9494444 10.2019048,10.01 13.5619048,10.01" id="Path" stroke="#FFFFFF" stroke-width="0.751999953" stroke-linecap="round"></path>
                            <path d="M5.63809524,12.9494444 C5.63809524,12.9494444 6.49904762,10.01 3.14666667,10.01" id="Path" stroke="#FFFFFF" stroke-width="0.751999953" stroke-linecap="round"></path>
                            <path d="M5.47047619,0.628333333 C5.47047619,0.628333333 6.33142857,3.56777778 2.97142857,3.56777778" id="Path" stroke="#FFFFFF" stroke-width="0.751999953" stroke-linecap="round"></path>
                            <path d="M0.388571429,0.628333333 L15.9695238,0.628333333" id="Path" stroke="#FFFFFF" stroke-width="0.751999953" stroke-linecap="round"></path>
                        </g>
                    </g>
                    <g id="Group-2">
                        <g id="Group-5" transform="translate(37.000000, 0.000000)" fill-rule="nonzero">
                            <path d="M4.54411765,-1.86517468e-14 C2.30429864,-1.86517468e-14 0.5,1.82179487 0.5,4.08333333 C0.5,6.34487179 2.30429864,8.16666667 4.54411765,8.16666667 C6.78393665,8.16666667 8.58823529,6.34487179 8.58823529,4.08333333 C8.58823529,1.82179487 6.78393665,-1.86517468e-14 4.54411765,-1.86517468e-14 Z M4.54411765,6.03076923 C3.48642534,6.03076923 2.61538462,5.15128205 2.61538462,4.08333333 C2.61538462,3.01538462 3.48642534,2.13589744 4.54411765,2.13589744 C5.60180995,2.13589744 6.47285068,3.01538462 6.47285068,4.08333333 C6.47285068,5.15128205 5.63291855,6.03076923 4.54411765,6.03076923 Z" id="Shape" fill="#FA2C46"></path>
                            <ellipse id="Oval" fill="#F5BD41" cx="4.54411765" cy="4.08333333" rx="1.10294118" ry="1.11363636"></ellipse>
                        </g>
                        <g id="Group-5" transform="translate(33.000000, 37.000000)" fill-rule="nonzero">
                            <path d="M6.56372549,-1.86517468e-14 C3.32843137,-1.86517468e-14 0.722222222,2.63148148 0.722222222,5.89814815 C0.722222222,9.16481481 3.32843137,11.7962963 6.56372549,11.7962963 C9.79901961,11.7962963 12.4052288,9.16481481 12.4052288,5.89814815 C12.4052288,2.63148148 9.79901961,-1.86517468e-14 6.56372549,-1.86517468e-14 Z M6.56372549,8.71111111 C5.03594771,8.71111111 3.77777778,7.44074074 3.77777778,5.89814815 C3.77777778,4.35555556 5.03594771,3.08518519 6.56372549,3.08518519 C8.09150327,3.08518519 9.3496732,4.35555556 9.3496732,5.89814815 C9.3496732,7.44074074 8.13643791,8.71111111 6.56372549,8.71111111 Z" id="Shape" fill="#FA2C46"></path>
                            <ellipse id="Oval" fill="#F5BD41" cx="6.56372549" cy="5.89814815" rx="1.59313725" ry="1.60858586"></ellipse>
                        </g>
                        <path d="M4.04411765,37.8636364 C1.80429864,37.8636364 6.43041176e-13,39.6854312 6.43041176e-13,41.9469697 C6.43041176e-13,44.2085082 1.80429864,46.030303 4.04411765,46.030303 C6.28393665,46.030303 8.08823529,44.2085082 8.08823529,41.9469697 C8.08823529,39.6854312 6.28393665,37.8636364 4.04411765,37.8636364 Z" id="Path" fill="#FA2C46" fill-rule="nonzero"></path>
                        <path d="M4.04411765,43.8944056 C2.98642534,43.8944056 2.11538462,43.0149184 2.11538462,41.9469697 C2.11538462,40.879021 2.98642534,39.9995338 4.04411765,39.9995338 C5.10180995,39.9995338 5.97285068,40.879021 5.97285068,41.9469697 C5.97285068,43.0149184 5.10180995,43.8944056 4.04411765,43.8944056 Z" id="Path" fill="#FFFFFF" fill-rule="nonzero"></path>
                        <ellipse id="Oval" fill="#F5BD41" fill-rule="nonzero" cx="4.04411765" cy="41.9469697" rx="1.10294118" ry="1.11363636"></ellipse>
                        <ellipse id="Oval" stroke="#FA2C46" cx="10.3970588" cy="46.9469697" rx="1.10294118" ry="1.11363636"></ellipse>
                        <ellipse id="Oval" stroke="#FA2C46" cx="45.2205882" cy="10.0227273" rx="1.10294118" ry="1.11363636"></ellipse>
                        <ellipse id="Oval" stroke="#FA2C46" cx="34.9264706" cy="1.11363636" rx="1.10294118" ry="1.11363636"></ellipse>
                    </g>
                </g>
            </g>
        </g>
    </g>
</svg>