<?xml version="1.0" encoding="UTF-8"?>
<svg width="47px" height="50px" viewBox="0 0 47 50" version="1.1" xmlns="http://www.w3.org/2000/svg" xmlns:xlink="http://www.w3.org/1999/xlink">
    <!-- Generator: Sketch 53.1 (72631) - https://sketchapp.com -->
    <title>Group 15 Copy</title>
    <desc>Created with Sketch.</desc>
    <g id="320" stroke="none" stroke-width="1" fill="none" fill-rule="evenodd">
        <g id="Mi-plata" transform="translate(-63.000000, -331.000000)">
            <g id="Group-4" transform="translate(30.000000, 314.000000)">
                <g id="Group-15-Copy" transform="translate(33.000000, 18.000000)">
                    <g id="Group-18" transform="translate(9.000000, 8.000000)">
                        <circle id="Oval" fill="#FA2C46" fill-rule="nonzero" cx="18" cy="18" r="18"></circle>
                        <g id="Group-26" transform="translate(5.000000, 13.000000)" stroke="#FFFFFF" stroke-linecap="round" stroke-width="0.799999952">
                            <ellipse id="Oval" cx="3.940625" cy="2.5" rx="2.12875" ry="2.18333333"></ellipse>
                            <path d="M0.357499835,9.66666667 C0.357118098,8.37478466 1.01813632,7.17757474 2.09851522,6.51340914 C3.17889411,5.84924353 4.51994438,5.81567688 5.630625,6.425" id="Path" stroke-linejoin="round"></path>
                            <ellipse id="Oval" cx="21.8725" cy="2.5" rx="2.12875" ry="2.18333333"></ellipse>
                            <path d="M20.3775,6.325 C20.8460441,6.10301497 21.3563874,5.98922603 21.8725,5.99166667 C23.8527239,5.99166147 25.4592699,7.63567297 25.46375,9.66666667" id="Path" stroke-linejoin="round"></path>
                            <path d="M14.876875,7.78333333 L11.71625,7.78333333" id="Path"></path>
                            <polyline id="Path" stroke-linejoin="round" points="12.894375 9.43333333 11.29375 7.78333333 12.894375 6.23333333"></polyline>
                            <path d="M11.29375,2.45833333 L14.454375,2.45833333" id="Path"></path>
                            <polyline id="Path" stroke-linejoin="round" points="13.27625 0.808333333 14.876875 2.45833333 13.27625 4.00833333"></polyline>
                            <rect id="Rectangle" stroke-linejoin="round" x="5.760625" y="5.99166667" width="2.61625" height="4"></rect>
                            <rect id="Rectangle" stroke-linejoin="round" x="17.69625" y="5.99166667" width="2.61625" height="4"></rect>
                        </g>
                    </g>
                    <g id="Group-2">
                        <g id="Group-5" transform="translate(37.000000, 0.000000)" fill-rule="nonzero">
                            <path d="M4.54411765,-1.86517468e-14 C2.30429864,-1.86517468e-14 0.5,1.82179487 0.5,4.08333333 C0.5,6.34487179 2.30429864,8.16666667 4.54411765,8.16666667 C6.78393665,8.16666667 8.58823529,6.34487179 8.58823529,4.08333333 C8.58823529,1.82179487 6.78393665,-1.86517468e-14 4.54411765,-1.86517468e-14 Z M4.54411765,6.03076923 C3.48642534,6.03076923 2.61538462,5.15128205 2.61538462,4.08333333 C2.61538462,3.01538462 3.48642534,2.13589744 4.54411765,2.13589744 C5.60180995,2.13589744 6.47285068,3.01538462 6.47285068,4.08333333 C6.47285068,5.15128205 5.63291855,6.03076923 4.54411765,6.03076923 Z" id="Shape" fill="#5FD0D6"></path>
                            <ellipse id="Oval" fill="#F5BD41" cx="4.54411765" cy="4.08333333" rx="1.10294118" ry="1.11363636"></ellipse>
                        </g>
                        <g id="Group-5" transform="translate(33.000000, 37.000000)" fill-rule="nonzero">
                            <path d="M6.56372549,-1.86517468e-14 C3.32843137,-1.86517468e-14 0.722222222,2.63148148 0.722222222,5.89814815 C0.722222222,9.16481481 3.32843137,11.7962963 6.56372549,11.7962963 C9.79901961,11.7962963 12.4052288,9.16481481 12.4052288,5.89814815 C12.4052288,2.63148148 9.79901961,-1.86517468e-14 6.56372549,-1.86517468e-14 Z M6.56372549,8.71111111 C5.03594771,8.71111111 3.77777778,7.44074074 3.77777778,5.89814815 C3.77777778,4.35555556 5.03594771,3.08518519 6.56372549,3.08518519 C8.09150327,3.08518519 9.3496732,4.35555556 9.3496732,5.89814815 C9.3496732,7.44074074 8.13643791,8.71111111 6.56372549,8.71111111 Z" id="Shape" fill="#5FD0D6"></path>
                            <ellipse id="Oval" fill="#F5BD41" cx="6.56372549" cy="5.89814815" rx="1.59313725" ry="1.60858586"></ellipse>
                        </g>
                        <path d="M4.04411765,37.8636364 C1.80429864,37.8636364 6.43041176e-13,39.6854312 6.43041176e-13,41.9469697 C6.43041176e-13,44.2085082 1.80429864,46.030303 4.04411765,46.030303 C6.28393665,46.030303 8.08823529,44.2085082 8.08823529,41.9469697 C8.08823529,39.6854312 6.28393665,37.8636364 4.04411765,37.8636364 Z" id="Path" fill="#5FD0D6" fill-rule="nonzero"></path>
                        <path d="M4.04411765,43.8944056 C2.98642534,43.8944056 2.11538462,43.0149184 2.11538462,41.9469697 C2.11538462,40.879021 2.98642534,39.9995338 4.04411765,39.9995338 C5.10180995,39.9995338 5.97285068,40.879021 5.97285068,41.9469697 C5.97285068,43.0149184 5.10180995,43.8944056 4.04411765,43.8944056 Z" id="Path" fill="#E6434D" fill-rule="nonzero"></path>
                        <ellipse id="Oval" fill="#F5BD41" fill-rule="nonzero" cx="4.04411765" cy="41.9469697" rx="1.10294118" ry="1.11363636"></ellipse>
                        <ellipse id="Oval" stroke="#5FD0D6" cx="10.3970588" cy="46.9469697" rx="1.10294118" ry="1.11363636"></ellipse>
                        <ellipse id="Oval" stroke="#5FD0D6" cx="45.2205882" cy="10.0227273" rx="1.10294118" ry="1.11363636"></ellipse>
                        <ellipse id="Oval" stroke="#5FD0D6" cx="34.9264706" cy="1.11363636" rx="1.10294118" ry="1.11363636"></ellipse>
                    </g>
                </g>
            </g>
        </g>
    </g>
</svg>